# WaveFront *.obj file (generated by Autodesk ATF)

mtllib GripperX+.mtl

g Solid2

v -19.760000 -154.000002 5.858579
v -19.760000 -154.000002 -5.858579
v -9.750000 -154.000002 5.858579
v -9.750000 -154.000002 -5.858579
v -19.760000 -153.858582 6.000000
v -19.760000 -153.858582 -6.000000
v -9.750000 -153.858582 6.000000
v -9.750000 -153.858582 -6.000000
v -19.760000 -150.499998 0.000000
v -9.750000 -150.499998 0.000000
v -19.760000 -150.414816 0.647048
v -19.760000 -150.414816 -0.647048
v -9.750000 -150.414816 0.647048
v -9.750000 -150.414816 -0.647047
v -19.760000 -150.165068 1.250000
v -19.760000 -150.165068 -1.250000
v -9.750000 -150.165068 1.250000
v -9.750000 -150.165068 -1.250000
v -19.360000 -150.078627 0.298861
v -19.360000 -150.078627 -0.298861
v -10.150000 -150.078627 0.298861
v -10.150000 -150.078627 -0.298861
v -19.360000 -149.910227 0.872371
v -19.360000 -149.910227 -0.872371
v -10.150000 -149.910227 0.872372
v -10.150000 -149.910227 -0.872371
v -19.760000 -149.767767 1.767767
v -19.760000 -149.767767 -1.767767
v -9.750000 -149.767767 1.767767
v -9.750000 -149.767767 -1.767767
v -19.360000 -149.587074 1.375208
v -19.360000 -149.587074 -1.375208
v -10.150000 -149.587074 1.375208
v -10.150000 -149.587074 -1.375207
v -19.760000 -149.249998 2.165063
v -19.760000 -149.249998 -2.165063
v -9.750000 -149.249998 2.165064
v -9.750000 -149.249998 -2.165063
v -19.360000 -149.135347 1.766632
v -19.360000 -149.135347 -1.766632
v -10.150000 -149.135347 1.766633
v -10.150000 -149.135347 -1.766632
v -19.760000 -148.647047 2.414815
v -19.760000 -148.647047 -2.414815
v -9.750000 -148.647047 2.414815
v -9.750000 -148.647047 -2.414815
v -19.360000 -148.591639 2.014935
v -19.360000 -148.591639 -2.014935
v -10.150000 -148.591639 2.014935
v -10.150000 -148.591639 -2.014935
v -19.760000 -147.999998 2.500000
v -19.760000 -147.999998 -2.500000
v -19.360000 -147.999998 2.100000
v -19.360000 -147.999998 -2.100000
v -10.150000 -147.999998 2.100000
v -10.150000 -147.999998 -2.100000
v -9.750000 -147.999998 2.500000
v -9.750000 -147.999998 -2.500000
v -19.360000 -147.408358 2.014935
v -19.360000 -147.408358 -2.014935
v -10.150000 -147.408358 2.014935
v -10.150000 -147.408358 -2.014935
v -19.760000 -147.352949 2.414815
v -19.760000 -147.352949 -2.414815
v -9.750000 -147.352949 2.414815
v -9.750000 -147.352949 -2.414815
v -19.360000 -146.864658 1.766632
v -19.360000 -146.864658 -1.766632
v -10.150000 -146.864658 1.766632
v -10.150000 -146.864658 -1.766633
v -19.760000 -146.749998 2.165063
v -19.760000 -146.749998 -2.165063
v -9.750000 -146.749998 2.165063
v -9.750000 -146.749998 -2.165064
v -19.360000 -146.412922 1.375208
v -19.360000 -146.412922 -1.375208
v -10.150000 -146.412922 1.375207
v -10.150000 -146.412922 -1.375208
v -19.760000 -146.232229 1.767767
v -19.760000 -146.232229 -1.767767
v -9.750000 -146.232229 1.767767
v -9.750000 -146.232229 -1.767767
v -19.360000 -146.089769 0.872371
v -19.360000 -146.089769 -0.872371
v -10.150000 -146.089769 0.872371
v -10.150000 -146.089769 -0.872372
v -19.360000 -145.921379 0.298861
v -19.360000 -145.921379 -0.298861
v -10.150000 -145.921379 0.298861
v -10.150000 -145.921379 -0.298861
v -19.760000 -145.834938 1.250000
v -19.760000 -145.834938 -1.250000
v -9.750000 -145.834938 1.250000
v -9.750000 -145.834938 -1.250000
v -19.760000 -145.585190 0.647048
v -19.760000 -145.585190 -0.647048
v -9.750000 -145.585190 0.647047
v -9.750000 -145.585190 -0.647048
v -19.760000 -145.499998 0.000000
v -9.750000 -145.499998 0.000000
v -19.760000 -138.500000 0.000000
v -9.750000 -138.500000 0.000000
v -19.760000 -138.414818 0.647048
v -19.760000 -138.414818 -0.647048
v -9.750000 -138.414818 0.647048
v -9.750000 -138.414818 -0.647047
v -19.760000 -138.165060 1.250000
v -19.760000 -138.165060 -1.250000
v -9.750000 -138.165060 1.250000
v -9.750000 -138.165060 -1.250000
v -19.360000 -138.078629 0.298861
v -19.360000 -138.078629 -0.298861
v -10.150000 -138.078629 0.298861
v -10.150000 -138.078629 -0.298861
v -19.360000 -137.910229 0.872371
v -19.360000 -137.910229 -0.872371
v -10.150000 -137.910229 0.872372
v -10.150000 -137.910229 -0.872371
v -19.760000 -137.767769 1.767767
v -19.760000 -137.767769 -1.767767
v -9.750000 -137.767769 1.767767
v -9.750000 -137.767769 -1.767767
v -19.360000 -137.587076 1.375208
v -19.360000 -137.587076 -1.375208
v -10.150000 -137.587076 1.375208
v -10.150000 -137.587076 -1.375207
v -19.760000 -137.250000 2.165063
v -19.760000 -137.250000 -2.165063
v -9.750000 -137.250000 2.165064
v -9.750000 -137.250000 -2.165063
v -19.360000 -137.135349 1.766632
v -19.360000 -137.135349 -1.766632
v -10.150000 -137.135349 1.766633
v -10.150000 -137.135349 -1.766632
v -19.760000 -136.647049 2.414815
v -19.760000 -136.647049 -2.414815
v -9.750000 -136.647049 2.414815
v -9.750000 -136.647049 -2.414815
v -19.360000 -136.591640 2.014935
v -19.360000 -136.591640 -2.014935
v -10.150000 -136.591640 2.014935
v -10.150000 -136.591640 -2.014935
v -19.760000 -136.000000 2.500000
v -19.760000 -136.000000 -2.500000
v -19.360000 -136.000000 2.100000
v -19.360000 -136.000000 -2.100000
v -10.150000 -136.000000 2.100000
v -10.150000 -136.000000 -2.100000
v -9.750000 -136.000000 2.500000
v -9.750000 -136.000000 -2.500000
v -19.360000 -135.408360 2.014935
v -19.360000 -135.408360 -2.014935
v -10.150000 -135.408360 2.014935
v -10.150000 -135.408360 -2.014935
v -19.760000 -135.352951 2.414815
v -19.760000 -135.352951 -2.414815
v -9.750000 -135.352951 2.414815
v -9.750000 -135.352951 -2.414815
v -19.360000 -134.864651 1.766632
v -19.360000 -134.864651 -1.766632
v -10.150000 -134.864651 1.766632
v -10.150000 -134.864651 -1.766633
v -19.760000 -134.750000 2.165063
v -19.760000 -134.750000 -2.165063
v -9.750000 -134.750000 2.165063
v -9.750000 -134.750000 -2.165064
v -19.360000 -134.412924 1.375208
v -19.360000 -134.412924 -1.375208
v -10.150000 -134.412924 1.375207
v -10.150000 -134.412924 -1.375208
v -19.760000 -134.232231 1.767767
v -19.760000 -134.232231 -1.767767
v -9.750000 -134.232231 1.767767
v -9.750000 -134.232231 -1.767767
v -19.360000 -134.089771 0.872371
v -19.360000 -134.089771 -0.872371
v -10.150000 -134.089771 0.872371
v -10.150000 -134.089771 -0.872372
v -19.360000 -133.921371 0.298861
v -19.360000 -133.921371 -0.298861
v -10.150000 -133.921371 0.298861
v -10.150000 -133.921371 -0.298861
v -19.760000 -133.834940 1.250000
v -19.760000 -133.834940 -1.250000
v -9.750000 -133.834940 1.250000
v -9.750000 -133.834940 -1.250000
v -19.760000 -133.585182 0.647048
v -19.760000 -133.585182 -0.647048
v -9.750000 -133.585182 0.647047
v -9.750000 -133.585182 -0.647048
v -19.760000 -133.500000 0.000000
v -9.750000 -133.500000 0.000000
v -23.910000 -128.900000 6.000000
v -23.910000 -128.900000 -6.000000
v -19.760000 -128.900000 6.000000
v -19.760000 -128.900000 -6.000000
v -9.750000 -128.900000 6.000000
v -9.750000 -128.900000 -6.000000
v -0.110000 -128.900000 6.000000
v -0.110000 -128.900000 -6.000000
v -23.910000 -125.530001 6.000000
v -23.910000 -125.530001 -6.000000
v -0.110000 -125.530001 6.000000
v -0.110000 -125.530001 -6.000000
v -23.910000 -124.799148 6.699441
v -23.910000 -124.799148 -6.699441
v -0.110000 -124.799148 6.699441
v -0.110000 -124.799148 -6.699441
v -23.910000 -124.735690 7.184510
v -23.910000 -124.735690 -7.184510
v -0.110000 -124.735690 7.184510
v -0.110000 -124.735690 -7.184510
v -23.910000 -124.519526 7.623363
v -23.910000 -124.519526 -7.623363
v -0.110000 -124.519526 7.623363
v -0.110000 -124.519526 -7.623363
v -23.910000 -124.173647 7.969322
v -23.910000 -124.173647 -7.969322
v -0.110000 -124.173647 7.969322
v -0.110000 -124.173647 -7.969322
v -23.910000 -123.734842 8.185588
v -23.910000 -123.734842 -8.185588
v -0.110000 -123.734842 8.185588
v -0.110000 -123.734842 -8.185588
v -23.910000 -123.249789 8.249159
v -23.910000 -123.249789 -8.249159
v -0.110000 -123.249789 8.249159
v -0.110000 -123.249789 -8.249159
v -23.910000 -122.770072 8.153274
v -23.910000 -122.770072 -8.153274
v -0.110000 -122.770072 8.153274
v -0.110000 -122.770072 -8.153274
v -23.910000 -122.346726 7.908131
v -23.910000 -122.346726 -7.908131
v -0.110000 -122.346726 7.908131
v -0.110000 -122.346726 -7.908131
v -23.910000 -122.024771 7.539805
v -23.910000 -122.024771 -7.539805
v -0.110000 -122.024771 7.539805
v -0.110000 -122.024771 -7.539805
v -23.910000 -121.838456 7.087471
v -23.910000 -121.838456 -7.087471
v -0.110000 -121.838456 7.087471
v -0.110000 -121.838456 -7.087471
v -23.910000 -121.807595 6.599243
v -23.910000 -121.807595 -6.599243
v -0.110000 -121.807595 6.599243
v -0.110000 -121.807595 -6.599243
v -23.910000 -121.260000 6.000000
v -23.910000 -121.260000 -6.000000
v -0.110000 -121.260000 6.000000
v -0.110000 -121.260000 -6.000000
v -23.910000 -120.941421 6.000000
v -23.910000 -120.941421 -6.000000
v -0.110000 -120.941421 6.000000
v -0.110000 -120.941421 -6.000000
v -23.910000 -120.800000 5.858579
v -23.910000 -120.800000 -5.858579
v -0.110000 -120.800000 5.858579
v -0.110000 -120.800000 -5.858579
vt -0.040000 0.000000 0.000000
vt -0.040000 0.059976 0.000000
vt -0.040000 0.119952 0.000000
vt -0.040000 0.179928 0.000000
vt -0.040000 0.239903 0.000000
vt -0.040000 0.299879 0.000000
vt -0.040000 0.359855 0.000000
vt -0.040000 0.419831 0.000000
vt -0.040000 0.479807 0.000000
vt -0.040000 0.539783 0.000000
vt -0.040000 0.599759 0.000000
vt -0.040000 -0.659734 0.000000
vt -0.040000 -0.599759 0.000000
vt -0.040000 -0.539783 0.000000
vt -0.040000 -0.479807 0.000000
vt -0.040000 -0.419831 0.000000
vt -0.040000 -0.359855 0.000000
vt -0.040000 -0.299879 0.000000
vt -0.040000 -0.239903 0.000000
vt -0.040000 -0.179928 0.000000
vt -0.040000 -0.119952 0.000000
vt -0.040000 -0.059976 0.000000
vt -0.961000 0.659734 0.000000
vt -0.961000 0.599759 0.000000
vt -0.961000 0.539783 0.000000
vt -0.961000 0.479807 0.000000
vt -0.961000 0.419831 0.000000
vt -0.961000 0.359855 0.000000
vt -0.961000 0.299879 0.000000
vt -0.961000 0.239903 0.000000
vt -0.961000 0.179928 0.000000
vt -0.961000 0.119952 0.000000
vt -0.961000 0.059976 0.000000
vt -0.961000 0.000000 0.000000
vt -0.961000 -0.059976 0.000000
vt -0.961000 -0.119952 0.000000
vt -0.961000 -0.179928 0.000000
vt -0.961000 -0.239903 0.000000
vt -0.961000 -0.299879 0.000000
vt -0.961000 -0.359855 0.000000
vt -0.961000 -0.419831 0.000000
vt -0.961000 -0.479807 0.000000
vt -0.961000 -0.539783 0.000000
vt -0.961000 -0.599759 0.000000
vt -0.961000 -0.659734 0.000000
vt -0.961000 -0.659734 0.000000
vt -0.040000 0.659734 0.000000
vt -0.040000 0.659734 0.000000
vt -0.040000 0.000000 0.000000
vt -0.040000 0.059976 0.000000
vt -0.040000 0.119952 0.000000
vt -0.040000 0.179928 0.000000
vt -0.040000 0.239903 0.000000
vt -0.040000 0.299879 0.000000
vt -0.040000 0.359855 0.000000
vt -0.040000 0.419831 0.000000
vt -0.040000 0.479807 0.000000
vt -0.040000 0.539783 0.000000
vt -0.040000 0.599759 0.000000
vt -0.040000 -0.659734 0.000000
vt -0.040000 -0.599759 0.000000
vt -0.040000 -0.539783 0.000000
vt -0.040000 -0.479807 0.000000
vt -0.040000 -0.419831 0.000000
vt -0.040000 -0.359855 0.000000
vt -0.040000 -0.299879 0.000000
vt -0.040000 -0.239903 0.000000
vt -0.040000 -0.179928 0.000000
vt -0.040000 -0.119952 0.000000
vt -0.040000 -0.059976 0.000000
vt -0.961000 0.659734 0.000000
vt -0.961000 0.599759 0.000000
vt -0.961000 0.539783 0.000000
vt -0.961000 0.479807 0.000000
vt -0.961000 0.419831 0.000000
vt -0.961000 0.359855 0.000000
vt -0.961000 0.299879 0.000000
vt -0.961000 0.239903 0.000000
vt -0.961000 0.179928 0.000000
vt -0.961000 0.119952 0.000000
vt -0.961000 0.059976 0.000000
vt -0.961000 0.000000 0.000000
vt -0.961000 -0.059976 0.000000
vt -0.961000 -0.119952 0.000000
vt -0.961000 -0.179928 0.000000
vt -0.961000 -0.239903 0.000000
vt -0.961000 -0.299879 0.000000
vt -0.961000 -0.359855 0.000000
vt -0.961000 -0.419831 0.000000
vt -0.961000 -0.479807 0.000000
vt -0.961000 -0.539783 0.000000
vt -0.961000 -0.599759 0.000000
vt -0.961000 -0.659734 0.000000
vt -0.961000 -0.659734 0.000000
vt -0.040000 0.659734 0.000000
vt -0.040000 0.659734 0.000000
vt 0.000000 -0.722566 0.000000
vt 0.000000 -0.662352 0.000000
vt 0.000000 -0.602139 0.000000
vt 0.000000 -0.541925 0.000000
vt 0.000000 -0.481711 0.000000
vt 0.000000 -0.421497 0.000000
vt 0.000000 -0.361283 0.000000
vt 0.000000 -0.301069 0.000000
vt 0.000000 -0.240855 0.000000
vt 0.000000 -0.180642 0.000000
vt 0.000000 -0.120428 0.000000
vt 0.000000 -0.060214 0.000000
vt 0.000000 0.000000 0.000000
vt 0.000000 0.060214 0.000000
vt 0.000000 0.120428 0.000000
vt 0.000000 0.180642 0.000000
vt 0.000000 0.240855 0.000000
vt 0.000000 0.301069 0.000000
vt 0.000000 0.361283 0.000000
vt 0.000000 0.421497 0.000000
vt 0.000000 0.481711 0.000000
vt 0.000000 0.541925 0.000000
vt 0.000000 0.602139 0.000000
vt 0.000000 0.662352 0.000000
vt -0.056569 0.722566 0.000000
vt -0.056569 0.656878 0.000000
vt -0.056569 0.591191 0.000000
vt -0.056569 0.525503 0.000000
vt -0.056569 0.459815 0.000000
vt -0.056569 0.394127 0.000000
vt -0.056569 0.328439 0.000000
vt -0.056569 0.262751 0.000000
vt -0.056569 0.197064 0.000000
vt -0.056569 0.131376 0.000000
vt -0.056569 0.065688 0.000000
vt -0.056569 0.000000 0.000000
vt -0.056569 -0.065688 0.000000
vt -0.056569 -0.131376 0.000000
vt -0.056569 -0.197064 0.000000
vt -0.056569 -0.262751 0.000000
vt -0.056569 -0.328439 0.000000
vt -0.056569 -0.394127 0.000000
vt -0.056569 -0.459815 0.000000
vt -0.056569 -0.525503 0.000000
vt -0.056569 -0.591191 0.000000
vt -0.056569 -0.656878 0.000000
vt 0.000000 0.722566 0.000000
vt -0.056569 -0.722566 0.000000
vt -0.056569 -0.722566 0.000000
vt 0.000000 -0.722566 0.000000
vt 0.000000 -0.662352 0.000000
vt 0.000000 -0.602139 0.000000
vt 0.000000 -0.541925 0.000000
vt 0.000000 -0.481711 0.000000
vt 0.000000 -0.421497 0.000000
vt 0.000000 -0.361283 0.000000
vt 0.000000 -0.301069 0.000000
vt 0.000000 -0.240855 0.000000
vt 0.000000 -0.180642 0.000000
vt 0.000000 -0.120428 0.000000
vt 0.000000 -0.060214 0.000000
vt 0.000000 0.000000 0.000000
vt 0.000000 0.060214 0.000000
vt 0.000000 0.120428 0.000000
vt 0.000000 0.180642 0.000000
vt 0.000000 0.240855 0.000000
vt 0.000000 0.301069 0.000000
vt 0.000000 0.361283 0.000000
vt 0.000000 0.421497 0.000000
vt 0.000000 0.481711 0.000000
vt 0.000000 0.541925 0.000000
vt 0.000000 0.602139 0.000000
vt 0.000000 0.662352 0.000000
vt -0.056569 0.722566 0.000000
vt -0.056569 0.656878 0.000000
vt -0.056569 0.591191 0.000000
vt -0.056569 0.525503 0.000000
vt -0.056569 0.459815 0.000000
vt -0.056569 0.394127 0.000000
vt -0.056569 0.328439 0.000000
vt -0.056569 0.262751 0.000000
vt -0.056569 0.197064 0.000000
vt -0.056569 0.131376 0.000000
vt -0.056569 0.065688 0.000000
vt -0.056569 0.000000 0.000000
vt -0.056569 -0.065688 0.000000
vt -0.056569 -0.131376 0.000000
vt -0.056569 -0.197064 0.000000
vt -0.056569 -0.262751 0.000000
vt -0.056569 -0.328439 0.000000
vt -0.056569 -0.394127 0.000000
vt -0.056569 -0.459815 0.000000
vt -0.056569 -0.525503 0.000000
vt -0.056569 -0.591191 0.000000
vt -0.056569 -0.656878 0.000000
vt 0.000000 0.722566 0.000000
vt -0.056569 -0.722566 0.000000
vt -0.056569 -0.722566 0.000000
vt 0.000000 -0.722566 0.000000
vt 0.000000 -0.662352 0.000000
vt 0.000000 -0.602139 0.000000
vt 0.000000 -0.541925 0.000000
vt 0.000000 -0.481711 0.000000
vt 0.000000 -0.421497 0.000000
vt 0.000000 -0.361283 0.000000
vt 0.000000 -0.301069 0.000000
vt 0.000000 -0.240855 0.000000
vt 0.000000 -0.180642 0.000000
vt 0.000000 -0.120428 0.000000
vt 0.000000 -0.060214 0.000000
vt 0.000000 0.000000 0.000000
vt 0.000000 0.060214 0.000000
vt 0.000000 0.120428 0.000000
vt 0.000000 0.180642 0.000000
vt 0.000000 0.240855 0.000000
vt 0.000000 0.301069 0.000000
vt 0.000000 0.361283 0.000000
vt 0.000000 0.421497 0.000000
vt 0.000000 0.481711 0.000000
vt 0.000000 0.541925 0.000000
vt 0.000000 0.602139 0.000000
vt 0.000000 0.662352 0.000000
vt -0.056569 0.722566 0.000000
vt -0.056569 0.656878 0.000000
vt -0.056569 0.591191 0.000000
vt -0.056569 0.525503 0.000000
vt -0.056569 0.459815 0.000000
vt -0.056569 0.394127 0.000000
vt -0.056569 0.328439 0.000000
vt -0.056569 0.262751 0.000000
vt -0.056569 0.197064 0.000000
vt -0.056569 0.131376 0.000000
vt -0.056569 0.065688 0.000000
vt -0.056569 0.000000 0.000000
vt -0.056569 -0.065688 0.000000
vt -0.056569 -0.131376 0.000000
vt -0.056569 -0.197064 0.000000
vt -0.056569 -0.262751 0.000000
vt -0.056569 -0.328439 0.000000
vt -0.056569 -0.394127 0.000000
vt -0.056569 -0.459815 0.000000
vt -0.056569 -0.525503 0.000000
vt -0.056569 -0.591191 0.000000
vt -0.056569 -0.656878 0.000000
vt 0.000000 0.722566 0.000000
vt -0.056569 -0.722566 0.000000
vt -0.056569 -0.722566 0.000000
vt 0.000000 -0.722566 0.000000
vt 0.000000 -0.662352 0.000000
vt 0.000000 -0.602139 0.000000
vt 0.000000 -0.541925 0.000000
vt 0.000000 -0.481711 0.000000
vt 0.000000 -0.421497 0.000000
vt 0.000000 -0.361283 0.000000
vt 0.000000 -0.301069 0.000000
vt 0.000000 -0.240855 0.000000
vt 0.000000 -0.180642 0.000000
vt 0.000000 -0.120428 0.000000
vt 0.000000 -0.060214 0.000000
vt 0.000000 0.000000 0.000000
vt 0.000000 0.060214 0.000000
vt 0.000000 0.120428 0.000000
vt 0.000000 0.180642 0.000000
vt 0.000000 0.240855 0.000000
vt 0.000000 0.301069 0.000000
vt 0.000000 0.361283 0.000000
vt 0.000000 0.421497 0.000000
vt 0.000000 0.481711 0.000000
vt 0.000000 0.541925 0.000000
vt 0.000000 0.602139 0.000000
vt 0.000000 0.662352 0.000000
vt -0.056569 0.722566 0.000000
vt -0.056569 0.656878 0.000000
vt -0.056569 0.591191 0.000000
vt -0.056569 0.525503 0.000000
vt -0.056569 0.459815 0.000000
vt -0.056569 0.394127 0.000000
vt -0.056569 0.328439 0.000000
vt -0.056569 0.262751 0.000000
vt -0.056569 0.197064 0.000000
vt -0.056569 0.131376 0.000000
vt -0.056569 0.065688 0.000000
vt -0.056569 0.000000 0.000000
vt -0.056569 -0.065688 0.000000
vt -0.056569 -0.131376 0.000000
vt -0.056569 -0.197064 0.000000
vt -0.056569 -0.262751 0.000000
vt -0.056569 -0.328439 0.000000
vt -0.056569 -0.394127 0.000000
vt -0.056569 -0.459815 0.000000
vt -0.056569 -0.525503 0.000000
vt -0.056569 -0.591191 0.000000
vt -0.056569 -0.656878 0.000000
vt 0.000000 0.722566 0.000000
vt -0.056569 -0.722566 0.000000
vt -0.056569 -0.722566 0.000000
vt -0.000000 -0.245699 0.000000
vt -0.000000 -0.196559 0.000000
vt -0.000000 -0.147419 0.000000
vt -0.000000 -0.098279 0.000000
vt -0.000000 -0.049140 0.000000
vt -0.000000 0.000000 0.000000
vt -0.000000 0.049140 0.000000
vt -0.000000 0.098279 0.000000
vt -0.000000 0.147419 0.000000
vt -0.000000 0.196559 0.000000
vt -0.000000 0.245699 0.000000
vt -2.380000 0.245699 0.000000
vt -2.380000 0.196559 0.000000
vt -2.380000 0.147419 0.000000
vt -2.380000 0.098279 0.000000
vt -2.380000 0.049140 0.000000
vt -2.380000 0.000000 0.000000
vt -2.380000 -0.049140 0.000000
vt -2.380000 -0.098279 0.000000
vt -2.380000 -0.147419 0.000000
vt -2.380000 -0.196559 0.000000
vt -2.380000 -0.245699 0.000000
vt -0.000000 -0.245698 0.000000
vt -0.000000 -0.196559 0.000000
vt -0.000000 -0.147419 0.000000
vt -0.000000 -0.098279 0.000000
vt -0.000000 -0.049140 0.000000
vt -0.000000 0.000000 0.000000
vt -0.000000 0.049140 0.000000
vt -0.000000 0.098279 0.000000
vt -0.000000 0.147419 0.000000
vt -0.000000 0.196559 0.000000
vt -0.000000 0.245699 0.000000
vt -2.380000 0.245699 0.000000
vt -2.380000 0.196559 0.000000
vt -2.380000 0.147419 0.000000
vt -2.380000 0.098279 0.000000
vt -2.380000 0.049140 0.000000
vt -2.380000 0.000000 0.000000
vt -2.380000 -0.049140 0.000000
vt -2.380000 -0.098279 0.000000
vt -2.380000 -0.147419 0.000000
vt -2.380000 -0.196559 0.000000
vt -2.380000 -0.245698 0.000000
vt 1.200000 0.000000 0.000000
vt 1.200000 0.415000 0.000000
vt 0.000000 0.415000 0.000000
vt 0.000000 0.000000 0.000000
vt 2.832858 1.416000 0.000000
vt 0.337000 1.416000 0.000000
vt 0.337000 2.380000 0.000000
vt 0.000000 2.380000 0.000000
vt 0.000000 0.000000 0.000000
vt 0.337000 0.000000 0.000000
vt 0.337000 0.415000 0.000000
vt 2.832858 0.415000 0.000000
vt 0.000000 0.000000 0.000000
vt 1.200000 0.000000 0.000000
vt 1.200000 0.964000 0.000000
vt 0.000000 0.964000 0.000000
vt 2.495858 2.380000 0.000000
vt 2.495858 1.416000 0.000000
vt 0.000000 1.416000 0.000000
vt 0.000000 0.415000 0.000000
vt 2.495858 0.415000 0.000000
vt 2.495858 0.000000 0.000000
vt 2.832858 0.000000 0.000000
vt 2.832858 2.380000 0.000000
vt 0.101161 2.380000 0.000000
vt 0.000000 2.380000 0.000000
vt 0.000000 0.000000 0.000000
vt 0.101161 0.000000 0.000000
vt 0.081176 2.380000 0.000000
vt 0.000000 2.380000 0.000000
vt 0.000000 0.000000 0.000000
vt 0.081176 0.000000 0.000000
vt 0.031858 2.380000 0.000000
vt 0.000000 2.380000 0.000000
vt 0.000000 0.000000 0.000000
vt 0.031858 0.000000 0.000000
vt 0.020000 2.380000 0.000000
vt 0.000000 2.380000 0.000000
vt 0.000000 0.000000 0.000000
vt 0.020000 0.000000 0.000000
vt 1.171716 2.380000 0.000000
vt 0.000000 2.380000 0.000000
vt 0.000000 0.000000 0.000000
vt 1.171716 0.000000 0.000000
vt 0.020000 2.380000 0.000000
vt 0.000000 2.380000 0.000000
vt 0.000000 0.000000 0.000000
vt 0.020000 0.000000 0.000000
vt 0.031858 2.380000 0.000000
vt 0.000000 2.380000 0.000000
vt 0.000000 0.000000 0.000000
vt 0.031858 0.000000 0.000000
vt 0.081176 2.380000 0.000000
vt 0.000000 2.380000 0.000000
vt 0.000000 0.000000 0.000000
vt 0.081176 0.000000 0.000000
vt 0.101161 2.380000 0.000000
vt 0.000000 2.380000 0.000000
vt 0.000000 0.000000 0.000000
vt 0.101161 0.000000 0.000000
vt 0.000000 0.226153 0.000000
vt 0.337000 0.226153 0.000000
vt 0.410085 0.156209 0.000000
vt 0.416431 0.107702 0.000000
vt 0.438048 0.063817 0.000000
vt 0.472636 0.029221 0.000000
vt 0.516516 0.007594 0.000000
vt 0.565021 0.001237 0.000000
vt 0.612993 0.010826 0.000000
vt 0.655327 0.035340 0.000000
vt 0.687523 0.072173 0.000000
vt 0.706155 0.117406 0.000000
vt 0.709240 0.166229 0.000000
vt 0.764000 0.226153 0.000000
vt 0.795858 0.226153 0.000000
vt 0.810000 0.240295 0.000000
vt 0.810000 1.412011 0.000000
vt 0.795858 1.426153 0.000000
vt 0.764000 1.426153 0.000000
vt 0.709240 1.486078 0.000000
vt 0.706155 1.534900 0.000000
vt 0.687523 1.580134 0.000000
vt 0.655327 1.616966 0.000000
vt 0.612993 1.641481 0.000000
vt 0.565021 1.651069 0.000000
vt 0.516516 1.644712 0.000000
vt 0.472636 1.623085 0.000000
vt 0.438048 1.588489 0.000000
vt 0.416431 1.544604 0.000000
vt 0.410085 1.496097 0.000000
vt 0.337000 1.426153 0.000000
vt 0.000000 1.426153 0.000000
vt 0.226232 0.337000 0.000000
vt 0.226232 0.000000 0.000000
vt 1.426232 0.000000 0.000000
vt 1.426232 0.337000 0.000000
vt 1.496176 0.410085 0.000000
vt 1.544683 0.416431 0.000000
vt 1.588568 0.438048 0.000000
vt 1.623164 0.472636 0.000000
vt 1.644791 0.516516 0.000000
vt 1.651148 0.565021 0.000000
vt 1.641559 0.612993 0.000000
vt 1.617045 0.655327 0.000000
vt 1.580212 0.687523 0.000000
vt 1.534979 0.706155 0.000000
vt 1.486156 0.709240 0.000000
vt 1.426232 0.764000 0.000000
vt 1.426232 0.795858 0.000000
vt 1.412090 0.810000 0.000000
vt 0.240374 0.810000 0.000000
vt 0.226232 0.795858 0.000000
vt 0.226232 0.764000 0.000000
vt 0.166307 0.709240 0.000000
vt 0.117485 0.706155 0.000000
vt 0.072251 0.687523 0.000000
vt 0.035419 0.655327 0.000000
vt 0.010904 0.612993 0.000000
vt 0.001316 0.565021 0.000000
vt 0.007673 0.516516 0.000000
vt 0.029300 0.472636 0.000000
vt 0.063895 0.438048 0.000000
vt 0.107781 0.416431 0.000000
vt 0.156288 0.410085 0.000000
vt 0.000000 0.020000 0.000000
vt 0.000000 0.000000 0.000000
vt 1.001000 0.000000 0.000000
vt 1.001000 0.020000 0.000000
vt 0.000000 1.171716 0.000000
vt 0.000000 0.000000 0.000000
vt 1.001000 0.000000 0.000000
vt 1.001000 1.171716 0.000000
vt 0.000000 0.020000 0.000000
vt 0.000000 0.000000 0.000000
vt 1.001000 0.000000 0.000000
vt 1.001000 0.020000 0.000000
vt 1.200000 0.014142 0.000000
vt 1.200000 2.510000 0.000000
vt 0.000000 2.510000 0.000000
vt 0.000000 0.014142 0.000000
vt 0.014142 0.000000 0.000000
vt 1.185858 0.000000 0.000000
vt 0.850000 0.600000 0.000000
vt 0.841482 0.535295 0.000000
vt 0.816506 0.475000 0.000000
vt 0.776777 0.423223 0.000000
vt 0.725000 0.383494 0.000000
vt 0.664705 0.358519 0.000000
vt 0.600000 0.350000 0.000000
vt 0.535295 0.358519 0.000000
vt 0.475000 0.383494 0.000000
vt 0.423223 0.423223 0.000000
vt 0.383494 0.475000 0.000000
vt 0.358519 0.535295 0.000000
vt 0.350000 0.600000 0.000000
vt 0.358519 0.664705 0.000000
vt 0.383494 0.725000 0.000000
vt 0.423223 0.776777 0.000000
vt 0.475000 0.816506 0.000000
vt 0.535295 0.841482 0.000000
vt 0.600000 0.850000 0.000000
vt 0.664705 0.841482 0.000000
vt 0.725000 0.816506 0.000000
vt 0.776777 0.776777 0.000000
vt 0.816506 0.725000 0.000000
vt 0.841482 0.664705 0.000000
vt 0.850000 1.800000 0.000000
vt 0.841482 1.735295 0.000000
vt 0.816506 1.675000 0.000000
vt 0.776777 1.623223 0.000000
vt 0.725000 1.583494 0.000000
vt 0.664705 1.558519 0.000000
vt 0.600000 1.550000 0.000000
vt 0.535295 1.558519 0.000000
vt 0.475000 1.583494 0.000000
vt 0.423223 1.623223 0.000000
vt 0.383494 1.675000 0.000000
vt 0.358519 1.735295 0.000000
vt 0.350000 1.800000 0.000000
vt 0.358519 1.864705 0.000000
vt 0.383494 1.925000 0.000000
vt 0.423223 1.976777 0.000000
vt 0.475000 2.016506 0.000000
vt 0.535295 2.041481 0.000000
vt 0.600000 2.050000 0.000000
vt 0.664705 2.041481 0.000000
vt 0.725000 2.016506 0.000000
vt 0.776777 1.976777 0.000000
vt 0.816506 1.925000 0.000000
vt 0.841482 1.864705 0.000000
vt 2.510000 0.000000 0.000000
vt 2.510000 1.200000 0.000000
vt 0.014142 1.200000 0.000000
vt 0.000000 1.185858 0.000000
vt 0.000000 0.014142 0.000000
vt 0.014142 0.000000 0.000000
vt 0.600000 0.350000 0.000000
vt 0.535295 0.358519 0.000000
vt 0.475000 0.383494 0.000000
vt 0.423223 0.423223 0.000000
vt 0.383494 0.475000 0.000000
vt 0.358519 0.535295 0.000000
vt 0.350000 0.600000 0.000000
vt 0.358519 0.664705 0.000000
vt 0.383494 0.725000 0.000000
vt 0.423223 0.776777 0.000000
vt 0.475000 0.816506 0.000000
vt 0.535295 0.841482 0.000000
vt 0.600000 0.850000 0.000000
vt 0.664705 0.841482 0.000000
vt 0.725000 0.816506 0.000000
vt 0.776777 0.776777 0.000000
vt 0.816506 0.725000 0.000000
vt 0.841482 0.664705 0.000000
vt 0.850000 0.600000 0.000000
vt 0.841482 0.535295 0.000000
vt 0.816506 0.475000 0.000000
vt 0.776777 0.423223 0.000000
vt 0.725000 0.383494 0.000000
vt 0.664705 0.358519 0.000000
vt 1.800000 0.350000 0.000000
vt 1.735295 0.358519 0.000000
vt 1.675000 0.383494 0.000000
vt 1.623223 0.423223 0.000000
vt 1.583494 0.475000 0.000000
vt 1.558519 0.535295 0.000000
vt 1.550000 0.600000 0.000000
vt 1.558519 0.664705 0.000000
vt 1.583494 0.725000 0.000000
vt 1.623223 0.776777 0.000000
vt 1.675000 0.816506 0.000000
vt 1.735295 0.841482 0.000000
vt 1.800000 0.850000 0.000000
vt 1.864705 0.841482 0.000000
vt 1.925000 0.816506 0.000000
vt 1.976777 0.776777 0.000000
vt 2.016506 0.725000 0.000000
vt 2.041481 0.664705 0.000000
vt 2.050000 0.600000 0.000000
vt 2.041481 0.535295 0.000000
vt 2.016506 0.475000 0.000000
vt 1.976777 0.423223 0.000000
vt 1.925000 0.383494 0.000000
vt 1.864705 0.358519 0.000000
vn 0.000000 -0.000000 0.100000
vn 0.000000 -0.028173 0.095949
vn 0.000000 -0.054064 0.084125
vn 0.000000 -0.075575 0.065486
vn 0.000000 -0.090963 0.041542
vn 0.000000 -0.098982 0.014231
vn 0.000000 -0.098982 -0.014231
vn 0.000000 -0.090963 -0.041541
vn 0.000000 -0.075575 -0.065486
vn 0.000000 -0.054064 -0.084125
vn 0.000000 -0.028173 -0.095949
vn -0.000000 0.000000 -0.100000
vn -0.000000 0.028173 -0.095949
vn -0.000000 0.054064 -0.084125
vn -0.000000 0.075575 -0.065486
vn -0.000000 0.090963 -0.041542
vn -0.000000 0.098982 -0.014231
vn -0.000000 0.098982 0.014231
vn -0.000000 0.090963 0.041541
vn -0.000000 0.075575 0.065486
vn -0.000000 0.054064 0.084125
vn -0.000000 0.028173 0.095949
vn -0.000000 0.000000 -0.100000
vn 0.000000 -0.028173 -0.095949
vn 0.000000 -0.054064 -0.084125
vn 0.000000 -0.075575 -0.065486
vn 0.000000 -0.090963 -0.041542
vn 0.000000 -0.098982 -0.014231
vn 0.000000 -0.098982 0.014231
vn 0.000000 -0.090963 0.041542
vn 0.000000 -0.075575 0.065486
vn 0.000000 -0.054064 0.084125
vn 0.000000 -0.028173 0.095949
vn 0.000000 -0.000000 0.100000
vn -0.000000 0.028173 0.095949
vn -0.000000 0.054064 0.084125
vn -0.000000 0.075575 0.065486
vn -0.000000 0.090963 0.041542
vn -0.000000 0.098982 0.014231
vn -0.000000 0.098982 -0.014231
vn -0.000000 0.090963 -0.041542
vn -0.000000 0.075575 -0.065486
vn -0.000000 0.054064 -0.084125
vn -0.000000 0.028173 -0.095949
vn -0.000000 0.000000 -0.100000
vn -0.000000 0.000000 -0.100000
vn -0.000000 0.000000 -0.100000
vn -0.000000 0.000000 -0.100000
vn 0.000000 -0.000000 0.100000
vn 0.000000 -0.028173 0.095949
vn 0.000000 -0.054064 0.084125
vn 0.000000 -0.075575 0.065486
vn 0.000000 -0.090963 0.041542
vn 0.000000 -0.098982 0.014231
vn 0.000000 -0.098982 -0.014231
vn 0.000000 -0.090963 -0.041541
vn 0.000000 -0.075575 -0.065486
vn 0.000000 -0.054064 -0.084125
vn 0.000000 -0.028173 -0.095949
vn -0.000000 0.000000 -0.100000
vn -0.000000 0.028173 -0.095949
vn -0.000000 0.054064 -0.084125
vn -0.000000 0.075575 -0.065486
vn -0.000000 0.090963 -0.041542
vn -0.000000 0.098982 -0.014231
vn -0.000000 0.098982 0.014231
vn -0.000000 0.090963 0.041541
vn -0.000000 0.075575 0.065486
vn -0.000000 0.054064 0.084125
vn -0.000000 0.028173 0.095949
vn -0.000000 0.000000 -0.100000
vn 0.000000 -0.028173 -0.095949
vn 0.000000 -0.054064 -0.084125
vn 0.000000 -0.075575 -0.065486
vn 0.000000 -0.090963 -0.041542
vn 0.000000 -0.098982 -0.014231
vn 0.000000 -0.098982 0.014231
vn 0.000000 -0.090963 0.041542
vn 0.000000 -0.075575 0.065486
vn 0.000000 -0.054064 0.084125
vn 0.000000 -0.028173 0.095949
vn 0.000000 -0.000000 0.100000
vn -0.000000 0.028173 0.095949
vn -0.000000 0.054064 0.084125
vn -0.000000 0.075575 0.065486
vn -0.000000 0.090963 0.041542
vn -0.000000 0.098982 0.014231
vn -0.000000 0.098982 -0.014231
vn -0.000000 0.090963 -0.041542
vn -0.000000 0.075575 -0.065486
vn -0.000000 0.054064 -0.084125
vn -0.000000 0.028173 -0.095949
vn -0.000000 0.000000 -0.100000
vn -0.000000 0.000000 -0.100000
vn -0.000000 0.000000 -0.100000
vn -0.000000 0.000000 -0.100000
vn 0.070711 0.000000 0.070711
vn 0.070711 -0.018301 0.068301
vn 0.070711 -0.035355 0.061237
vn 0.070711 -0.050000 0.050000
vn 0.070711 -0.061237 0.035355
vn 0.070711 -0.068301 0.018301
vn 0.070711 -0.070711 -0.000000
vn 0.070711 -0.068301 -0.018301
vn 0.070711 -0.061237 -0.035355
vn 0.070711 -0.050000 -0.050000
vn 0.070711 -0.035355 -0.061237
vn 0.070711 -0.018301 -0.068301
vn 0.070711 0.000000 -0.070711
vn 0.070711 0.018301 -0.068301
vn 0.070711 0.035355 -0.061237
vn 0.070711 0.050000 -0.050000
vn 0.070711 0.061237 -0.035355
vn 0.070711 0.068301 -0.018301
vn 0.070711 0.070711 0.000000
vn 0.070711 0.068301 0.018301
vn 0.070711 0.061237 0.035355
vn 0.070711 0.050000 0.050000
vn 0.070711 0.035355 0.061237
vn 0.070711 0.018301 0.068301
vn 0.070711 0.000000 0.070711
vn 0.070711 0.019922 0.067846
vn 0.070711 0.038229 0.059486
vn 0.070711 0.053440 0.046306
vn 0.070711 0.064321 0.029374
vn 0.070711 0.069991 0.010063
vn 0.070711 0.069991 -0.010063
vn 0.070711 0.064321 -0.029374
vn 0.070711 0.053440 -0.046306
vn 0.070711 0.038229 -0.059486
vn 0.070711 0.019921 -0.067846
vn 0.070711 0.000000 -0.070711
vn 0.070711 -0.019922 -0.067846
vn 0.070711 -0.038229 -0.059486
vn 0.070711 -0.053440 -0.046306
vn 0.070711 -0.064321 -0.029374
vn 0.070711 -0.069991 -0.010063
vn 0.070711 -0.069991 0.010063
vn 0.070711 -0.064321 0.029374
vn 0.070711 -0.053440 0.046306
vn 0.070711 -0.038229 0.059486
vn 0.070711 -0.019921 0.067846
vn 0.070711 0.000000 0.070711
vn 0.070711 0.000000 0.070711
vn 0.070711 0.000000 0.070711
vn -0.070711 -0.000000 -0.070711
vn -0.070711 -0.018301 -0.068301
vn -0.070711 -0.035355 -0.061237
vn -0.070711 -0.050000 -0.050000
vn -0.070711 -0.061237 -0.035355
vn -0.070711 -0.068301 -0.018301
vn -0.070711 -0.070711 -0.000000
vn -0.070711 -0.068301 0.018301
vn -0.070711 -0.061237 0.035355
vn -0.070711 -0.050000 0.050000
vn -0.070711 -0.035355 0.061237
vn -0.070711 -0.018301 0.068301
vn -0.070711 -0.000000 0.070711
vn -0.070711 0.018301 0.068301
vn -0.070711 0.035355 0.061237
vn -0.070711 0.050000 0.050000
vn -0.070711 0.061237 0.035355
vn -0.070711 0.068301 0.018301
vn -0.070711 0.070711 0.000000
vn -0.070711 0.068301 -0.018301
vn -0.070711 0.061237 -0.035355
vn -0.070711 0.050000 -0.050000
vn -0.070711 0.035355 -0.061237
vn -0.070711 0.018301 -0.068301
vn -0.070711 -0.000000 -0.070711
vn -0.070711 0.019921 -0.067846
vn -0.070711 0.038229 -0.059486
vn -0.070711 0.053440 -0.046306
vn -0.070711 0.064321 -0.029374
vn -0.070711 0.069991 -0.010063
vn -0.070711 0.069991 0.010063
vn -0.070711 0.064321 0.029374
vn -0.070711 0.053440 0.046306
vn -0.070711 0.038229 0.059486
vn -0.070711 0.019921 0.067846
vn -0.070711 -0.000000 0.070711
vn -0.070711 -0.019921 0.067846
vn -0.070711 -0.038229 0.059486
vn -0.070711 -0.053440 0.046306
vn -0.070711 -0.064321 0.029374
vn -0.070711 -0.069991 0.010063
vn -0.070711 -0.069991 -0.010063
vn -0.070711 -0.064321 -0.029374
vn -0.070711 -0.053440 -0.046306
vn -0.070711 -0.038229 -0.059486
vn -0.070711 -0.019921 -0.067846
vn -0.070711 -0.000000 -0.070711
vn -0.070711 -0.000000 -0.070711
vn -0.070711 -0.000000 -0.070711
vn 0.070711 0.000000 0.070711
vn 0.070711 -0.018301 0.068301
vn 0.070711 -0.035355 0.061237
vn 0.070711 -0.050000 0.050000
vn 0.070711 -0.061237 0.035355
vn 0.070711 -0.068301 0.018301
vn 0.070711 -0.070711 -0.000000
vn 0.070711 -0.068301 -0.018301
vn 0.070711 -0.061237 -0.035355
vn 0.070711 -0.050000 -0.050000
vn 0.070711 -0.035355 -0.061237
vn 0.070711 -0.018301 -0.068301
vn 0.070711 0.000000 -0.070711
vn 0.070711 0.018301 -0.068301
vn 0.070711 0.035355 -0.061237
vn 0.070711 0.050000 -0.050000
vn 0.070711 0.061237 -0.035355
vn 0.070711 0.068301 -0.018301
vn 0.070711 0.070711 0.000000
vn 0.070711 0.068301 0.018301
vn 0.070711 0.061237 0.035355
vn 0.070711 0.050000 0.050000
vn 0.070711 0.035355 0.061237
vn 0.070711 0.018301 0.068301
vn 0.070711 0.000000 0.070711
vn 0.070711 0.019922 0.067846
vn 0.070711 0.038229 0.059486
vn 0.070711 0.053440 0.046306
vn 0.070711 0.064321 0.029374
vn 0.070711 0.069991 0.010063
vn 0.070711 0.069991 -0.010063
vn 0.070711 0.064321 -0.029374
vn 0.070711 0.053440 -0.046306
vn 0.070711 0.038229 -0.059486
vn 0.070711 0.019921 -0.067846
vn 0.070711 0.000000 -0.070711
vn 0.070711 -0.019922 -0.067846
vn 0.070711 -0.038229 -0.059486
vn 0.070711 -0.053440 -0.046306
vn 0.070711 -0.064321 -0.029374
vn 0.070711 -0.069991 -0.010063
vn 0.070711 -0.069991 0.010063
vn 0.070711 -0.064321 0.029374
vn 0.070711 -0.053440 0.046306
vn 0.070711 -0.038229 0.059486
vn 0.070711 -0.019921 0.067846
vn 0.070711 0.000000 0.070711
vn 0.070711 0.000000 0.070711
vn 0.070711 0.000000 0.070711
vn -0.070711 -0.000000 -0.070711
vn -0.070711 -0.018301 -0.068301
vn -0.070711 -0.035355 -0.061237
vn -0.070711 -0.050000 -0.050000
vn -0.070711 -0.061237 -0.035355
vn -0.070711 -0.068301 -0.018301
vn -0.070711 -0.070711 -0.000000
vn -0.070711 -0.068301 0.018301
vn -0.070711 -0.061237 0.035355
vn -0.070711 -0.050000 0.050000
vn -0.070711 -0.035355 0.061237
vn -0.070711 -0.018301 0.068301
vn -0.070711 -0.000000 0.070711
vn -0.070711 0.018301 0.068301
vn -0.070711 0.035355 0.061237
vn -0.070711 0.050000 0.050000
vn -0.070711 0.061237 0.035355
vn -0.070711 0.068301 0.018301
vn -0.070711 0.070711 0.000000
vn -0.070711 0.068301 -0.018301
vn -0.070711 0.061237 -0.035355
vn -0.070711 0.050000 -0.050000
vn -0.070711 0.035355 -0.061237
vn -0.070711 0.018301 -0.068301
vn -0.070711 -0.000000 -0.070711
vn -0.070711 0.019921 -0.067846
vn -0.070711 0.038229 -0.059486
vn -0.070711 0.053440 -0.046306
vn -0.070711 0.064321 -0.029374
vn -0.070711 0.069991 -0.010063
vn -0.070711 0.069991 0.010063
vn -0.070711 0.064321 0.029374
vn -0.070711 0.053440 0.046306
vn -0.070711 0.038229 0.059486
vn -0.070711 0.019921 0.067846
vn -0.070711 -0.000000 0.070711
vn -0.070711 -0.019921 0.067846
vn -0.070711 -0.038229 0.059486
vn -0.070711 -0.053440 0.046306
vn -0.070711 -0.064321 0.029374
vn -0.070711 -0.069991 0.010063
vn -0.070711 -0.069991 -0.010063
vn -0.070711 -0.064321 -0.029374
vn -0.070711 -0.053440 -0.046306
vn -0.070711 -0.038229 -0.059486
vn -0.070711 -0.019921 -0.067846
vn -0.070711 -0.000000 -0.070711
vn -0.070711 -0.000000 -0.070711
vn -0.070711 -0.000000 -0.070711
vn -0.000000 0.099494 -0.010050
vn -0.000000 0.097436 0.022498
vn -0.000000 0.085015 0.052654
vn -0.000000 0.063552 0.077209
vn -0.000000 0.035328 0.093552
vn -0.000000 0.003347 0.099944
vn 0.000000 -0.028989 0.095706
vn 0.000000 -0.058243 0.081288
vn 0.000000 -0.081302 0.058224
vn 0.000000 -0.095713 0.028967
vn 0.000000 -0.099943 -0.003371
vn 0.000000 -0.099943 -0.003371
vn 0.000000 -0.095713 0.028967
vn 0.000000 -0.081302 0.058224
vn 0.000000 -0.058243 0.081288
vn 0.000000 -0.028989 0.095706
vn -0.000000 0.003347 0.099944
vn -0.000000 0.035328 0.093552
vn -0.000000 0.063552 0.077209
vn -0.000000 0.085015 0.052654
vn -0.000000 0.097436 0.022498
vn -0.000000 0.099494 -0.010050
vn 0.000000 -0.099943 0.003371
vn 0.000000 -0.095713 -0.028967
vn 0.000000 -0.081302 -0.058224
vn 0.000000 -0.058243 -0.081288
vn 0.000000 -0.028989 -0.095706
vn -0.000000 0.003347 -0.099944
vn -0.000000 0.035328 -0.093552
vn -0.000000 0.063552 -0.077209
vn -0.000000 0.085015 -0.052654
vn -0.000000 0.097436 -0.022498
vn -0.000000 0.099494 0.010050
vn -0.000000 0.099494 0.010050
vn -0.000000 0.097436 -0.022498
vn -0.000000 0.085015 -0.052654
vn -0.000000 0.063552 -0.077209
vn -0.000000 0.035328 -0.093552
vn -0.000000 0.003347 -0.099944
vn 0.000000 -0.028989 -0.095706
vn 0.000000 -0.058243 -0.081288
vn 0.000000 -0.081302 -0.058224
vn 0.000000 -0.095713 -0.028967
vn 0.000000 -0.099943 0.003371
vn 0.000000 -0.100000 -0.000000
vn 0.000000 -0.100000 -0.000000
vn 0.000000 -0.100000 -0.000000
vn 0.000000 -0.100000 -0.000000
vn 0.000000 -0.000000 0.100000
vn 0.000000 -0.000000 0.100000
vn 0.000000 -0.000000 0.100000
vn 0.000000 -0.000000 0.100000
vn 0.000000 -0.000000 0.100000
vn 0.000000 -0.000000 0.100000
vn 0.000000 -0.000000 0.100000
vn 0.000000 -0.000000 0.100000
vn 0.000000 -0.100000 -0.000000
vn 0.000000 -0.100000 -0.000000
vn 0.000000 -0.100000 -0.000000
vn 0.000000 -0.100000 -0.000000
vn -0.000000 0.000000 -0.100000
vn -0.000000 0.000000 -0.100000
vn -0.000000 0.000000 -0.100000
vn -0.000000 0.000000 -0.100000
vn -0.000000 0.000000 -0.100000
vn -0.000000 0.000000 -0.100000
vn -0.000000 0.000000 -0.100000
vn -0.000000 0.000000 -0.100000
vn 0.000000 -0.069141 -0.072246
vn 0.000000 -0.069141 -0.072246
vn 0.000000 -0.069141 -0.072246
vn 0.000000 -0.069141 -0.072246
vn -0.000000 0.073820 -0.067458
vn -0.000000 0.073820 -0.067458
vn -0.000000 0.073820 -0.067458
vn -0.000000 0.073820 -0.067458
vn -0.000000 0.000000 -0.100000
vn -0.000000 0.000000 -0.100000
vn -0.000000 0.000000 -0.100000
vn -0.000000 0.000000 -0.100000
vn -0.000000 0.070711 -0.070711
vn -0.000000 0.070711 -0.070711
vn -0.000000 0.070711 -0.070711
vn -0.000000 0.070711 -0.070711
vn -0.000000 0.100000 0.000000
vn -0.000000 0.100000 0.000000
vn -0.000000 0.100000 0.000000
vn -0.000000 0.100000 0.000000
vn -0.000000 0.070711 0.070711
vn -0.000000 0.070711 0.070711
vn -0.000000 0.070711 0.070711
vn -0.000000 0.070711 0.070711
vn 0.000000 -0.000000 0.100000
vn 0.000000 -0.000000 0.100000
vn 0.000000 -0.000000 0.100000
vn 0.000000 -0.000000 0.100000
vn -0.000000 0.073820 0.067458
vn -0.000000 0.073820 0.067458
vn -0.000000 0.073820 0.067458
vn -0.000000 0.073820 0.067458
vn 0.000000 -0.069141 0.072246
vn 0.000000 -0.069141 0.072246
vn 0.000000 -0.069141 0.072246
vn 0.000000 -0.069141 0.072246
vn -0.100000 -0.000000 -0.000000
vn -0.100000 -0.000000 -0.000000
vn -0.100000 -0.000000 -0.000000
vn -0.100000 -0.000000 -0.000000
vn -0.100000 -0.000000 -0.000000
vn -0.100000 -0.000000 -0.000000
vn -0.100000 -0.000000 -0.000000
vn -0.100000 -0.000000 -0.000000
vn -0.100000 -0.000000 -0.000000
vn -0.100000 -0.000000 -0.000000
vn -0.100000 -0.000000 -0.000000
vn -0.100000 -0.000000 -0.000000
vn -0.100000 -0.000000 -0.000000
vn -0.100000 -0.000000 -0.000000
vn -0.100000 -0.000000 -0.000000
vn -0.100000 -0.000000 -0.000000
vn -0.100000 -0.000000 -0.000000
vn -0.100000 -0.000000 -0.000000
vn -0.100000 -0.000000 -0.000000
vn -0.100000 -0.000000 -0.000000
vn -0.100000 -0.000000 -0.000000
vn -0.100000 -0.000000 -0.000000
vn -0.100000 -0.000000 -0.000000
vn -0.100000 -0.000000 -0.000000
vn -0.100000 -0.000000 -0.000000
vn -0.100000 -0.000000 -0.000000
vn -0.100000 -0.000000 -0.000000
vn -0.100000 -0.000000 -0.000000
vn -0.100000 -0.000000 -0.000000
vn -0.100000 -0.000000 -0.000000
vn -0.100000 -0.000000 -0.000000
vn -0.100000 -0.000000 -0.000000
vn 0.100000 0.000000 0.000000
vn 0.100000 0.000000 0.000000
vn 0.100000 0.000000 0.000000
vn 0.100000 0.000000 0.000000
vn 0.100000 0.000000 0.000000
vn 0.100000 0.000000 0.000000
vn 0.100000 0.000000 0.000000
vn 0.100000 0.000000 0.000000
vn 0.100000 0.000000 0.000000
vn 0.100000 0.000000 0.000000
vn 0.100000 0.000000 0.000000
vn 0.100000 0.000000 0.000000
vn 0.100000 0.000000 0.000000
vn 0.100000 0.000000 0.000000
vn 0.100000 0.000000 0.000000
vn 0.100000 0.000000 0.000000
vn 0.100000 0.000000 0.000000
vn 0.100000 0.000000 0.000000
vn 0.100000 0.000000 0.000000
vn 0.100000 0.000000 0.000000
vn 0.100000 0.000000 0.000000
vn 0.100000 0.000000 0.000000
vn 0.100000 0.000000 0.000000
vn 0.100000 0.000000 0.000000
vn 0.100000 0.000000 0.000000
vn 0.100000 0.000000 0.000000
vn 0.100000 0.000000 0.000000
vn 0.100000 0.000000 0.000000
vn 0.100000 0.000000 0.000000
vn 0.100000 0.000000 0.000000
vn 0.100000 0.000000 0.000000
vn 0.100000 0.000000 0.000000
vn 0.000000 -0.070711 0.070711
vn 0.000000 -0.070711 0.070711
vn 0.000000 -0.070711 0.070711
vn 0.000000 -0.070711 0.070711
vn 0.000000 -0.100000 -0.000000
vn 0.000000 -0.100000 -0.000000
vn 0.000000 -0.100000 -0.000000
vn 0.000000 -0.100000 -0.000000
vn 0.000000 -0.070711 -0.070711
vn 0.000000 -0.070711 -0.070711
vn 0.000000 -0.070711 -0.070711
vn 0.000000 -0.070711 -0.070711
vn 0.100000 0.000000 0.000000
vn 0.100000 0.000000 0.000000
vn 0.100000 0.000000 0.000000
vn 0.100000 0.000000 0.000000
vn 0.100000 0.000000 0.000000
vn 0.100000 0.000000 0.000000
vn 0.100000 0.000000 0.000000
vn 0.100000 0.000000 0.000000
vn 0.100000 0.000000 0.000000
vn 0.100000 0.000000 0.000000
vn 0.100000 0.000000 0.000000
vn 0.100000 0.000000 0.000000
vn 0.100000 0.000000 0.000000
vn 0.100000 0.000000 0.000000
vn 0.100000 0.000000 0.000000
vn 0.100000 0.000000 0.000000
vn 0.100000 0.000000 0.000000
vn 0.100000 0.000000 0.000000
vn 0.100000 0.000000 0.000000
vn 0.100000 0.000000 0.000000
vn 0.100000 0.000000 0.000000
vn 0.100000 0.000000 0.000000
vn 0.100000 0.000000 0.000000
vn 0.100000 0.000000 0.000000
vn 0.100000 0.000000 0.000000
vn 0.100000 0.000000 0.000000
vn 0.100000 0.000000 0.000000
vn 0.100000 0.000000 0.000000
vn 0.100000 0.000000 0.000000
vn 0.100000 0.000000 0.000000
vn 0.100000 0.000000 0.000000
vn 0.100000 0.000000 0.000000
vn 0.100000 0.000000 0.000000
vn 0.100000 0.000000 0.000000
vn 0.100000 0.000000 0.000000
vn 0.100000 0.000000 0.000000
vn 0.100000 0.000000 0.000000
vn 0.100000 0.000000 0.000000
vn 0.100000 0.000000 0.000000
vn 0.100000 0.000000 0.000000
vn 0.100000 0.000000 0.000000
vn 0.100000 0.000000 0.000000
vn 0.100000 0.000000 0.000000
vn 0.100000 0.000000 0.000000
vn 0.100000 0.000000 0.000000
vn 0.100000 0.000000 0.000000
vn 0.100000 0.000000 0.000000
vn 0.100000 0.000000 0.000000
vn 0.100000 0.000000 0.000000
vn 0.100000 0.000000 0.000000
vn 0.100000 0.000000 0.000000
vn 0.100000 0.000000 0.000000
vn 0.100000 0.000000 0.000000
vn 0.100000 0.000000 0.000000
vn -0.100000 -0.000000 -0.000000
vn -0.100000 -0.000000 -0.000000
vn -0.100000 -0.000000 -0.000000
vn -0.100000 -0.000000 -0.000000
vn -0.100000 -0.000000 -0.000000
vn -0.100000 -0.000000 -0.000000
vn -0.100000 -0.000000 -0.000000
vn -0.100000 -0.000000 -0.000000
vn -0.100000 -0.000000 -0.000000
vn -0.100000 -0.000000 -0.000000
vn -0.100000 -0.000000 -0.000000
vn -0.100000 -0.000000 -0.000000
vn -0.100000 -0.000000 -0.000000
vn -0.100000 -0.000000 -0.000000
vn -0.100000 -0.000000 -0.000000
vn -0.100000 -0.000000 -0.000000
vn -0.100000 -0.000000 -0.000000
vn -0.100000 -0.000000 -0.000000
vn -0.100000 -0.000000 -0.000000
vn -0.100000 -0.000000 -0.000000
vn -0.100000 -0.000000 -0.000000
vn -0.100000 -0.000000 -0.000000
vn -0.100000 -0.000000 -0.000000
vn -0.100000 -0.000000 -0.000000
vn -0.100000 -0.000000 -0.000000
vn -0.100000 -0.000000 -0.000000
vn -0.100000 -0.000000 -0.000000
vn -0.100000 -0.000000 -0.000000
vn -0.100000 -0.000000 -0.000000
vn -0.100000 -0.000000 -0.000000
vn -0.100000 -0.000000 -0.000000
vn -0.100000 -0.000000 -0.000000
vn -0.100000 -0.000000 -0.000000
vn -0.100000 -0.000000 -0.000000
vn -0.100000 -0.000000 -0.000000
vn -0.100000 -0.000000 -0.000000
vn -0.100000 -0.000000 -0.000000
vn -0.100000 -0.000000 -0.000000
vn -0.100000 -0.000000 -0.000000
vn -0.100000 -0.000000 -0.000000
vn -0.100000 -0.000000 -0.000000
vn -0.100000 -0.000000 -0.000000
vn -0.100000 -0.000000 -0.000000
vn -0.100000 -0.000000 -0.000000
vn -0.100000 -0.000000 -0.000000
vn -0.100000 -0.000000 -0.000000
vn -0.100000 -0.000000 -0.000000
vn -0.100000 -0.000000 -0.000000
vn -0.100000 -0.000000 -0.000000
vn -0.100000 -0.000000 -0.000000
vn -0.100000 -0.000000 -0.000000
vn -0.100000 -0.000000 -0.000000
vn -0.100000 -0.000000 -0.000000
vn -0.100000 -0.000000 -0.000000
usemtl 191,191,191
f 62/2/2 54/34/34 56/1/1
f 56/1/1 54/34/34 48/35/35
f 56/1/1 48/35/35 50/22/22
f 50/22/22 48/35/35 40/36/36
f 50/22/22 40/36/36 42/21/21
f 42/21/21 40/36/36 32/37/37
f 42/21/21 32/37/37 34/20/20
f 34/20/20 32/37/37 24/38/38
f 34/20/20 24/38/38 26/19/19
f 26/19/19 24/38/38 20/39/39
f 26/19/19 20/39/39 22/18/18
f 22/18/18 20/39/39 19/40/40
f 22/18/18 19/40/40 21/17/17
f 21/17/17 19/40/40 23/41/41
f 21/17/17 23/41/41 25/16/16
f 25/16/16 23/41/41 31/42/42
f 25/16/16 31/42/42 33/15/15
f 33/15/15 31/42/42 39/43/43
f 33/15/15 39/43/43 41/14/14
f 41/14/14 39/43/43 47/44/44
f 41/14/14 47/44/44 49/13/13
f 49/13/13 47/44/44 53/45/45
f 49/13/13 53/46/46 55/12/12
f 55/47/47 53/23/23 59/24/24
f 55/48/48 59/24/24 61/11/11
f 61/11/11 59/24/24 67/25/25
f 61/11/11 67/25/25 69/10/10
f 69/10/10 67/25/25 75/26/26
f 69/10/10 75/26/26 77/9/9
f 77/9/9 75/26/26 83/27/27
f 77/9/9 83/27/27 85/8/8
f 85/8/8 83/27/27 87/28/28
f 85/8/8 87/28/28 89/7/7
f 89/7/7 87/28/28 88/29/29
f 89/7/7 88/29/29 90/6/6
f 90/6/6 88/29/29 84/30/30
f 90/6/6 84/30/30 86/5/5
f 86/5/5 84/30/30 76/31/31
f 86/5/5 76/31/31 78/4/4
f 78/4/4 76/31/31 68/32/32
f 78/4/4 68/32/32 70/3/3
f 70/3/3 68/32/32 60/33/33
f 70/3/3 60/33/33 62/2/2
f 62/2/2 60/33/33 54/34/34
f 154/50/50 146/82/82 148/49/49
f 148/49/49 146/82/82 140/83/83
f 148/49/49 140/83/83 142/70/70
f 142/70/70 140/83/83 132/84/84
f 142/70/70 132/84/84 134/69/69
f 134/69/69 132/84/84 124/85/85
f 134/69/69 124/85/85 126/68/68
f 126/68/68 124/85/85 116/86/86
f 126/68/68 116/86/86 118/67/67
f 118/67/67 116/86/86 112/87/87
f 118/67/67 112/87/87 114/66/66
f 114/66/66 112/87/87 111/88/88
f 114/66/66 111/88/88 113/65/65
f 113/65/65 111/88/88 115/89/89
f 113/65/65 115/89/89 117/64/64
f 117/64/64 115/89/89 123/90/90
f 117/64/64 123/90/90 125/63/63
f 125/63/63 123/90/90 131/91/91
f 125/63/63 131/91/91 133/62/62
f 133/62/62 131/91/91 139/92/92
f 133/62/62 139/92/92 141/61/61
f 141/61/61 139/92/92 145/93/93
f 141/61/61 145/94/94 147/60/60
f 147/95/95 145/71/71 151/72/72
f 147/96/96 151/72/72 153/59/59
f 153/59/59 151/72/72 159/73/73
f 153/59/59 159/73/73 161/58/58
f 161/58/58 159/73/73 167/74/74
f 161/58/58 167/74/74 169/57/57
f 169/57/57 167/74/74 175/75/75
f 169/57/57 175/75/75 177/56/56
f 177/56/56 175/75/75 179/76/76
f 177/56/56 179/76/76 181/55/55
f 181/55/55 179/76/76 180/77/77
f 181/55/55 180/77/77 182/54/54
f 182/54/54 180/77/77 176/78/78
f 182/54/54 176/78/78 178/53/53
f 178/53/53 176/78/78 168/79/79
f 178/53/53 168/79/79 170/52/52
f 170/52/52 168/79/79 160/80/80
f 170/52/52 160/80/80 162/51/51
f 162/51/51 160/80/80 152/81/81
f 162/51/51 152/81/81 154/50/50
f 154/50/50 152/81/81 146/82/82
f 138/120/120 150/143/143 148/121/121
f 148/144/144 150/97/97 158/98/98
f 148/145/145 158/98/98 154/142/142
f 154/142/142 158/98/98 166/99/99
f 154/142/142 166/99/99 162/141/141
f 162/141/141 166/99/99 174/100/100
f 162/141/141 174/100/100 170/140/140
f 170/140/140 174/100/100 186/101/101
f 170/140/140 186/101/101 178/139/139
f 178/139/139 186/101/101 190/102/102
f 178/139/139 190/102/102 182/138/138
f 182/138/138 190/102/102 192/103/103
f 182/138/138 192/103/103 181/137/137
f 181/137/137 192/103/103 189/104/104
f 181/137/137 189/104/104 177/136/136
f 177/136/136 189/104/104 185/105/105
f 177/136/136 185/105/105 169/135/135
f 169/135/135 185/105/105 173/106/106
f 169/135/135 173/106/106 161/134/134
f 161/134/134 173/106/106 165/107/107
f 161/134/134 165/107/107 153/133/133
f 153/133/133 165/107/107 157/108/108
f 153/133/133 157/108/108 147/132/132
f 147/132/132 157/108/108 149/109/109
f 147/132/132 149/109/109 137/110/110
f 147/132/132 137/110/110 141/131/131
f 141/131/131 137/110/110 129/111/111
f 141/131/131 129/111/111 133/130/130
f 133/130/130 129/111/111 121/112/112
f 133/130/130 121/112/112 125/129/129
f 125/129/129 121/112/112 109/113/113
f 125/129/129 109/113/113 117/128/128
f 117/128/128 109/113/113 105/114/114
f 117/128/128 105/114/114 113/127/127
f 113/127/127 105/114/114 102/115/115
f 113/127/127 102/115/115 114/126/126
f 114/126/126 102/115/115 106/116/116
f 114/126/126 106/116/116 118/125/125
f 118/125/125 106/116/116 110/117/117
f 118/125/125 110/117/117 126/124/124
f 126/124/124 110/117/117 122/118/118
f 126/124/124 122/118/118 134/123/123
f 134/123/123 122/118/118 130/119/119
f 134/123/123 130/119/119 142/122/122
f 142/122/122 130/119/119 138/120/120
f 142/122/122 138/120/120 148/121/121
f 135/169/169 143/192/192 145/170/170
f 145/193/193 143/146/146 155/147/147
f 145/194/194 155/147/147 151/191/191
f 151/191/191 155/147/147 163/148/148
f 151/191/191 163/148/148 159/190/190
f 159/190/190 163/148/148 171/149/149
f 159/190/190 171/149/149 167/189/189
f 167/189/189 171/149/149 183/150/150
f 167/189/189 183/150/150 175/188/188
f 175/188/188 183/150/150 187/151/151
f 175/188/188 187/151/151 179/187/187
f 179/187/187 187/151/151 191/152/152
f 179/187/187 191/152/152 180/186/186
f 180/186/186 191/152/152 188/153/153
f 180/186/186 188/153/153 176/185/185
f 176/185/185 188/153/153 184/154/154
f 176/185/185 184/154/154 168/184/184
f 168/184/184 184/154/154 172/155/155
f 168/184/184 172/155/155 160/183/183
f 160/183/183 172/155/155 164/156/156
f 160/183/183 164/156/156 152/182/182
f 152/182/182 164/156/156 156/157/157
f 152/182/182 156/157/157 146/181/181
f 146/181/181 156/157/157 144/158/158
f 146/181/181 144/158/158 136/159/159
f 146/181/181 136/159/159 140/180/180
f 140/180/180 136/159/159 128/160/160
f 140/180/180 128/160/160 132/179/179
f 132/179/179 128/160/160 120/161/161
f 132/179/179 120/161/161 124/178/178
f 124/178/178 120/161/161 108/162/162
f 124/178/178 108/162/162 116/177/177
f 116/177/177 108/162/162 104/163/163
f 116/177/177 104/163/163 112/176/176
f 112/176/176 104/163/163 101/164/164
f 112/176/176 101/164/164 111/175/175
f 111/175/175 101/164/164 103/165/165
f 111/175/175 103/165/165 115/174/174
f 115/174/174 103/165/165 107/166/166
f 115/174/174 107/166/166 123/173/173
f 123/173/173 107/166/166 119/167/167
f 123/173/173 119/167/167 131/172/172
f 131/172/172 119/167/167 127/168/168
f 131/172/172 127/168/168 139/171/171
f 139/171/171 127/168/168 135/169/169
f 139/171/171 135/169/169 145/170/170
f 46/218/218 58/241/241 56/219/219
f 56/242/242 58/195/195 66/196/196
f 56/243/243 66/196/196 62/240/240
f 62/240/240 66/196/196 74/197/197
f 62/240/240 74/197/197 70/239/239
f 70/239/239 74/197/197 82/198/198
f 70/239/239 82/198/198 78/238/238
f 78/238/238 82/198/198 94/199/199
f 78/238/238 94/199/199 86/237/237
f 86/237/237 94/199/199 98/200/200
f 86/237/237 98/200/200 90/236/236
f 90/236/236 98/200/200 100/201/201
f 90/236/236 100/201/201 89/235/235
f 89/235/235 100/201/201 97/202/202
f 89/235/235 97/202/202 85/234/234
f 85/234/234 97/202/202 93/203/203
f 85/234/234 93/203/203 77/233/233
f 77/233/233 93/203/203 81/204/204
f 77/233/233 81/204/204 69/232/232
f 69/232/232 81/204/204 73/205/205
f 69/232/232 73/205/205 61/231/231
f 61/231/231 73/205/205 65/206/206
f 61/231/231 65/206/206 55/230/230
f 55/230/230 65/206/206 57/207/207
f 55/230/230 57/207/207 45/208/208
f 55/230/230 45/208/208 49/229/229
f 49/229/229 45/208/208 37/209/209
f 49/229/229 37/209/209 41/228/228
f 41/228/228 37/209/209 29/210/210
f 41/228/228 29/210/210 33/227/227
f 33/227/227 29/210/210 17/211/211
f 33/227/227 17/211/211 25/226/226
f 25/226/226 17/211/211 13/212/212
f 25/226/226 13/212/212 21/225/225
f 21/225/225 13/212/212 10/213/213
f 21/225/225 10/213/213 22/224/224
f 22/224/224 10/213/213 14/214/214
f 22/224/224 14/214/214 26/223/223
f 26/223/223 14/214/214 18/215/215
f 26/223/223 18/215/215 34/222/222
f 34/222/222 18/215/215 30/216/216
f 34/222/222 30/216/216 42/221/221
f 42/221/221 30/216/216 38/217/217
f 42/221/221 38/217/217 50/220/220
f 50/220/220 38/217/217 46/218/218
f 50/220/220 46/218/218 56/219/219
f 43/267/267 51/290/290 53/268/268
f 53/291/291 51/244/244 63/245/245
f 53/292/292 63/245/245 59/289/289
f 59/289/289 63/245/245 71/246/246
f 59/289/289 71/246/246 67/288/288
f 67/288/288 71/246/246 79/247/247
f 67/288/288 79/247/247 75/287/287
f 75/287/287 79/247/247 91/248/248
f 75/287/287 91/248/248 83/286/286
f 83/286/286 91/248/248 95/249/249
f 83/286/286 95/249/249 87/285/285
f 87/285/285 95/249/249 99/250/250
f 87/285/285 99/250/250 88/284/284
f 88/284/284 99/250/250 96/251/251
f 88/284/284 96/251/251 84/283/283
f 84/283/283 96/251/251 92/252/252
f 84/283/283 92/252/252 76/282/282
f 76/282/282 92/252/252 80/253/253
f 76/282/282 80/253/253 68/281/281
f 68/281/281 80/253/253 72/254/254
f 68/281/281 72/254/254 60/280/280
f 60/280/280 72/254/254 64/255/255
f 60/280/280 64/255/255 54/279/279
f 54/279/279 64/255/255 52/256/256
f 54/279/279 52/256/256 44/257/257
f 54/279/279 44/257/257 48/278/278
f 48/278/278 44/257/257 36/258/258
f 48/278/278 36/258/258 40/277/277
f 40/277/277 36/258/258 28/259/259
f 40/277/277 28/259/259 32/276/276
f 32/276/276 28/259/259 16/260/260
f 32/276/276 16/260/260 24/275/275
f 24/275/275 16/260/260 12/261/261
f 24/275/275 12/261/261 20/274/274
f 20/274/274 12/261/261 9/262/262
f 20/274/274 9/262/262 19/273/273
f 19/273/273 9/262/262 11/263/263
f 19/273/273 11/263/263 23/272/272
f 23/272/272 11/263/263 15/264/264
f 23/272/272 15/264/264 31/271/271
f 31/271/271 15/264/264 27/265/265
f 31/271/271 27/265/265 39/270/270
f 39/270/270 27/265/265 35/266/266
f 39/270/270 35/266/266 47/269/269
f 47/269/269 35/266/266 43/267/267
f 47/269/269 43/267/267 53/268/268
f 247/314/314 245/293/293 243/313/313
f 243/313/313 245/293/293 241/294/294
f 243/313/313 241/294/294 239/312/312
f 239/312/312 241/294/294 237/295/295
f 239/312/312 237/295/295 235/311/311
f 235/311/311 237/295/295 233/296/296
f 235/311/311 233/296/296 231/310/310
f 231/310/310 233/296/296 229/297/297
f 231/310/310 229/297/297 227/309/309
f 227/309/309 229/297/297 225/298/298
f 227/309/309 225/298/298 223/308/308
f 223/308/308 225/298/298 221/299/299
f 223/308/308 221/299/299 219/307/307
f 219/307/307 221/299/299 217/300/300
f 219/307/307 217/300/300 215/306/306
f 215/306/306 217/300/300 213/301/301
f 215/306/306 213/301/301 211/305/305
f 211/305/305 213/301/301 209/302/302
f 211/305/305 209/302/302 207/304/304
f 207/304/304 209/302/302 205/303/303
f 208/336/336 206/315/315 212/335/335
f 212/335/335 206/315/315 210/316/316
f 212/335/335 210/316/316 216/334/334
f 216/334/334 210/316/316 214/317/317
f 216/334/334 214/317/317 220/333/333
f 220/333/333 214/317/317 218/318/318
f 220/333/333 218/318/318 224/332/332
f 224/332/332 218/318/318 222/319/319
f 224/332/332 222/319/319 228/331/331
f 228/331/331 222/319/319 226/320/320
f 228/331/331 226/320/320 232/330/330
f 232/330/330 226/320/320 230/321/321
f 232/330/330 230/321/321 236/329/329
f 236/329/329 230/321/321 234/322/322
f 236/329/329 234/322/322 240/328/328
f 240/328/328 234/322/322 238/323/323
f 240/328/328 238/323/323 244/327/327
f 244/327/327 238/323/323 242/324/324
f 244/327/327 242/324/324 248/326/326
f 248/326/326 242/324/324 246/325/325
f 196/338/338 195/339/339 194/337/337
f 194/337/337 195/339/339 193/340/340
f 7/341/341 197/342/342 5/348/348
f 5/348/348 197/342/342 195/347/347
f 195/347/347 197/342/342 201/345/345
f 195/347/347 201/345/345 193/346/346
f 199/343/343 203/344/344 197/342/342
f 197/342/342 203/344/344 201/345/345
f 197/349/349 198/350/350 199/352/352
f 199/352/352 198/350/350 200/351/351
f 200/353/353 198/354/354 204/360/360
f 204/360/360 198/354/354 202/359/359
f 202/359/359 198/354/354 196/357/357
f 202/359/359 196/357/357 194/358/358
f 198/354/354 8/355/355 196/357/357
f 196/357/357 8/355/355 6/356/356
f 208/361/361 204/362/362 206/364/364
f 206/364/364 204/362/362 202/363/363
f 252/365/365 248/366/366 250/368/368
f 250/368/368 248/366/366 246/367/367
f 256/369/369 252/370/370 254/372/372
f 254/372/372 252/370/370 250/371/371
f 260/373/373 256/374/374 258/376/376
f 258/376/376 256/374/374 254/375/375
f 259/377/377 260/378/378 257/380/380
f 257/380/380 260/378/378 258/379/379
f 255/381/381 259/382/382 253/384/384
f 253/384/384 259/382/382 257/383/383
f 251/385/385 255/386/386 249/388/388
f 249/388/388 255/386/386 253/387/387
f 247/389/389 251/390/390 245/392/392
f 245/392/392 251/390/390 249/391/391
f 203/393/393 207/394/394 201/396/396
f 201/396/396 207/394/394 205/395/395
f 194/428/428 193/397/397 202/427/427
f 202/427/427 193/397/397 201/398/398
f 202/427/427 201/398/398 205/399/399
f 209/400/400 213/401/401 205/399/399
f 205/399/399 213/401/401 217/402/402
f 205/399/399 217/402/402 221/403/403
f 221/403/403 225/404/404 205/399/399
f 205/399/399 225/404/404 245/409/409
f 205/399/399 245/409/409 206/426/426
f 206/426/426 245/409/409 246/416/416
f 206/426/426 246/416/416 226/421/421
f 226/421/421 246/416/416 230/420/420
f 230/420/420 246/416/416 234/419/419
f 234/419/419 246/416/416 238/418/418
f 238/418/418 246/416/416 242/417/417
f 225/404/404 229/405/405 245/409/409
f 245/409/409 229/405/405 233/406/406
f 245/409/409 233/406/406 237/407/407
f 237/407/407 241/408/408 245/409/409
f 246/416/416 245/409/409 250/415/415
f 250/415/415 245/409/409 249/410/410
f 250/415/415 249/410/410 257/412/412
f 257/412/412 249/410/410 253/411/411
f 257/412/412 258/413/413 250/415/415
f 250/415/415 258/413/413 254/414/414
f 226/421/421 222/422/422 206/426/426
f 206/426/426 222/422/422 218/423/423
f 206/426/426 218/423/423 214/424/424
f 214/424/424 210/425/425 206/426/426
f 206/426/426 202/427/427 205/399/399
f 199/430/430 200/431/431 203/429/429
f 203/429/429 200/431/431 204/432/432
f 203/429/429 204/432/432 207/460/460
f 207/460/460 204/432/432 208/433/433
f 207/460/460 208/433/433 247/450/450
f 247/450/450 208/433/433 248/443/443
f 247/450/450 248/443/443 251/449/449
f 251/449/449 248/443/443 252/444/444
f 251/449/449 252/444/444 259/447/447
f 259/447/447 252/444/444 260/446/446
f 260/446/446 252/444/444 256/445/445
f 212/434/434 216/435/435 208/433/433
f 208/433/433 216/435/435 220/436/436
f 208/433/433 220/436/436 224/437/437
f 224/437/437 228/438/438 208/433/433
f 208/433/433 228/438/438 248/443/443
f 228/438/438 232/439/439 248/443/443
f 248/443/443 232/439/439 236/440/440
f 248/443/443 236/440/440 240/441/441
f 240/441/441 244/442/442 248/443/443
f 259/447/447 255/448/448 251/449/449
f 243/451/451 239/452/452 247/450/450
f 247/450/450 239/452/452 235/453/453
f 247/450/450 235/453/453 231/454/454
f 231/454/454 227/455/455 247/450/450
f 247/450/450 227/455/455 207/460/460
f 227/455/455 223/456/456 207/460/460
f 207/460/460 223/456/456 219/457/457
f 207/460/460 219/457/457 215/458/458
f 215/458/458 211/459/459 207/460/460
f 1/462/462 3/463/463 5/461/461
f 5/461/461 3/463/463 7/464/464
f 2/466/466 4/467/467 1/465/465
f 1/465/465 4/467/467 3/468/468
f 6/470/470 8/471/471 2/469/469
f 2/469/469 8/471/471 4/472/472
f 198/474/474 138/504/504 8/473/473
f 8/473/473 138/504/504 66/502/502
f 8/473/473 66/502/502 58/479/479
f 197/475/475 192/521/521 198/474/474
f 198/474/474 192/521/521 190/522/522
f 198/474/474 190/522/522 186/523/523
f 7/476/476 137/514/514 197/475/475
f 197/475/475 137/514/514 149/515/515
f 197/475/475 149/515/515 157/516/516
f 3/477/477 57/491/491 7/476/476
f 7/476/476 57/491/491 65/492/492
f 7/476/476 65/492/492 137/514/514
f 137/514/514 65/492/492 129/513/513
f 129/513/513 65/492/492 73/493/493
f 129/513/513 73/493/493 121/512/512
f 121/512/512 73/493/493 81/494/494
f 121/512/512 81/494/494 109/511/511
f 109/511/511 81/494/494 93/495/495
f 109/511/511 93/495/495 105/510/510
f 105/510/510 93/495/495 97/496/496
f 105/510/510 97/496/496 102/509/509
f 102/509/509 97/496/496 100/497/497
f 102/509/509 100/497/497 106/508/508
f 106/508/508 100/497/497 98/498/498
f 106/508/508 98/498/498 110/507/507
f 110/507/507 98/498/498 94/499/499
f 110/507/507 94/499/499 122/506/506
f 122/506/506 94/499/499 82/500/500
f 122/506/506 82/500/500 130/505/505
f 130/505/505 82/500/500 74/501/501
f 130/505/505 74/501/501 138/504/504
f 138/504/504 74/501/501 66/502/502
f 4/478/478 10/485/485 3/477/477
f 3/477/477 10/485/485 13/486/486
f 3/477/477 13/486/486 17/487/487
f 8/473/473 58/479/479 4/478/478
f 4/478/478 58/479/479 46/480/480
f 4/478/478 46/480/480 38/481/481
f 38/481/481 30/482/482 4/478/478
f 4/478/478 30/482/482 18/483/483
f 4/478/478 18/483/483 14/484/484
f 14/484/484 10/485/485 4/478/478
f 17/487/487 29/488/488 3/477/477
f 3/477/477 29/488/488 37/489/489
f 3/477/477 37/489/489 45/490/490
f 45/490/490 57/491/491 3/477/477
f 158/526/526 150/503/503 198/474/474
f 198/474/474 150/503/503 138/504/504
f 157/516/516 165/517/517 197/475/475
f 197/475/475 165/517/517 173/518/518
f 197/475/475 173/518/518 185/519/519
f 185/519/519 189/520/520 197/475/475
f 197/475/475 189/520/520 192/521/521
f 186/523/523 174/524/524 198/474/474
f 198/474/474 174/524/524 166/525/525
f 198/474/474 166/525/525 158/526/526
f 196/528/528 191/575/575 195/527/527
f 195/527/527 191/575/575 187/576/576
f 195/527/527 187/576/576 183/577/577
f 6/529/529 136/568/568 196/528/528
f 196/528/528 136/568/568 144/569/569
f 196/528/528 144/569/569 156/570/570
f 2/530/530 52/545/545 6/529/529
f 6/529/529 52/545/545 64/546/546
f 6/529/529 64/546/546 136/568/568
f 136/568/568 64/546/546 128/567/567
f 128/567/567 64/546/546 72/547/547
f 128/567/567 72/547/547 120/566/566
f 120/566/566 72/547/547 80/548/548
f 120/566/566 80/548/548 108/565/565
f 108/565/565 80/548/548 92/549/549
f 108/565/565 92/549/549 104/564/564
f 104/564/564 92/549/549 96/550/550
f 104/564/564 96/550/550 101/563/563
f 101/563/563 96/550/550 99/551/551
f 101/563/563 99/551/551 103/562/562
f 103/562/562 99/551/551 95/552/552
f 103/562/562 95/552/552 107/561/561
f 107/561/561 95/552/552 91/553/553
f 107/561/561 91/553/553 119/560/560
f 119/560/560 91/553/553 79/554/554
f 119/560/560 79/554/554 127/559/559
f 127/559/559 79/554/554 71/555/555
f 127/559/559 71/555/555 135/558/558
f 135/558/558 71/555/555 63/556/556
f 135/558/558 63/556/556 5/532/532
f 5/532/532 63/556/556 51/533/533
f 5/532/532 51/533/533 1/531/531
f 1/531/531 51/533/533 43/534/534
f 1/531/531 43/534/534 35/535/535
f 1/531/531 9/539/539 2/530/530
f 2/530/530 9/539/539 12/540/540
f 2/530/530 12/540/540 16/541/541
f 5/532/532 195/527/527 135/558/558
f 135/558/558 195/527/527 143/557/557
f 143/557/557 195/527/527 155/580/580
f 155/580/580 195/527/527 163/579/579
f 163/579/579 195/527/527 171/578/578
f 171/578/578 195/527/527 183/577/577
f 35/535/535 27/536/536 1/531/531
f 1/531/531 27/536/536 15/537/537
f 1/531/531 15/537/537 11/538/538
f 11/538/538 9/539/539 1/531/531
f 16/541/541 28/542/542 2/530/530
f 2/530/530 28/542/542 36/543/543
f 2/530/530 36/543/543 44/544/544
f 44/544/544 52/545/545 2/530/530
f 156/570/570 164/571/571 196/528/528
f 196/528/528 164/571/571 172/572/572
f 196/528/528 172/572/572 184/573/573
f 184/573/573 188/574/574 196/528/528
f 196/528/528 188/574/574 191/575/575
g Solid2:1

v -29.760000 -169.000000 -10.000000
v -29.760000 -169.000000 10.000000
v -29.760000 -150.722009 -0.391366
v -29.760000 -150.722009 0.391366
v -29.760000 -150.501488 -1.142391
v -29.760000 -150.501488 1.142391
v -29.760000 -150.078311 -1.800867
v -29.760000 -150.078311 1.800867
v -29.760000 -149.486762 -2.313447
v -29.760000 -149.486762 2.313447
v -29.760000 -148.774765 -2.638606
v -29.760000 -148.774765 2.638606
v -29.760000 -148.000000 -2.750000
v -29.760000 -148.000000 2.750000
v -29.760000 -147.225235 -2.638606
v -29.760000 -147.225235 2.638606
v -29.760000 -146.513238 -2.313447
v -29.760000 -146.513238 2.313447
v -29.760000 -145.921689 -1.800867
v -29.760000 -145.921689 1.800867
v -29.760000 -145.498512 -1.142391
v -29.760000 -145.498512 1.142391
v -29.760000 -145.277991 -0.391366
v -29.760000 -145.277991 0.391366
v -29.760000 -138.722009 -0.391366
v -29.760000 -138.722009 0.391366
v -29.760000 -138.501488 -1.142391
v -29.760000 -138.501488 1.142391
v -29.760000 -138.078312 -1.800867
v -29.760000 -138.078312 1.800867
v -29.760000 -137.486762 -2.313447
v -29.760000 -137.486762 2.313447
v -29.760000 -136.774764 -2.638606
v -29.760000 -136.774764 2.638606
v -29.760000 -136.000000 -2.750000
v -29.760000 -136.000000 2.750000
v -29.760000 -135.225235 -2.638606
v -29.760000 -135.225235 2.638606
v -29.760000 -134.513238 -2.313447
v -29.760000 -134.513238 2.313447
v -29.760000 -133.921689 -1.800867
v -29.760000 -133.921689 1.800867
v -29.760000 -133.498513 -1.142391
v -29.760000 -133.498513 1.142391
v -29.760000 -133.277990 -0.391366
v -29.760000 -133.277990 0.391366
v -29.760000 -129.000000 -10.000000
v -29.760000 -129.000000 10.000000
v -19.760000 -179.000000 -10.000000
v -19.760000 -179.000000 10.000000
v -19.760000 -154.000000 -6.200000
v -19.760000 -154.000000 6.200000
v -19.760000 -150.722009 -0.391366
v -19.760000 -150.722009 0.391366
v -19.760000 -150.501488 -1.142391
v -19.760000 -150.501488 1.142391
v -19.760000 -150.078311 -1.800867
v -19.760000 -150.078311 1.800867
v -19.760000 -149.486762 -2.313447
v -19.760000 -149.486762 2.313447
v -19.760000 -148.774765 -2.638606
v -19.760000 -148.774765 2.638606
v -19.760000 -148.000000 -2.750000
v -19.760000 -148.000000 2.750000
v -19.760000 -147.225235 -2.638606
v -19.760000 -147.225235 2.638606
v -19.760000 -146.513238 -2.313447
v -19.760000 -146.513238 2.313447
v -19.760000 -145.921689 -1.800867
v -19.760000 -145.921689 1.800867
v -19.760000 -145.498512 -1.142391
v -19.760000 -145.498512 1.142391
v -19.760000 -145.277991 -0.391366
v -19.760000 -145.277991 0.391366
v -19.760000 -138.722009 -0.391366
v -19.760000 -138.722009 0.391366
v -19.760000 -138.501488 -1.142391
v -19.760000 -138.501488 1.142391
v -19.760000 -138.078312 -1.800867
v -19.760000 -138.078312 1.800867
v -19.760000 -137.486762 -2.313447
v -19.760000 -137.486762 2.313447
v -19.760000 -136.774764 -2.638606
v -19.760000 -136.774764 2.638606
v -19.760000 -136.000000 -2.750000
v -19.760000 -136.000000 2.750000
v -19.760000 -135.225235 -2.638606
v -19.760000 -135.225235 2.638606
v -19.760000 -134.513238 -2.313447
v -19.760000 -134.513238 2.313447
v -19.760000 -133.921689 -1.800867
v -19.760000 -133.921689 1.800867
v -19.760000 -133.498513 -1.142391
v -19.760000 -133.498513 1.142391
v -19.760000 -133.277990 -0.391366
v -19.760000 -133.277990 0.391366
v -19.760000 -129.000000 -6.200000
v -19.760000 -129.000000 6.200000
v -14.760000 -164.000000 -10.000000
v -14.760000 -164.000000 10.000000
v -14.760000 -154.000000 -6.200000
v -14.760000 -154.000000 6.200000
v -14.760000 -129.000000 -10.000000
v -14.760000 -129.000000 -6.200000
v -14.760000 -129.000000 6.200000
v -14.760000 -129.000000 10.000000
v -12.035732 -179.000000 0.000000
v -12.035732 -164.000000 0.000000
v -8.760000 -179.000000 -10.000000
v -8.760000 -179.000000 -9.000000
v -8.760000 -179.000000 9.000000
v -8.760000 -179.000000 10.000000
v -8.760000 -164.000000 -10.000000
v -8.760000 -164.000000 -9.000000
v -8.760000 -164.000000 9.000000
v -8.760000 -164.000000 10.000000
vt 0.000000 -0.863938 0.000000
vt 0.000000 -0.785398 0.000000
vt 0.000000 -0.706858 0.000000
vt 0.000000 -0.628319 0.000000
vt 0.000000 -0.549779 0.000000
vt 0.000000 -0.471239 0.000000
vt 0.000000 -0.392699 0.000000
vt 0.000000 -0.314159 0.000000
vt 0.000000 -0.235619 0.000000
vt 0.000000 -0.157080 0.000000
vt 0.000000 -0.078540 0.000000
vt 0.000000 0.000000 0.000000
vt 0.000000 0.078540 0.000000
vt 0.000000 0.157080 0.000000
vt 0.000000 0.235619 0.000000
vt 0.000000 0.314159 0.000000
vt 0.000000 0.392699 0.000000
vt 0.000000 0.471239 0.000000
vt 0.000000 0.549779 0.000000
vt 0.000000 0.628319 0.000000
vt 0.000000 0.706858 0.000000
vt 0.000000 0.785398 0.000000
vt -1.000000 0.863938 0.000000
vt -1.000000 0.785398 0.000000
vt -1.000000 0.706858 0.000000
vt -1.000000 0.628319 0.000000
vt -1.000000 0.549779 0.000000
vt -1.000000 0.471239 0.000000
vt -1.000000 0.392699 0.000000
vt -1.000000 0.314159 0.000000
vt -1.000000 0.235619 0.000000
vt -1.000000 0.157080 0.000000
vt -1.000000 0.078540 0.000000
vt -1.000000 0.000000 0.000000
vt -1.000000 -0.078540 0.000000
vt -1.000000 -0.157080 0.000000
vt -1.000000 -0.235619 0.000000
vt -1.000000 -0.314159 0.000000
vt -1.000000 -0.392699 0.000000
vt -1.000000 -0.471239 0.000000
vt -1.000000 -0.549779 0.000000
vt -1.000000 -0.628319 0.000000
vt -1.000000 -0.706858 0.000000
vt -1.000000 -0.785398 0.000000
vt -1.000000 -0.863938 0.000000
vt 0.000000 0.863938 0.000000
vt 0.000000 -0.863938 0.000000
vt 0.000000 -0.785398 0.000000
vt 0.000000 -0.706858 0.000000
vt 0.000000 -0.628319 0.000000
vt 0.000000 -0.549779 0.000000
vt 0.000000 -0.471239 0.000000
vt 0.000000 -0.392699 0.000000
vt 0.000000 -0.314159 0.000000
vt 0.000000 -0.235619 0.000000
vt 0.000000 -0.157080 0.000000
vt 0.000000 -0.078540 0.000000
vt 0.000000 0.000000 0.000000
vt 0.000000 0.078540 0.000000
vt 0.000000 0.157080 0.000000
vt 0.000000 0.235619 0.000000
vt 0.000000 0.314159 0.000000
vt 0.000000 0.392699 0.000000
vt 0.000000 0.471239 0.000000
vt 0.000000 0.549779 0.000000
vt 0.000000 0.628319 0.000000
vt 0.000000 0.706858 0.000000
vt 0.000000 0.785398 0.000000
vt -1.000000 0.863938 0.000000
vt -1.000000 0.785398 0.000000
vt -1.000000 0.706858 0.000000
vt -1.000000 0.628319 0.000000
vt -1.000000 0.549779 0.000000
vt -1.000000 0.471239 0.000000
vt -1.000000 0.392699 0.000000
vt -1.000000 0.314159 0.000000
vt -1.000000 0.235619 0.000000
vt -1.000000 0.157080 0.000000
vt -1.000000 0.078540 0.000000
vt -1.000000 0.000000 0.000000
vt -1.000000 -0.078540 0.000000
vt -1.000000 -0.157080 0.000000
vt -1.000000 -0.235619 0.000000
vt -1.000000 -0.314159 0.000000
vt -1.000000 -0.392699 0.000000
vt -1.000000 -0.471239 0.000000
vt -1.000000 -0.549779 0.000000
vt -1.000000 -0.628319 0.000000
vt -1.000000 -0.706858 0.000000
vt -1.000000 -0.785398 0.000000
vt -1.000000 -0.863938 0.000000
vt 0.000000 0.863938 0.000000
vt -1.000000 -2.500000 0.000000
vt -0.900000 -2.500000 0.000000
vt -0.900000 -1.000000 0.000000
vt -1.000000 -1.000000 0.000000
vt -1.000000 2.500000 0.000000
vt -1.000000 -1.500000 0.000000
vt 1.000000 -1.500000 0.000000
vt 1.000000 2.500000 0.000000
vt -0.275000 1.800000 0.000000
vt -0.263861 1.877477 0.000000
vt -0.231345 1.948676 0.000000
vt -0.180087 2.007831 0.000000
vt -0.114239 2.050149 0.000000
vt -0.039137 2.072201 0.000000
vt 0.039137 2.072201 0.000000
vt 0.114239 2.050149 0.000000
vt 0.180087 2.007831 0.000000
vt 0.231345 1.948676 0.000000
vt 0.263861 1.877477 0.000000
vt 0.275000 1.800000 0.000000
vt 0.263861 1.722524 0.000000
vt 0.231345 1.651324 0.000000
vt 0.180087 1.592169 0.000000
vt 0.114239 1.549851 0.000000
vt 0.039137 1.527799 0.000000
vt -0.039137 1.527799 0.000000
vt -0.114239 1.549851 0.000000
vt -0.180087 1.592169 0.000000
vt -0.231345 1.651324 0.000000
vt -0.263861 1.722524 0.000000
vt -0.275000 0.600000 0.000000
vt -0.263861 0.677476 0.000000
vt -0.231345 0.748676 0.000000
vt -0.180087 0.807831 0.000000
vt -0.114239 0.850149 0.000000
vt -0.039137 0.872201 0.000000
vt 0.039137 0.872201 0.000000
vt 0.114239 0.850149 0.000000
vt 0.180087 0.807831 0.000000
vt 0.231345 0.748676 0.000000
vt 0.263861 0.677476 0.000000
vt 0.275000 0.600000 0.000000
vt 0.263861 0.522524 0.000000
vt 0.231345 0.451324 0.000000
vt 0.180087 0.392169 0.000000
vt 0.114239 0.349851 0.000000
vt 0.039137 0.327799 0.000000
vt -0.039137 0.327799 0.000000
vt -0.114239 0.349851 0.000000
vt -0.180087 0.392169 0.000000
vt -0.231345 0.451324 0.000000
vt -0.263861 0.522524 0.000000
vt 0.000000 5.000000 0.000000
vt 0.000000 1.000000 0.000000
vt 1.000000 0.000000 0.000000
vt 2.100000 0.000000 0.000000
vt 2.100000 1.500000 0.000000
vt 1.500000 1.500000 0.000000
vt 1.500000 5.000000 0.000000
vt 1.620000 1.500000 0.000000
vt 1.620000 1.000000 0.000000
vt 0.380000 1.000000 0.000000
vt 0.380000 1.500000 0.000000
vt 0.000000 1.500000 0.000000
vt 0.000000 0.000000 0.000000
vt 2.000000 0.000000 0.000000
vt 2.000000 1.500000 0.000000
vt -2.100000 0.000000 0.000000
vt -1.000000 0.000000 0.000000
vt 0.000000 1.000000 0.000000
vt 0.000000 5.000000 0.000000
vt -1.500000 5.000000 0.000000
vt -1.500000 1.500000 0.000000
vt -2.100000 1.500000 0.000000
vt -2.000000 2.100000 0.000000
vt -2.000000 1.000000 0.000000
vt 0.000000 1.000000 0.000000
vt 0.000000 2.100000 0.000000
vt -0.100000 2.100000 0.000000
vt -1.000000 1.772427 0.000000
vt -1.900000 2.100000 0.000000
vt -1.000000 -1.000000 0.000000
vt 1.000000 -1.000000 0.000000
vt 1.000000 2.500000 0.000000
vt 0.620000 2.500000 0.000000
vt 0.620000 0.000000 0.000000
vt -0.620000 0.000000 0.000000
vt -0.620000 2.500000 0.000000
vt -1.000000 2.500000 0.000000
vt -0.000000 0.500000 0.000000
vt -2.500000 0.500000 0.000000
vt -2.500000 0.000000 0.000000
vt -0.000000 0.000000 0.000000
vt 2.500000 0.500000 0.000000
vt -0.000000 0.500000 0.000000
vt -0.000000 0.000000 0.000000
vt 2.500000 0.000000 0.000000
vt -0.000000 0.500000 0.000000
vt -1.240000 0.500000 0.000000
vt -1.240000 0.000000 0.000000
vt -0.000000 0.000000 0.000000
vt -0.620000 2.500000 0.000000
vt -0.620000 0.000000 0.000000
vt 0.620000 0.000000 0.000000
vt 0.620000 2.500000 0.000000
vt 0.275000 0.600000 0.000000
vt 0.263861 0.522524 0.000000
vt 0.231345 0.451324 0.000000
vt 0.180087 0.392169 0.000000
vt 0.114239 0.349851 0.000000
vt 0.039137 0.327799 0.000000
vt -0.039137 0.327799 0.000000
vt -0.114239 0.349851 0.000000
vt -0.180087 0.392169 0.000000
vt -0.231345 0.451324 0.000000
vt -0.263861 0.522524 0.000000
vt -0.275000 0.600000 0.000000
vt -0.263861 0.677476 0.000000
vt -0.231345 0.748676 0.000000
vt -0.180087 0.807831 0.000000
vt -0.114239 0.850149 0.000000
vt -0.039137 0.872201 0.000000
vt 0.039137 0.872201 0.000000
vt 0.114239 0.850149 0.000000
vt 0.180087 0.807831 0.000000
vt 0.231345 0.748676 0.000000
vt 0.263861 0.677476 0.000000
vt 0.275000 1.800000 0.000000
vt 0.263861 1.722524 0.000000
vt 0.231345 1.651324 0.000000
vt 0.180087 1.592169 0.000000
vt 0.114239 1.549851 0.000000
vt 0.039137 1.527799 0.000000
vt -0.039137 1.527799 0.000000
vt -0.114239 1.549851 0.000000
vt -0.180087 1.592169 0.000000
vt -0.231345 1.651324 0.000000
vt -0.263861 1.722524 0.000000
vt -0.275000 1.800000 0.000000
vt -0.263861 1.877477 0.000000
vt -0.231345 1.948676 0.000000
vt -0.180087 2.007831 0.000000
vt -0.114239 2.050149 0.000000
vt -0.039137 2.072201 0.000000
vt 0.039137 2.072201 0.000000
vt 0.114239 2.050149 0.000000
vt 0.180087 2.007831 0.000000
vt 0.231345 1.948676 0.000000
vt 0.263861 1.877477 0.000000
vt -0.000000 0.000000 0.000000
vt -0.100000 0.000000 0.000000
vt -1.000000 -0.327573 0.000000
vt -1.900000 0.000000 0.000000
vt -2.000000 0.000000 0.000000
vt -2.000000 -0.600000 0.000000
vt -0.000000 -0.600000 0.000000
vt 1.000000 -1.000000 0.000000
vt 0.900000 -1.000000 0.000000
vt 0.900000 -2.500000 0.000000
vt 1.000000 -2.500000 0.000000
vt -0.000000 0.000100 0.000000
vt -0.000000 1.500100 0.000000
vt -0.957760 1.500100 0.000000
vt -0.957760 0.000100 0.000000
vt -0.000000 0.000100 0.000000
vt -0.000000 1.500100 0.000000
vt -0.957760 1.500100 0.000000
vt -0.957760 0.000100 0.000000
vt 2.000000 0.000000 0.000000
vt 2.000000 1.414214 0.000000
vt 0.000000 1.414214 0.000000
vt 0.000000 0.000000 0.000000
vn 0.000000 -0.000000 0.100000
vn 0.000000 0.028173 0.095949
vn 0.000000 0.054064 0.084125
vn 0.000000 0.075575 0.065486
vn 0.000000 0.090963 0.041542
vn -0.000000 0.098982 0.014231
vn -0.000000 0.098982 -0.014231
vn -0.000000 0.090963 -0.041542
vn -0.000000 0.075575 -0.065486
vn -0.000000 0.054064 -0.084125
vn -0.000000 0.028173 -0.095949
vn -0.000000 0.000000 -0.100000
vn -0.000000 -0.028173 -0.095949
vn -0.000000 -0.054064 -0.084125
vn -0.000000 -0.075575 -0.065486
vn -0.000000 -0.090963 -0.041542
vn 0.000000 -0.098982 -0.014231
vn 0.000000 -0.098982 0.014231
vn 0.000000 -0.090963 0.041542
vn 0.000000 -0.075575 0.065486
vn 0.000000 -0.054064 0.084125
vn 0.000000 -0.028173 0.095949
vn 0.000000 -0.000000 0.100000
vn 0.000000 -0.028173 0.095949
vn 0.000000 -0.054064 0.084125
vn 0.000000 -0.075575 0.065486
vn 0.000000 -0.090963 0.041542
vn 0.000000 -0.098982 0.014231
vn 0.000000 -0.098982 -0.014231
vn -0.000000 -0.090963 -0.041542
vn -0.000000 -0.075575 -0.065486
vn -0.000000 -0.054064 -0.084125
vn -0.000000 -0.028173 -0.095949
vn -0.000000 0.000000 -0.100000
vn -0.000000 0.028173 -0.095949
vn -0.000000 0.054064 -0.084125
vn -0.000000 0.075575 -0.065486
vn -0.000000 0.090963 -0.041542
vn -0.000000 0.098982 -0.014231
vn -0.000000 0.098982 0.014231
vn 0.000000 0.090963 0.041542
vn 0.000000 0.075575 0.065486
vn 0.000000 0.054064 0.084125
vn 0.000000 0.028173 0.095949
vn 0.000000 -0.000000 0.100000
vn 0.000000 -0.000000 0.100000
vn 0.000000 -0.000000 0.100000
vn 0.000000 0.028173 0.095949
vn 0.000000 0.054064 0.084125
vn 0.000000 0.075575 0.065486
vn 0.000000 0.090963 0.041542
vn -0.000000 0.098982 0.014231
vn -0.000000 0.098982 -0.014231
vn -0.000000 0.090963 -0.041542
vn -0.000000 0.075575 -0.065486
vn -0.000000 0.054064 -0.084125
vn -0.000000 0.028173 -0.095949
vn -0.000000 0.000000 -0.100000
vn -0.000000 -0.028173 -0.095949
vn -0.000000 -0.054064 -0.084125
vn -0.000000 -0.075575 -0.065486
vn -0.000000 -0.090963 -0.041542
vn 0.000000 -0.098982 -0.014231
vn 0.000000 -0.098982 0.014231
vn 0.000000 -0.090963 0.041542
vn 0.000000 -0.075575 0.065486
vn 0.000000 -0.054064 0.084125
vn 0.000000 -0.028173 0.095949
vn 0.000000 -0.000000 0.100000
vn 0.000000 -0.028173 0.095949
vn 0.000000 -0.054064 0.084125
vn 0.000000 -0.075575 0.065486
vn 0.000000 -0.090963 0.041542
vn 0.000000 -0.098982 0.014231
vn 0.000000 -0.098982 -0.014231
vn -0.000000 -0.090963 -0.041542
vn -0.000000 -0.075575 -0.065486
vn -0.000000 -0.054064 -0.084125
vn -0.000000 -0.028173 -0.095949
vn -0.000000 0.000000 -0.100000
vn -0.000000 0.028173 -0.095949
vn -0.000000 0.054064 -0.084125
vn -0.000000 0.075575 -0.065486
vn -0.000000 0.090963 -0.041542
vn -0.000000 0.098982 -0.014231
vn -0.000000 0.098982 0.014231
vn 0.000000 0.090963 0.041542
vn 0.000000 0.075575 0.065486
vn 0.000000 0.054064 0.084125
vn 0.000000 0.028173 0.095949
vn 0.000000 -0.000000 0.100000
vn 0.000000 -0.000000 0.100000
vn 0.100000 0.000000 -0.000000
vn 0.100000 0.000000 -0.000000
vn 0.100000 0.000000 -0.000000
vn 0.100000 0.000000 -0.000000
vn -0.100000 -0.000000 0.000000
vn -0.100000 -0.000000 0.000000
vn -0.100000 -0.000000 0.000000
vn -0.100000 -0.000000 0.000000
vn -0.100000 -0.000000 0.000000
vn -0.100000 -0.000000 0.000000
vn -0.100000 -0.000000 0.000000
vn -0.100000 -0.000000 0.000000
vn -0.100000 -0.000000 0.000000
vn -0.100000 -0.000000 0.000000
vn -0.100000 -0.000000 0.000000
vn -0.100000 -0.000000 0.000000
vn -0.100000 -0.000000 0.000000
vn -0.100000 -0.000000 0.000000
vn -0.100000 -0.000000 0.000000
vn -0.100000 -0.000000 0.000000
vn -0.100000 -0.000000 0.000000
vn -0.100000 -0.000000 0.000000
vn -0.100000 -0.000000 0.000000
vn -0.100000 -0.000000 0.000000
vn -0.100000 -0.000000 0.000000
vn -0.100000 -0.000000 0.000000
vn -0.100000 -0.000000 0.000000
vn -0.100000 -0.000000 0.000000
vn -0.100000 -0.000000 0.000000
vn -0.100000 -0.000000 0.000000
vn -0.100000 -0.000000 0.000000
vn -0.100000 -0.000000 0.000000
vn -0.100000 -0.000000 0.000000
vn -0.100000 -0.000000 0.000000
vn -0.100000 -0.000000 0.000000
vn -0.100000 -0.000000 0.000000
vn -0.100000 -0.000000 0.000000
vn -0.100000 -0.000000 0.000000
vn -0.100000 -0.000000 0.000000
vn -0.100000 -0.000000 0.000000
vn -0.100000 -0.000000 0.000000
vn -0.100000 -0.000000 0.000000
vn -0.100000 -0.000000 0.000000
vn -0.100000 -0.000000 0.000000
vn -0.100000 -0.000000 0.000000
vn -0.100000 -0.000000 0.000000
vn -0.100000 -0.000000 0.000000
vn -0.100000 -0.000000 0.000000
vn -0.100000 -0.000000 0.000000
vn -0.100000 -0.000000 0.000000
vn -0.100000 -0.000000 0.000000
vn -0.100000 -0.000000 0.000000
vn 0.000000 -0.000000 0.100000
vn 0.000000 -0.000000 0.100000
vn 0.000000 -0.000000 0.100000
vn 0.000000 -0.000000 0.100000
vn 0.000000 -0.000000 0.100000
vn 0.000000 -0.000000 0.100000
vn 0.000000 -0.000000 0.100000
vn -0.000000 0.100000 0.000000
vn -0.000000 0.100000 0.000000
vn -0.000000 0.100000 0.000000
vn -0.000000 0.100000 0.000000
vn -0.000000 0.100000 0.000000
vn -0.000000 0.100000 0.000000
vn -0.000000 0.100000 0.000000
vn -0.000000 0.100000 0.000000
vn -0.000000 0.000000 -0.100000
vn -0.000000 0.000000 -0.100000
vn -0.000000 0.000000 -0.100000
vn -0.000000 0.000000 -0.100000
vn -0.000000 0.000000 -0.100000
vn -0.000000 0.000000 -0.100000
vn -0.000000 0.000000 -0.100000
vn 0.000000 -0.100000 -0.000000
vn 0.000000 -0.100000 -0.000000
vn 0.000000 -0.100000 -0.000000
vn 0.000000 -0.100000 -0.000000
vn 0.000000 -0.100000 -0.000000
vn 0.000000 -0.100000 -0.000000
vn 0.000000 -0.100000 -0.000000
vn 0.100000 0.000000 -0.000000
vn 0.100000 0.000000 -0.000000
vn 0.100000 0.000000 -0.000000
vn 0.100000 0.000000 -0.000000
vn 0.100000 0.000000 -0.000000
vn 0.100000 0.000000 -0.000000
vn 0.100000 0.000000 -0.000000
vn 0.100000 0.000000 -0.000000
vn -0.000000 0.000000 -0.100000
vn -0.000000 0.000000 -0.100000
vn -0.000000 0.000000 -0.100000
vn -0.000000 0.000000 -0.100000
vn 0.000000 -0.000000 0.100000
vn 0.000000 -0.000000 0.100000
vn 0.000000 -0.000000 0.100000
vn 0.000000 -0.000000 0.100000
vn -0.000000 0.100000 0.000000
vn -0.000000 0.100000 0.000000
vn -0.000000 0.100000 0.000000
vn -0.000000 0.100000 0.000000
vn 0.100000 0.000000 -0.000000
vn 0.100000 0.000000 -0.000000
vn 0.100000 0.000000 -0.000000
vn 0.100000 0.000000 -0.000000
vn 0.100000 0.000000 -0.000000
vn 0.100000 0.000000 -0.000000
vn 0.100000 0.000000 -0.000000
vn 0.100000 0.000000 -0.000000
vn 0.100000 0.000000 -0.000000
vn 0.100000 0.000000 -0.000000
vn 0.100000 0.000000 -0.000000
vn 0.100000 0.000000 -0.000000
vn 0.100000 0.000000 -0.000000
vn 0.100000 0.000000 -0.000000
vn 0.100000 0.000000 -0.000000
vn 0.100000 0.000000 -0.000000
vn 0.100000 0.000000 -0.000000
vn 0.100000 0.000000 -0.000000
vn 0.100000 0.000000 -0.000000
vn 0.100000 0.000000 -0.000000
vn 0.100000 0.000000 -0.000000
vn 0.100000 0.000000 -0.000000
vn 0.100000 0.000000 -0.000000
vn 0.100000 0.000000 -0.000000
vn 0.100000 0.000000 -0.000000
vn 0.100000 0.000000 -0.000000
vn 0.100000 0.000000 -0.000000
vn 0.100000 0.000000 -0.000000
vn 0.100000 0.000000 -0.000000
vn 0.100000 0.000000 -0.000000
vn 0.100000 0.000000 -0.000000
vn 0.100000 0.000000 -0.000000
vn 0.100000 0.000000 -0.000000
vn 0.100000 0.000000 -0.000000
vn 0.100000 0.000000 -0.000000
vn 0.100000 0.000000 -0.000000
vn 0.100000 0.000000 -0.000000
vn 0.100000 0.000000 -0.000000
vn 0.100000 0.000000 -0.000000
vn 0.100000 0.000000 -0.000000
vn 0.100000 0.000000 -0.000000
vn 0.100000 0.000000 -0.000000
vn 0.100000 0.000000 -0.000000
vn 0.100000 0.000000 -0.000000
vn 0.100000 0.000000 -0.000000
vn 0.100000 0.000000 -0.000000
vn 0.100000 0.000000 -0.000000
vn 0.100000 0.000000 -0.000000
vn -0.000000 0.100000 0.000000
vn -0.000000 0.100000 0.000000
vn -0.000000 0.100000 0.000000
vn -0.000000 0.100000 0.000000
vn -0.000000 0.100000 0.000000
vn -0.000000 0.100000 0.000000
vn -0.000000 0.100000 0.000000
vn 0.100000 0.000000 -0.000000
vn 0.100000 0.000000 -0.000000
vn 0.100000 0.000000 -0.000000
vn 0.100000 0.000000 -0.000000
vn 0.093969 0.000000 -0.034202
vn 0.093969 0.000000 -0.034202
vn 0.093969 0.000000 -0.034202
vn 0.093969 0.000000 -0.034202
vn 0.093969 0.000000 0.034202
vn 0.093969 0.000000 0.034202
vn 0.093969 0.000000 0.034202
vn 0.093969 0.000000 0.034202
vn -0.070711 -0.070711 0.000000
vn -0.070711 -0.070711 0.000000
vn -0.070711 -0.070711 0.000000
vn -0.070711 -0.070711 0.000000
f 271/582/582 321/624/624 273/581/581
f 273/581/581 321/624/624 323/625/625
f 273/626/626 323/603/603 275/602/602
f 275/602/602 323/603/603 325/604/604
f 275/602/602 325/604/604 277/601/601
f 277/601/601 325/604/604 327/605/605
f 277/601/601 327/605/605 279/600/600
f 279/600/600 327/605/605 329/606/606
f 279/600/600 329/606/606 281/599/599
f 281/599/599 329/606/606 331/607/607
f 281/599/599 331/607/607 283/598/598
f 283/598/598 331/607/607 333/608/608
f 283/598/598 333/608/608 284/597/597
f 284/597/597 333/608/608 334/609/609
f 284/597/597 334/609/609 282/596/596
f 282/596/596 334/609/609 332/610/610
f 282/596/596 332/610/610 280/595/595
f 280/595/595 332/610/610 330/611/611
f 280/595/595 330/611/611 278/594/594
f 278/594/594 330/611/611 328/612/612
f 278/594/594 328/612/612 276/593/593
f 276/593/593 328/612/612 326/613/613
f 276/593/593 326/613/613 274/592/592
f 274/592/592 326/613/613 324/614/614
f 274/592/592 324/614/614 272/591/591
f 272/591/591 324/614/614 322/615/615
f 272/591/591 322/615/615 270/590/590
f 270/590/590 322/615/615 320/616/616
f 270/590/590 320/616/616 268/589/589
f 268/589/589 320/616/616 318/617/617
f 268/589/589 318/617/617 266/588/588
f 266/588/588 318/617/617 316/618/618
f 266/588/588 316/618/618 264/587/587
f 264/587/587 316/618/618 314/619/619
f 264/587/587 314/619/619 263/586/586
f 263/586/586 314/619/619 313/620/620
f 263/586/586 313/620/620 265/585/585
f 265/585/585 313/620/620 315/621/621
f 265/585/585 315/621/621 267/584/584
f 267/584/584 315/621/621 317/622/622
f 267/584/584 317/622/622 269/583/583
f 269/583/583 317/622/622 319/623/623
f 269/583/583 319/623/623 271/582/582
f 271/582/582 319/623/623 321/624/624
f 293/628/628 343/670/670 295/627/627
f 295/627/627 343/670/670 345/671/671
f 295/672/672 345/649/649 297/648/648
f 297/648/648 345/649/649 347/650/650
f 297/648/648 347/650/650 299/647/647
f 299/647/647 347/650/650 349/651/651
f 299/647/647 349/651/651 301/646/646
f 301/646/646 349/651/651 351/652/652
f 301/646/646 351/652/652 303/645/645
f 303/645/645 351/652/652 353/653/653
f 303/645/645 353/653/653 305/644/644
f 305/644/644 353/653/653 355/654/654
f 305/644/644 355/654/654 306/643/643
f 306/643/643 355/654/654 356/655/655
f 306/643/643 356/655/655 304/642/642
f 304/642/642 356/655/655 354/656/656
f 304/642/642 354/656/656 302/641/641
f 302/641/641 354/656/656 352/657/657
f 302/641/641 352/657/657 300/640/640
f 300/640/640 352/657/657 350/658/658
f 300/640/640 350/658/658 298/639/639
f 298/639/639 350/658/658 348/659/659
f 298/639/639 348/659/659 296/638/638
f 296/638/638 348/659/659 346/660/660
f 296/638/638 346/660/660 294/637/637
f 294/637/637 346/660/660 344/661/661
f 294/637/637 344/661/661 292/636/636
f 292/636/636 344/661/661 342/662/662
f 292/636/636 342/662/662 290/635/635
f 290/635/635 342/662/662 340/663/663
f 290/635/635 340/663/663 288/634/634
f 288/634/634 340/663/663 338/664/664
f 288/634/634 338/664/664 286/633/633
f 286/633/633 338/664/664 336/665/665
f 286/633/633 336/665/665 285/632/632
f 285/632/632 336/665/665 335/666/666
f 285/632/632 335/666/666 287/631/631
f 287/631/631 335/666/666 337/667/667
f 287/631/631 337/667/667 289/630/630
f 289/630/630 337/667/667 339/668/668
f 289/630/630 339/668/668 291/629/629
f 291/629/629 339/668/668 341/669/669
f 291/629/629 341/669/669 293/628/628
f 293/628/628 341/669/669 343/670/670
f 372/673/673 371/674/674 376/676/676
f 376/676/676 371/674/674 375/675/675
f 261/678/678 273/703/703 307/677/677
f 307/677/677 273/703/703 275/704/704
f 307/677/677 275/704/704 293/702/702
f 293/702/702 275/704/704 291/701/701
f 291/701/701 275/704/704 277/705/705
f 291/701/701 277/705/705 289/700/700
f 289/700/700 277/705/705 279/706/706
f 289/700/700 279/706/706 287/699/699
f 287/699/699 279/706/706 281/707/707
f 287/699/699 281/707/707 285/698/698
f 285/698/698 281/707/707 283/708/708
f 285/698/698 283/708/708 284/709/709
f 262/679/679 263/720/720 261/678/678
f 261/678/678 263/720/720 265/721/721
f 261/678/678 265/721/721 267/722/722
f 308/680/680 274/714/714 262/679/679
f 262/679/679 274/714/714 272/715/715
f 262/679/679 272/715/715 270/716/716
f 307/677/677 306/687/687 308/680/680
f 308/680/680 306/687/687 304/688/688
f 308/680/680 304/688/688 302/689/689
f 293/702/702 295/681/681 307/677/677
f 307/677/677 295/681/681 297/682/682
f 307/677/677 297/682/682 299/683/683
f 299/683/683 301/684/684 307/677/677
f 307/677/677 301/684/684 303/685/685
f 307/677/677 303/685/685 305/686/686
f 305/686/686 306/687/687 307/677/677
f 302/689/689 300/690/690 308/680/680
f 308/680/680 300/690/690 298/691/691
f 308/680/680 298/691/691 296/692/692
f 296/692/692 294/693/693 308/680/680
f 308/680/680 294/693/693 276/713/713
f 308/680/680 276/713/713 274/714/714
f 294/693/693 292/694/694 276/713/713
f 276/713/713 292/694/694 278/712/712
f 278/712/712 292/694/694 290/695/695
f 278/712/712 290/695/695 280/711/711
f 280/711/711 290/695/695 288/696/696
f 280/711/711 288/696/696 282/710/710
f 282/710/710 288/696/696 286/697/697
f 282/710/710 286/697/697 284/709/709
f 284/709/709 286/697/697 285/698/698
f 270/716/716 268/717/717 262/679/679
f 262/679/679 268/717/717 266/718/718
f 262/679/679 266/718/718 264/719/719
f 264/719/719 263/720/720 262/679/679
f 267/722/722 269/723/723 261/678/678
f 261/678/678 269/723/723 271/724/724
f 261/678/678 271/724/724 273/703/703
f 366/731/731 308/725/725 360/730/730
f 360/730/730 308/725/725 262/726/726
f 360/730/730 262/726/726 310/727/727
f 310/727/727 372/728/728 360/730/730
f 360/730/730 372/728/728 376/729/729
f 365/732/732 358/733/733 366/739/739
f 366/739/739 358/733/733 308/738/738
f 308/738/738 358/733/733 357/734/734
f 308/738/738 357/734/734 307/737/737
f 307/737/737 357/734/734 363/736/736
f 363/736/736 357/734/734 364/735/735
f 373/746/746 369/740/740 359/745/745
f 359/745/745 369/740/740 309/741/741
f 359/745/745 309/741/741 261/742/742
f 261/742/742 307/743/743 359/745/745
f 359/745/745 307/743/743 363/744/744
f 372/747/747 310/748/748 371/753/753
f 371/753/753 310/748/748 367/752/752
f 367/752/752 310/748/748 309/749/749
f 367/752/752 309/749/749 370/751/751
f 370/751/751 309/749/749 369/750/750
f 366/761/761 360/754/754 362/759/759
f 362/759/759 360/754/754 359/755/755
f 362/759/759 359/755/755 361/758/758
f 361/758/758 359/755/755 363/756/756
f 361/758/758 363/756/756 364/757/757
f 362/759/759 365/760/760 366/761/761
f 365/762/762 362/763/763 358/765/765
f 358/765/765 362/763/763 312/764/764
f 361/766/766 364/767/767 311/769/769
f 311/769/769 364/767/767 357/768/768
f 362/770/770 361/771/771 312/773/773
f 312/773/773 361/771/771 311/772/772
f 312/775/775 344/810/810 358/774/774
f 358/774/774 344/810/810 346/811/811
f 358/774/774 346/811/811 348/812/812
f 311/776/776 314/784/784 312/775/775
f 312/775/775 314/784/784 316/785/785
f 312/775/775 316/785/785 318/786/786
f 357/777/777 343/801/801 311/776/776
f 311/776/776 343/801/801 325/799/799
f 311/776/776 325/799/799 323/778/778
f 358/774/774 355/817/817 357/777/777
f 357/777/777 355/817/817 353/818/818
f 357/777/777 353/818/818 351/819/819
f 323/778/778 321/779/779 311/776/776
f 311/776/776 321/779/779 319/780/780
f 311/776/776 319/780/780 317/781/781
f 317/781/781 315/782/782 311/776/776
f 311/776/776 315/782/782 313/783/783
f 311/776/776 313/783/783 314/784/784
f 318/786/786 320/787/787 312/775/775
f 312/775/775 320/787/787 322/788/788
f 312/775/775 322/788/788 324/789/789
f 324/789/789 326/790/790 312/775/775
f 312/775/775 326/790/790 344/810/810
f 326/790/790 328/791/791 344/810/810
f 344/810/810 328/791/791 342/809/809
f 342/809/809 328/791/791 340/808/808
f 340/808/808 328/791/791 330/792/792
f 340/808/808 330/792/792 338/807/807
f 338/807/807 330/792/792 332/793/793
f 338/807/807 332/793/793 336/806/806
f 336/806/806 332/793/793 334/794/794
f 336/806/806 334/794/794 333/795/795
f 336/806/806 333/795/795 335/805/805
f 335/805/805 333/795/795 331/796/796
f 335/805/805 331/796/796 337/804/804
f 337/804/804 331/796/796 329/797/797
f 337/804/804 329/797/797 339/803/803
f 339/803/803 329/797/797 327/798/798
f 339/803/803 327/798/798 341/802/802
f 341/802/802 327/798/798 343/801/801
f 343/801/801 327/798/798 325/799/799
f 347/821/821 345/800/800 357/777/777
f 357/777/777 345/800/800 343/801/801
f 348/812/812 350/813/813 358/774/774
f 358/774/774 350/813/813 352/814/814
f 358/774/774 352/814/814 354/815/815
f 354/815/815 356/816/816 358/774/774
f 358/774/774 356/816/816 355/817/817
f 351/819/819 349/820/820 357/777/777
f 357/777/777 349/820/820 347/821/821
f 375/823/823 368/824/824 376/822/822
f 376/822/822 368/824/824 360/828/828
f 360/828/828 368/824/824 359/827/827
f 359/827/827 368/824/824 373/826/826
f 373/826/826 368/824/824 374/825/825
f 373/829/829 374/830/830 369/832/832
f 369/832/832 374/830/830 370/831/831
f 368/834/834 375/835/835 367/833/833
f 367/833/833 375/835/835 371/836/836
f 374/838/838 368/839/839 370/837/837
f 370/837/837 368/839/839 367/840/840
f 262/842/842 261/843/843 310/841/841
f 310/841/841 261/843/843 309/844/844
# 376 vertices
# 844 texture params
# 844 normals
# 760 facets

# 2 groups
