# WaveFront *.obj file (generated by Autodesk ATF)

mtllib GripperX-.mtl

g Solid2

v 9.750000 -154.000002 5.858579
v 9.750000 -154.000002 -5.858579
v 19.760000 -154.000002 5.858579
v 19.760000 -154.000002 -5.858579
v 9.750000 -153.858582 6.000000
v 9.750000 -153.858582 -6.000000
v 19.760000 -153.858582 6.000000
v 19.760000 -153.858582 -6.000000
v 9.750000 -150.499998 0.000000
v 19.760000 -150.499998 0.000000
v 9.750000 -150.414816 0.647048
v 9.750000 -150.414816 -0.647048
v 19.760000 -150.414816 0.647048
v 19.760000 -150.414816 -0.647047
v 9.750000 -150.165068 1.250000
v 9.750000 -150.165068 -1.250000
v 19.760000 -150.165068 1.250000
v 19.760000 -150.165068 -1.250000
v 10.182999 -150.045963 0.294165
v 10.182999 -150.045963 -0.294165
v 19.327000 -150.045963 0.294165
v 19.327000 -150.045963 -0.294164
v 10.182999 -149.880205 0.858663
v 10.182999 -149.880205 -0.858663
v 19.327000 -149.880205 0.858663
v 19.327000 -149.880205 -0.858663
v 9.750000 -149.767767 1.767767
v 9.750000 -149.767767 -1.767767
v 19.760000 -149.767767 1.767767
v 19.760000 -149.767767 -1.767767
v 10.182999 -149.562136 1.353597
v 10.182999 -149.562136 -1.353597
v 19.327000 -149.562136 1.353597
v 19.327000 -149.562136 -1.353597
v 9.750000 -149.249998 2.165063
v 9.750000 -149.249998 -2.165063
v 19.760000 -149.249998 2.165064
v 19.760000 -149.249998 -2.165063
v 10.182999 -149.117504 1.738871
v 10.182999 -149.117504 -1.738871
v 19.327000 -149.117504 1.738871
v 19.327000 -149.117504 -1.738871
v 9.750000 -148.647047 2.414815
v 9.750000 -148.647047 -2.414815
v 19.760000 -148.647047 2.414815
v 19.760000 -148.647047 -2.414815
v 10.182999 -148.582340 1.983272
v 10.182999 -148.582340 -1.983272
v 19.327000 -148.582340 1.983272
v 19.327000 -148.582340 -1.983272
v 9.750000 -147.999998 2.500000
v 9.750000 -147.999998 -2.500000
v 10.182999 -147.999998 2.067000
v 10.182999 -147.999998 -2.067000
v 19.327000 -147.999998 2.067000
v 19.327000 -147.999998 -2.067000
v 19.760000 -147.999998 2.500000
v 19.760000 -147.999998 -2.500000
v 10.182999 -147.417656 1.983272
v 10.182999 -147.417656 -1.983272
v 19.327000 -147.417656 1.983272
v 19.327000 -147.417656 -1.983272
v 9.750000 -147.352949 2.414815
v 9.750000 -147.352949 -2.414815
v 19.760000 -147.352949 2.414815
v 19.760000 -147.352949 -2.414815
v 10.182999 -146.882492 1.738871
v 10.182999 -146.882492 -1.738871
v 19.327000 -146.882492 1.738871
v 19.327000 -146.882492 -1.738871
v 9.750000 -146.749998 2.165063
v 9.750000 -146.749998 -2.165063
v 19.760000 -146.749998 2.165063
v 19.760000 -146.749998 -2.165064
v 10.182999 -146.437870 1.353597
v 10.182999 -146.437870 -1.353597
v 19.327000 -146.437870 1.353597
v 19.327000 -146.437870 -1.353597
v 9.750000 -146.232229 1.767767
v 9.750000 -146.232229 -1.767767
v 19.760000 -146.232229 1.767767
v 19.760000 -146.232229 -1.767767
v 10.182999 -146.119791 0.858663
v 10.182999 -146.119791 -0.858663
v 19.327000 -146.119791 0.858663
v 19.327000 -146.119791 -0.858663
v 10.182999 -145.954042 0.294165
v 10.182999 -145.954042 -0.294165
v 19.327000 -145.954042 0.294164
v 19.327000 -145.954042 -0.294165
v 9.750000 -145.834938 1.250000
v 9.750000 -145.834938 -1.250000
v 19.760000 -145.834938 1.250000
v 19.760000 -145.834938 -1.250000
v 9.750000 -145.585190 0.647048
v 9.750000 -145.585190 -0.647048
v 19.760000 -145.585190 0.647047
v 19.760000 -145.585190 -0.647048
v 9.750000 -145.499998 0.000000
v 19.760000 -145.499998 0.000000
v 9.750000 -138.500000 0.000000
v 19.760000 -138.500000 0.000000
v 9.750000 -138.414818 0.647048
v 9.750000 -138.414818 -0.647048
v 19.760000 -138.414818 0.647048
v 19.760000 -138.414818 -0.647047
v 9.750000 -138.165060 1.250000
v 9.750000 -138.165060 -1.250000
v 19.760000 -138.165060 1.250000
v 19.760000 -138.165060 -1.250000
v 10.182999 -138.045965 0.294165
v 10.182999 -138.045965 -0.294165
v 19.327000 -138.045965 0.294165
v 19.327000 -138.045965 -0.294164
v 10.182999 -137.880207 0.858663
v 10.182999 -137.880207 -0.858663
v 19.327000 -137.880207 0.858663
v 19.327000 -137.880207 -0.858663
v 9.750000 -137.767769 1.767767
v 9.750000 -137.767769 -1.767767
v 19.760000 -137.767769 1.767767
v 19.760000 -137.767769 -1.767767
v 10.182999 -137.562138 1.353597
v 10.182999 -137.562138 -1.353597
v 19.327000 -137.562138 1.353597
v 19.327000 -137.562138 -1.353597
v 9.750000 -137.250000 2.165063
v 9.750000 -137.250000 -2.165063
v 19.760000 -137.250000 2.165064
v 19.760000 -137.250000 -2.165063
v 10.182999 -137.117506 1.738871
v 10.182999 -137.117506 -1.738871
v 19.327000 -137.117506 1.738871
v 19.327000 -137.117506 -1.738871
v 9.750000 -136.647049 2.414815
v 9.750000 -136.647049 -2.414815
v 19.760000 -136.647049 2.414815
v 19.760000 -136.647049 -2.414815
v 10.182999 -136.582342 1.983272
v 10.182999 -136.582342 -1.983272
v 19.327000 -136.582342 1.983272
v 19.327000 -136.582342 -1.983272
v 9.750000 -136.000000 2.500000
v 9.750000 -136.000000 -2.500000
v 10.182999 -136.000000 2.067000
v 10.182999 -136.000000 -2.067000
v 19.327000 -136.000000 2.067000
v 19.327000 -136.000000 -2.067000
v 19.760000 -136.000000 2.500000
v 19.760000 -136.000000 -2.500000
v 10.182999 -135.417658 1.983272
v 10.182999 -135.417658 -1.983272
v 19.327000 -135.417658 1.983272
v 19.327000 -135.417658 -1.983272
v 9.750000 -135.352951 2.414815
v 9.750000 -135.352951 -2.414815
v 19.760000 -135.352951 2.414815
v 19.760000 -135.352951 -2.414815
v 10.182999 -134.882494 1.738871
v 10.182999 -134.882494 -1.738871
v 19.327000 -134.882494 1.738871
v 19.327000 -134.882494 -1.738871
v 9.750000 -134.750000 2.165063
v 9.750000 -134.750000 -2.165063
v 19.760000 -134.750000 2.165063
v 19.760000 -134.750000 -2.165064
v 10.182999 -134.437862 1.353597
v 10.182999 -134.437862 -1.353597
v 19.327000 -134.437862 1.353597
v 19.327000 -134.437862 -1.353597
v 9.750000 -134.232231 1.767767
v 9.750000 -134.232231 -1.767767
v 19.760000 -134.232231 1.767767
v 19.760000 -134.232231 -1.767767
v 10.182999 -134.119793 0.858663
v 10.182999 -134.119793 -0.858663
v 19.327000 -134.119793 0.858663
v 19.327000 -134.119793 -0.858663
v 10.182999 -133.954035 0.294165
v 10.182999 -133.954035 -0.294165
v 19.327000 -133.954035 0.294164
v 19.327000 -133.954035 -0.294165
v 9.750000 -133.834940 1.250000
v 9.750000 -133.834940 -1.250000
v 19.760000 -133.834940 1.250000
v 19.760000 -133.834940 -1.250000
v 9.750000 -133.585182 0.647048
v 9.750000 -133.585182 -0.647048
v 19.760000 -133.585182 0.647047
v 19.760000 -133.585182 -0.647048
v 9.750000 -133.500000 0.000000
v 19.760000 -133.500000 0.000000
v 0.110000 -128.900000 6.000000
v 0.110000 -128.900000 -6.000000
v 9.750000 -128.900000 6.000000
v 9.750000 -128.900000 -6.000000
v 19.760000 -128.900000 6.000000
v 19.760000 -128.900000 -6.000000
v 23.910000 -128.900000 6.000000
v 23.910000 -128.900000 -6.000000
v 0.110000 -125.530001 6.000000
v 0.110000 -125.530001 -6.000000
v 23.910000 -125.530001 6.000000
v 23.910000 -125.530001 -6.000000
v 0.110000 -124.799148 6.699441
v 0.110000 -124.799148 -6.699441
v 23.910000 -124.799148 6.699441
v 23.910000 -124.799148 -6.699441
v 0.110000 -124.735690 7.184510
v 0.110000 -124.735690 -7.184510
v 23.910000 -124.735690 7.184510
v 23.910000 -124.735690 -7.184510
v 0.110000 -124.519526 7.623363
v 0.110000 -124.519526 -7.623363
v 23.910000 -124.519526 7.623363
v 23.910000 -124.519526 -7.623363
v 0.110000 -124.173647 7.969322
v 0.110000 -124.173647 -7.969322
v 23.910000 -124.173647 7.969322
v 23.910000 -124.173647 -7.969322
v 0.110000 -123.734842 8.185588
v 0.110000 -123.734842 -8.185588
v 23.910000 -123.734842 8.185588
v 23.910000 -123.734842 -8.185588
v 0.110000 -123.249789 8.249159
v 0.110000 -123.249789 -8.249159
v 23.910000 -123.249789 8.249159
v 23.910000 -123.249789 -8.249159
v 0.110000 -122.770072 8.153274
v 0.110000 -122.770072 -8.153274
v 23.910000 -122.770072 8.153274
v 23.910000 -122.770072 -8.153274
v 0.110000 -122.346726 7.908131
v 0.110000 -122.346726 -7.908131
v 23.910000 -122.346726 7.908131
v 23.910000 -122.346726 -7.908131
v 0.110000 -122.024771 7.539805
v 0.110000 -122.024771 -7.539805
v 23.910000 -122.024771 7.539805
v 23.910000 -122.024771 -7.539805
v 0.110000 -121.838456 7.087471
v 0.110000 -121.838456 -7.087471
v 23.910000 -121.838456 7.087471
v 23.910000 -121.838456 -7.087471
v 0.110000 -121.807595 6.599243
v 0.110000 -121.807595 -6.599243
v 23.910000 -121.807595 6.599243
v 23.910000 -121.807595 -6.599243
v 0.110000 -121.260000 6.000000
v 0.110000 -121.260000 -6.000000
v 23.910000 -121.260000 6.000000
v 23.910000 -121.260000 -6.000000
v 0.110000 -120.941421 6.000000
v 0.110000 -120.941421 -6.000000
v 23.910000 -120.941421 6.000000
v 23.910000 -120.941421 -6.000000
v 0.110000 -120.800000 5.858579
v 0.110000 -120.800000 -5.858579
v 23.910000 -120.800000 5.858579
v 23.910000 -120.800000 -5.858579
vt 0.000000 -0.717383 0.000000
vt 0.000000 -0.657601 0.000000
vt 0.000000 -0.597819 0.000000
vt 0.000000 -0.538037 0.000000
vt 0.000000 -0.478255 0.000000
vt 0.000000 -0.418473 0.000000
vt 0.000000 -0.358691 0.000000
vt 0.000000 -0.298909 0.000000
vt 0.000000 -0.239128 0.000000
vt 0.000000 -0.179346 0.000000
vt 0.000000 -0.119564 0.000000
vt 0.000000 -0.059782 0.000000
vt 0.000000 0.000000 0.000000
vt 0.000000 0.059782 0.000000
vt 0.000000 0.119564 0.000000
vt 0.000000 0.179346 0.000000
vt 0.000000 0.239128 0.000000
vt 0.000000 0.298909 0.000000
vt 0.000000 0.358691 0.000000
vt 0.000000 0.418473 0.000000
vt 0.000000 0.478255 0.000000
vt 0.000000 0.538037 0.000000
vt 0.000000 0.597819 0.000000
vt 0.000000 0.657601 0.000000
vt -0.061235 0.717383 0.000000
vt -0.061235 0.652166 0.000000
vt -0.061235 0.586949 0.000000
vt -0.061235 0.521733 0.000000
vt -0.061235 0.456516 0.000000
vt -0.061235 0.391300 0.000000
vt -0.061235 0.326083 0.000000
vt -0.061235 0.260866 0.000000
vt -0.061235 0.195650 0.000000
vt -0.061235 0.130433 0.000000
vt -0.061235 0.065217 0.000000
vt -0.061235 0.000000 0.000000
vt -0.061235 -0.065217 0.000000
vt -0.061235 -0.130433 0.000000
vt -0.061235 -0.195650 0.000000
vt -0.061235 -0.260866 0.000000
vt -0.061235 -0.326083 0.000000
vt -0.061235 -0.391300 0.000000
vt -0.061235 -0.456516 0.000000
vt -0.061235 -0.521733 0.000000
vt -0.061235 -0.586949 0.000000
vt -0.061235 -0.652166 0.000000
vt 0.000000 0.717383 0.000000
vt -0.061235 -0.717383 0.000000
vt -0.061235 -0.717383 0.000000
vt -0.043300 -0.649367 0.000000
vt -0.043300 -0.590334 0.000000
vt -0.043300 -0.531300 0.000000
vt -0.043300 -0.472267 0.000000
vt -0.043300 -0.413234 0.000000
vt -0.043300 -0.354200 0.000000
vt -0.043300 -0.295167 0.000000
vt -0.043300 -0.236134 0.000000
vt -0.043300 -0.177100 0.000000
vt -0.043300 -0.118067 0.000000
vt -0.043300 -0.059033 0.000000
vt -0.043300 0.000000 0.000000
vt -0.043300 0.059033 0.000000
vt -0.043300 0.118067 0.000000
vt -0.043300 0.177100 0.000000
vt -0.043300 0.236133 0.000000
vt -0.043300 0.295167 0.000000
vt -0.043300 0.354200 0.000000
vt -0.043300 0.413234 0.000000
vt -0.043300 0.472267 0.000000
vt -0.043300 0.531300 0.000000
vt -0.043300 0.590334 0.000000
vt -0.957700 0.000000 0.000000
vt -0.957700 -0.059033 0.000000
vt -0.957700 -0.118067 0.000000
vt -0.957700 -0.177100 0.000000
vt -0.957700 -0.236134 0.000000
vt -0.957700 -0.295167 0.000000
vt -0.957700 -0.354200 0.000000
vt -0.957700 -0.413234 0.000000
vt -0.957700 -0.472267 0.000000
vt -0.957700 -0.531300 0.000000
vt -0.957700 -0.590334 0.000000
vt -0.957700 0.649367 0.000000
vt -0.957700 0.590334 0.000000
vt -0.957700 0.531300 0.000000
vt -0.957700 0.472267 0.000000
vt -0.957700 0.413234 0.000000
vt -0.957700 0.354200 0.000000
vt -0.957700 0.295167 0.000000
vt -0.957700 0.236134 0.000000
vt -0.957700 0.177100 0.000000
vt -0.957700 0.118067 0.000000
vt -0.957700 0.059033 0.000000
vt -0.957700 -0.649367 0.000000
vt -0.043300 0.649367 0.000000
vt -0.043300 0.649367 0.000000
vt -0.957700 -0.649367 0.000000
vt 0.000000 -0.717383 0.000000
vt 0.000000 -0.657601 0.000000
vt 0.000000 -0.597819 0.000000
vt 0.000000 -0.538037 0.000000
vt 0.000000 -0.478255 0.000000
vt 0.000000 -0.418473 0.000000
vt 0.000000 -0.358691 0.000000
vt 0.000000 -0.298909 0.000000
vt 0.000000 -0.239128 0.000000
vt 0.000000 -0.179346 0.000000
vt 0.000000 -0.119564 0.000000
vt 0.000000 -0.059782 0.000000
vt 0.000000 0.000000 0.000000
vt 0.000000 0.059782 0.000000
vt 0.000000 0.119564 0.000000
vt 0.000000 0.179346 0.000000
vt 0.000000 0.239128 0.000000
vt 0.000000 0.298909 0.000000
vt 0.000000 0.358691 0.000000
vt 0.000000 0.418473 0.000000
vt 0.000000 0.478255 0.000000
vt 0.000000 0.538037 0.000000
vt 0.000000 0.597819 0.000000
vt 0.000000 0.657601 0.000000
vt -0.061235 0.717383 0.000000
vt -0.061235 0.652166 0.000000
vt -0.061235 0.586949 0.000000
vt -0.061235 0.521733 0.000000
vt -0.061235 0.456516 0.000000
vt -0.061235 0.391300 0.000000
vt -0.061235 0.326083 0.000000
vt -0.061235 0.260866 0.000000
vt -0.061235 0.195650 0.000000
vt -0.061235 0.130433 0.000000
vt -0.061235 0.065217 0.000000
vt -0.061235 0.000000 0.000000
vt -0.061235 -0.065217 0.000000
vt -0.061235 -0.130433 0.000000
vt -0.061235 -0.195650 0.000000
vt -0.061235 -0.260866 0.000000
vt -0.061235 -0.326083 0.000000
vt -0.061235 -0.391300 0.000000
vt -0.061235 -0.456516 0.000000
vt -0.061235 -0.521733 0.000000
vt -0.061235 -0.586949 0.000000
vt -0.061235 -0.652166 0.000000
vt 0.000000 0.717383 0.000000
vt -0.061235 -0.717383 0.000000
vt -0.061235 -0.717383 0.000000
vt 0.000000 -0.717383 0.000000
vt 0.000000 -0.657601 0.000000
vt 0.000000 -0.597819 0.000000
vt 0.000000 -0.538037 0.000000
vt 0.000000 -0.478255 0.000000
vt 0.000000 -0.418473 0.000000
vt 0.000000 -0.358691 0.000000
vt 0.000000 -0.298909 0.000000
vt 0.000000 -0.239128 0.000000
vt 0.000000 -0.179346 0.000000
vt 0.000000 -0.119564 0.000000
vt 0.000000 -0.059782 0.000000
vt 0.000000 0.000000 0.000000
vt 0.000000 0.059782 0.000000
vt 0.000000 0.119564 0.000000
vt 0.000000 0.179346 0.000000
vt 0.000000 0.239128 0.000000
vt 0.000000 0.298909 0.000000
vt 0.000000 0.358691 0.000000
vt 0.000000 0.418473 0.000000
vt 0.000000 0.478255 0.000000
vt 0.000000 0.538037 0.000000
vt 0.000000 0.597819 0.000000
vt 0.000000 0.657601 0.000000
vt -0.061235 0.717383 0.000000
vt -0.061235 0.652166 0.000000
vt -0.061235 0.586949 0.000000
vt -0.061235 0.521733 0.000000
vt -0.061235 0.456516 0.000000
vt -0.061235 0.391300 0.000000
vt -0.061235 0.326083 0.000000
vt -0.061235 0.260866 0.000000
vt -0.061235 0.195650 0.000000
vt -0.061235 0.130433 0.000000
vt -0.061235 0.065217 0.000000
vt -0.061235 0.000000 0.000000
vt -0.061235 -0.065217 0.000000
vt -0.061235 -0.130433 0.000000
vt -0.061235 -0.195650 0.000000
vt -0.061235 -0.260866 0.000000
vt -0.061235 -0.326083 0.000000
vt -0.061235 -0.391300 0.000000
vt -0.061235 -0.456516 0.000000
vt -0.061235 -0.521733 0.000000
vt -0.061235 -0.586949 0.000000
vt -0.061235 -0.652166 0.000000
vt 0.000000 0.717383 0.000000
vt -0.061235 -0.717383 0.000000
vt -0.061235 -0.717383 0.000000
vt -0.043300 -0.649367 0.000000
vt -0.043300 -0.590334 0.000000
vt -0.043300 -0.531300 0.000000
vt -0.043300 -0.472267 0.000000
vt -0.043300 -0.413234 0.000000
vt -0.043300 -0.354200 0.000000
vt -0.043300 -0.295167 0.000000
vt -0.043300 -0.236134 0.000000
vt -0.043300 -0.177100 0.000000
vt -0.043300 -0.118067 0.000000
vt -0.043300 -0.059033 0.000000
vt -0.043300 0.000000 0.000000
vt -0.043300 0.059033 0.000000
vt -0.043300 0.118067 0.000000
vt -0.043300 0.177100 0.000000
vt -0.043300 0.236133 0.000000
vt -0.043300 0.295167 0.000000
vt -0.043300 0.354200 0.000000
vt -0.043300 0.413234 0.000000
vt -0.043300 0.472267 0.000000
vt -0.043300 0.531300 0.000000
vt -0.043300 0.590334 0.000000
vt -0.957700 0.000000 0.000000
vt -0.957700 -0.059033 0.000000
vt -0.957700 -0.118067 0.000000
vt -0.957700 -0.177100 0.000000
vt -0.957700 -0.236134 0.000000
vt -0.957700 -0.295167 0.000000
vt -0.957700 -0.354200 0.000000
vt -0.957700 -0.413234 0.000000
vt -0.957700 -0.472267 0.000000
vt -0.957700 -0.531300 0.000000
vt -0.957700 -0.590334 0.000000
vt -0.957700 0.649367 0.000000
vt -0.957700 0.590334 0.000000
vt -0.957700 0.531300 0.000000
vt -0.957700 0.472267 0.000000
vt -0.957700 0.413234 0.000000
vt -0.957700 0.354200 0.000000
vt -0.957700 0.295167 0.000000
vt -0.957700 0.236134 0.000000
vt -0.957700 0.177100 0.000000
vt -0.957700 0.118067 0.000000
vt -0.957700 0.059033 0.000000
vt -0.957700 -0.649367 0.000000
vt -0.043300 0.649367 0.000000
vt -0.043300 0.649367 0.000000
vt -0.957700 -0.649367 0.000000
vt 0.000000 -0.717383 0.000000
vt 0.000000 -0.657601 0.000000
vt 0.000000 -0.597819 0.000000
vt 0.000000 -0.538037 0.000000
vt 0.000000 -0.478255 0.000000
vt 0.000000 -0.418473 0.000000
vt 0.000000 -0.358691 0.000000
vt 0.000000 -0.298909 0.000000
vt 0.000000 -0.239128 0.000000
vt 0.000000 -0.179346 0.000000
vt 0.000000 -0.119564 0.000000
vt 0.000000 -0.059782 0.000000
vt 0.000000 0.000000 0.000000
vt 0.000000 0.059782 0.000000
vt 0.000000 0.119564 0.000000
vt 0.000000 0.179346 0.000000
vt 0.000000 0.239128 0.000000
vt 0.000000 0.298909 0.000000
vt 0.000000 0.358691 0.000000
vt 0.000000 0.418473 0.000000
vt 0.000000 0.478255 0.000000
vt 0.000000 0.538037 0.000000
vt 0.000000 0.597819 0.000000
vt 0.000000 0.657601 0.000000
vt -0.061235 0.717383 0.000000
vt -0.061235 0.652166 0.000000
vt -0.061235 0.586949 0.000000
vt -0.061235 0.521733 0.000000
vt -0.061235 0.456516 0.000000
vt -0.061235 0.391300 0.000000
vt -0.061235 0.326083 0.000000
vt -0.061235 0.260866 0.000000
vt -0.061235 0.195650 0.000000
vt -0.061235 0.130433 0.000000
vt -0.061235 0.065217 0.000000
vt -0.061235 0.000000 0.000000
vt -0.061235 -0.065217 0.000000
vt -0.061235 -0.130433 0.000000
vt -0.061235 -0.195650 0.000000
vt -0.061235 -0.260866 0.000000
vt -0.061235 -0.326083 0.000000
vt -0.061235 -0.391300 0.000000
vt -0.061235 -0.456516 0.000000
vt -0.061235 -0.521733 0.000000
vt -0.061235 -0.586949 0.000000
vt -0.061235 -0.652166 0.000000
vt 0.000000 0.717383 0.000000
vt -0.061235 -0.717383 0.000000
vt -0.061235 -0.717383 0.000000
vt -0.000000 -0.245698 0.000000
vt -0.000000 -0.196559 0.000000
vt -0.000000 -0.147419 0.000000
vt -0.000000 -0.098279 0.000000
vt -0.000000 -0.049140 0.000000
vt -0.000000 0.000000 0.000000
vt -0.000000 0.049140 0.000000
vt -0.000000 0.098279 0.000000
vt -0.000000 0.147419 0.000000
vt -0.000000 0.196559 0.000000
vt -0.000000 0.245699 0.000000
vt -2.380000 0.245699 0.000000
vt -2.380000 0.196559 0.000000
vt -2.380000 0.147419 0.000000
vt -2.380000 0.098279 0.000000
vt -2.380000 0.049140 0.000000
vt -2.380000 0.000000 0.000000
vt -2.380000 -0.049140 0.000000
vt -2.380000 -0.098279 0.000000
vt -2.380000 -0.147419 0.000000
vt -2.380000 -0.196559 0.000000
vt -2.380000 -0.245698 0.000000
vt -0.000000 -0.245699 0.000000
vt -0.000000 -0.196559 0.000000
vt -0.000000 -0.147419 0.000000
vt -0.000000 -0.098279 0.000000
vt -0.000000 -0.049140 0.000000
vt -0.000000 0.000000 0.000000
vt -0.000000 0.049140 0.000000
vt -0.000000 0.098279 0.000000
vt -0.000000 0.147419 0.000000
vt -0.000000 0.196559 0.000000
vt -0.000000 0.245699 0.000000
vt -2.380000 0.245699 0.000000
vt -2.380000 0.196559 0.000000
vt -2.380000 0.147419 0.000000
vt -2.380000 0.098279 0.000000
vt -2.380000 0.049140 0.000000
vt -2.380000 0.000000 0.000000
vt -2.380000 -0.049140 0.000000
vt -2.380000 -0.098279 0.000000
vt -2.380000 -0.147419 0.000000
vt -2.380000 -0.196559 0.000000
vt -2.380000 -0.245699 0.000000
vt 0.964000 0.000000 0.000000
vt 0.964000 1.200000 0.000000
vt 0.000000 1.200000 0.000000
vt 0.000000 0.000000 0.000000
vt 1.965000 0.000000 0.000000
vt 1.965000 2.495858 0.000000
vt 2.380000 2.495858 0.000000
vt 2.380000 2.832858 0.000000
vt 0.000000 2.832858 0.000000
vt 0.000000 2.495858 0.000000
vt 0.964000 2.495858 0.000000
vt 0.964000 0.000000 0.000000
vt 0.415000 1.200000 0.000000
vt 0.000000 1.200000 0.000000
vt 0.000000 0.000000 0.000000
vt 0.415000 0.000000 0.000000
vt 2.380000 0.337000 0.000000
vt 1.965000 0.337000 0.000000
vt 1.965000 2.832858 0.000000
vt 0.964000 2.832858 0.000000
vt 0.964000 0.337000 0.000000
vt 0.000000 0.337000 0.000000
vt 0.000000 0.000000 0.000000
vt 2.380000 0.000000 0.000000
vt 0.000000 0.101161 0.000000
vt 0.000000 0.000000 0.000000
vt 2.380000 0.000000 0.000000
vt 2.380000 0.101161 0.000000
vt 0.000000 0.081176 0.000000
vt 0.000000 0.000000 0.000000
vt 2.380000 0.000000 0.000000
vt 2.380000 0.081176 0.000000
vt 0.000000 0.031858 0.000000
vt 0.000000 0.000000 0.000000
vt 2.380000 0.000000 0.000000
vt 2.380000 0.031858 0.000000
vt 0.000000 0.020000 0.000000
vt 0.000000 0.000000 0.000000
vt 2.380000 0.000000 0.000000
vt 2.380000 0.020000 0.000000
vt 0.000000 1.171716 0.000000
vt 0.000000 0.000000 0.000000
vt 2.380000 0.000000 0.000000
vt 2.380000 1.171716 0.000000
vt 0.000000 0.020000 0.000000
vt 0.000000 0.000000 0.000000
vt 2.380000 0.000000 0.000000
vt 2.380000 0.020000 0.000000
vt 0.000000 0.031858 0.000000
vt 0.000000 0.000000 0.000000
vt 2.380000 0.000000 0.000000
vt 2.380000 0.031858 0.000000
vt 0.000000 0.081176 0.000000
vt 0.000000 0.000000 0.000000
vt 2.380000 0.000000 0.000000
vt 2.380000 0.081176 0.000000
vt 0.000000 0.101161 0.000000
vt 0.000000 0.000000 0.000000
vt 2.380000 0.000000 0.000000
vt 2.380000 0.101161 0.000000
vt 0.226232 0.337000 0.000000
vt 0.226232 0.000000 0.000000
vt 1.426232 0.000000 0.000000
vt 1.426232 0.337000 0.000000
vt 1.496176 0.410085 0.000000
vt 1.544683 0.416431 0.000000
vt 1.588568 0.438048 0.000000
vt 1.623164 0.472636 0.000000
vt 1.644791 0.516516 0.000000
vt 1.651148 0.565021 0.000000
vt 1.641559 0.612993 0.000000
vt 1.617045 0.655327 0.000000
vt 1.580212 0.687523 0.000000
vt 1.534979 0.706155 0.000000
vt 1.486156 0.709240 0.000000
vt 1.426232 0.764000 0.000000
vt 1.426232 0.795858 0.000000
vt 1.412090 0.810000 0.000000
vt 0.240374 0.810000 0.000000
vt 0.226232 0.795858 0.000000
vt 0.226232 0.764000 0.000000
vt 0.166307 0.709240 0.000000
vt 0.117485 0.706155 0.000000
vt 0.072251 0.687523 0.000000
vt 0.035419 0.655327 0.000000
vt 0.010904 0.612993 0.000000
vt 0.001316 0.565021 0.000000
vt 0.007673 0.516516 0.000000
vt 0.029300 0.472636 0.000000
vt 0.063895 0.438048 0.000000
vt 0.107781 0.416431 0.000000
vt 0.156288 0.410085 0.000000
vt 0.000000 0.226153 0.000000
vt 0.337000 0.226153 0.000000
vt 0.410085 0.156209 0.000000
vt 0.416431 0.107702 0.000000
vt 0.438048 0.063817 0.000000
vt 0.472636 0.029221 0.000000
vt 0.516516 0.007594 0.000000
vt 0.565021 0.001237 0.000000
vt 0.612993 0.010826 0.000000
vt 0.655327 0.035340 0.000000
vt 0.687523 0.072173 0.000000
vt 0.706155 0.117406 0.000000
vt 0.709240 0.166229 0.000000
vt 0.764000 0.226153 0.000000
vt 0.795858 0.226153 0.000000
vt 0.810000 0.240295 0.000000
vt 0.810000 1.412011 0.000000
vt 0.795858 1.426153 0.000000
vt 0.764000 1.426153 0.000000
vt 0.709240 1.486078 0.000000
vt 0.706155 1.534900 0.000000
vt 0.687523 1.580134 0.000000
vt 0.655327 1.616966 0.000000
vt 0.612993 1.641481 0.000000
vt 0.565021 1.651069 0.000000
vt 0.516516 1.644712 0.000000
vt 0.472636 1.623085 0.000000
vt 0.438048 1.588489 0.000000
vt 0.416431 1.544604 0.000000
vt 0.410085 1.496097 0.000000
vt 0.337000 1.426153 0.000000
vt 0.000000 1.426153 0.000000
vt 1.200000 2.510000 0.000000
vt 0.000000 2.510000 0.000000
vt 0.000000 0.014142 0.000000
vt 0.014142 0.000000 0.000000
vt 1.185858 0.000000 0.000000
vt 1.200000 0.014142 0.000000
vt 0.850000 0.600000 0.000000
vt 0.841482 0.535295 0.000000
vt 0.816506 0.475000 0.000000
vt 0.776777 0.423223 0.000000
vt 0.725000 0.383494 0.000000
vt 0.664705 0.358519 0.000000
vt 0.600000 0.350000 0.000000
vt 0.535295 0.358519 0.000000
vt 0.475000 0.383494 0.000000
vt 0.423223 0.423223 0.000000
vt 0.383494 0.475000 0.000000
vt 0.358519 0.535295 0.000000
vt 0.350000 0.600000 0.000000
vt 0.358519 0.664705 0.000000
vt 0.383494 0.725000 0.000000
vt 0.423223 0.776777 0.000000
vt 0.475000 0.816506 0.000000
vt 0.535295 0.841482 0.000000
vt 0.600000 0.850000 0.000000
vt 0.664705 0.841482 0.000000
vt 0.725000 0.816506 0.000000
vt 0.776777 0.776777 0.000000
vt 0.816506 0.725000 0.000000
vt 0.841482 0.664705 0.000000
vt 0.850000 1.800000 0.000000
vt 0.841482 1.735295 0.000000
vt 0.816506 1.675000 0.000000
vt 0.776777 1.623223 0.000000
vt 0.725000 1.583494 0.000000
vt 0.664705 1.558519 0.000000
vt 0.600000 1.550000 0.000000
vt 0.535295 1.558519 0.000000
vt 0.475000 1.583494 0.000000
vt 0.423223 1.623223 0.000000
vt 0.383494 1.675000 0.000000
vt 0.358519 1.735295 0.000000
vt 0.350000 1.800000 0.000000
vt 0.358519 1.864705 0.000000
vt 0.383494 1.925000 0.000000
vt 0.423223 1.976777 0.000000
vt 0.475000 2.016506 0.000000
vt 0.535295 2.041481 0.000000
vt 0.600000 2.050000 0.000000
vt 0.664705 2.041481 0.000000
vt 0.725000 2.016506 0.000000
vt 0.776777 1.976777 0.000000
vt 0.816506 1.925000 0.000000
vt 0.841482 1.864705 0.000000
vt 0.014142 0.000000 0.000000
vt 2.510000 0.000000 0.000000
vt 2.510000 1.200000 0.000000
vt 0.014142 1.200000 0.000000
vt 0.000000 1.185858 0.000000
vt 0.000000 0.014142 0.000000
vt 0.600000 0.350000 0.000000
vt 0.535295 0.358519 0.000000
vt 0.475000 0.383494 0.000000
vt 0.423223 0.423223 0.000000
vt 0.383494 0.475000 0.000000
vt 0.358519 0.535295 0.000000
vt 0.350000 0.600000 0.000000
vt 0.358519 0.664705 0.000000
vt 0.383494 0.725000 0.000000
vt 0.423223 0.776777 0.000000
vt 0.475000 0.816506 0.000000
vt 0.535295 0.841482 0.000000
vt 0.600000 0.850000 0.000000
vt 0.664705 0.841482 0.000000
vt 0.725000 0.816506 0.000000
vt 0.776777 0.776777 0.000000
vt 0.816506 0.725000 0.000000
vt 0.841482 0.664705 0.000000
vt 0.850000 0.600000 0.000000
vt 0.841482 0.535295 0.000000
vt 0.816506 0.475000 0.000000
vt 0.776777 0.423223 0.000000
vt 0.725000 0.383494 0.000000
vt 0.664705 0.358519 0.000000
vt 1.800000 0.350000 0.000000
vt 1.735295 0.358519 0.000000
vt 1.675000 0.383494 0.000000
vt 1.623223 0.423223 0.000000
vt 1.583494 0.475000 0.000000
vt 1.558519 0.535295 0.000000
vt 1.550000 0.600000 0.000000
vt 1.558519 0.664705 0.000000
vt 1.583494 0.725000 0.000000
vt 1.623223 0.776777 0.000000
vt 1.675000 0.816506 0.000000
vt 1.735295 0.841482 0.000000
vt 1.800000 0.850000 0.000000
vt 1.864705 0.841482 0.000000
vt 1.925000 0.816506 0.000000
vt 1.976777 0.776777 0.000000
vt 2.016506 0.725000 0.000000
vt 2.041481 0.664705 0.000000
vt 2.050000 0.600000 0.000000
vt 2.041481 0.535295 0.000000
vt 2.016506 0.475000 0.000000
vt 1.976777 0.423223 0.000000
vt 1.925000 0.383494 0.000000
vt 1.864705 0.358519 0.000000
vt 0.000000 0.020000 0.000000
vt 0.000000 0.000000 0.000000
vt 1.001000 0.000000 0.000000
vt 1.001000 0.020000 0.000000
vt 0.000000 1.171716 0.000000
vt 0.000000 0.000000 0.000000
vt 1.001000 0.000000 0.000000
vt 1.001000 1.171716 0.000000
vt 0.000000 0.020000 0.000000
vt 0.000000 0.000000 0.000000
vt 1.001000 0.000000 0.000000
vt 1.001000 0.020000 0.000000
vn 0.070711 0.000000 0.070711
vn 0.070711 -0.018301 0.068301
vn 0.070711 -0.035355 0.061237
vn 0.070711 -0.050000 0.050000
vn 0.070711 -0.061237 0.035355
vn 0.070711 -0.068301 0.018301
vn 0.070711 -0.070711 -0.000000
vn 0.070711 -0.068301 -0.018301
vn 0.070711 -0.061237 -0.035355
vn 0.070711 -0.050000 -0.050000
vn 0.070711 -0.035355 -0.061237
vn 0.070711 -0.018301 -0.068301
vn 0.070711 0.000000 -0.070711
vn 0.070711 0.018301 -0.068301
vn 0.070711 0.035355 -0.061237
vn 0.070711 0.050000 -0.050000
vn 0.070711 0.061237 -0.035355
vn 0.070711 0.068301 -0.018301
vn 0.070711 0.070711 0.000000
vn 0.070711 0.068301 0.018301
vn 0.070711 0.061237 0.035355
vn 0.070711 0.050000 0.050000
vn 0.070711 0.035355 0.061237
vn 0.070711 0.018301 0.068301
vn 0.070711 0.000000 0.070711
vn 0.070711 0.019922 0.067846
vn 0.070711 0.038229 0.059486
vn 0.070711 0.053440 0.046306
vn 0.070711 0.064321 0.029374
vn 0.070711 0.069991 0.010063
vn 0.070711 0.069991 -0.010063
vn 0.070711 0.064321 -0.029374
vn 0.070711 0.053440 -0.046306
vn 0.070711 0.038229 -0.059486
vn 0.070711 0.019921 -0.067846
vn 0.070711 0.000000 -0.070711
vn 0.070711 -0.019922 -0.067846
vn 0.070711 -0.038229 -0.059486
vn 0.070711 -0.053440 -0.046306
vn 0.070711 -0.064321 -0.029374
vn 0.070711 -0.069991 -0.010063
vn 0.070711 -0.069991 0.010063
vn 0.070711 -0.064321 0.029374
vn 0.070711 -0.053440 0.046306
vn 0.070711 -0.038229 0.059486
vn 0.070711 -0.019921 0.067846
vn 0.070711 0.000000 0.070711
vn 0.070711 0.000000 0.070711
vn 0.070711 0.000000 0.070711
vn 0.000000 -0.000000 0.100000
vn 0.000000 -0.028173 0.095949
vn 0.000000 -0.054064 0.084125
vn 0.000000 -0.075575 0.065486
vn 0.000000 -0.090963 0.041542
vn 0.000000 -0.098982 0.014231
vn 0.000000 -0.098982 -0.014231
vn 0.000000 -0.090963 -0.041541
vn 0.000000 -0.075575 -0.065486
vn 0.000000 -0.054064 -0.084125
vn 0.000000 -0.028173 -0.095949
vn -0.000000 0.000000 -0.100000
vn -0.000000 0.028173 -0.095949
vn -0.000000 0.054064 -0.084125
vn -0.000000 0.075575 -0.065486
vn -0.000000 0.090963 -0.041542
vn -0.000000 0.098982 -0.014231
vn -0.000000 0.098982 0.014231
vn -0.000000 0.090963 0.041541
vn -0.000000 0.075575 0.065486
vn -0.000000 0.054064 0.084125
vn -0.000000 0.028173 0.095949
vn -0.000000 0.000000 -0.100000
vn 0.000000 -0.028173 -0.095949
vn 0.000000 -0.054064 -0.084125
vn 0.000000 -0.075575 -0.065486
vn 0.000000 -0.090963 -0.041542
vn 0.000000 -0.098982 -0.014231
vn 0.000000 -0.098982 0.014231
vn 0.000000 -0.090963 0.041542
vn 0.000000 -0.075575 0.065486
vn 0.000000 -0.054064 0.084125
vn 0.000000 -0.028173 0.095949
vn 0.000000 -0.000000 0.100000
vn -0.000000 0.028173 0.095949
vn -0.000000 0.054064 0.084125
vn -0.000000 0.075575 0.065486
vn -0.000000 0.090963 0.041542
vn -0.000000 0.098982 0.014231
vn -0.000000 0.098982 -0.014231
vn -0.000000 0.090963 -0.041542
vn -0.000000 0.075575 -0.065486
vn -0.000000 0.054064 -0.084125
vn -0.000000 0.028173 -0.095949
vn 0.000000 -0.000000 0.100000
vn 0.000000 -0.000000 0.100000
vn 0.000000 -0.000000 0.100000
vn 0.000000 -0.000000 0.100000
vn -0.070711 -0.000000 -0.070711
vn -0.070711 -0.018301 -0.068301
vn -0.070711 -0.035355 -0.061237
vn -0.070711 -0.050000 -0.050000
vn -0.070711 -0.061237 -0.035355
vn -0.070711 -0.068301 -0.018301
vn -0.070711 -0.070711 -0.000000
vn -0.070711 -0.068301 0.018301
vn -0.070711 -0.061237 0.035355
vn -0.070711 -0.050000 0.050000
vn -0.070711 -0.035355 0.061237
vn -0.070711 -0.018301 0.068301
vn -0.070711 -0.000000 0.070711
vn -0.070711 0.018301 0.068301
vn -0.070711 0.035355 0.061237
vn -0.070711 0.050000 0.050000
vn -0.070711 0.061237 0.035355
vn -0.070711 0.068301 0.018301
vn -0.070711 0.070711 0.000000
vn -0.070711 0.068301 -0.018301
vn -0.070711 0.061237 -0.035355
vn -0.070711 0.050000 -0.050000
vn -0.070711 0.035355 -0.061237
vn -0.070711 0.018301 -0.068301
vn -0.070711 -0.000000 -0.070711
vn -0.070711 0.019921 -0.067846
vn -0.070711 0.038229 -0.059486
vn -0.070711 0.053440 -0.046306
vn -0.070711 0.064321 -0.029374
vn -0.070711 0.069991 -0.010063
vn -0.070711 0.069991 0.010063
vn -0.070711 0.064321 0.029374
vn -0.070711 0.053440 0.046306
vn -0.070711 0.038229 0.059486
vn -0.070711 0.019921 0.067846
vn -0.070711 -0.000000 0.070711
vn -0.070711 -0.019921 0.067846
vn -0.070711 -0.038229 0.059486
vn -0.070711 -0.053440 0.046306
vn -0.070711 -0.064321 0.029374
vn -0.070711 -0.069991 0.010063
vn -0.070711 -0.069991 -0.010063
vn -0.070711 -0.064321 -0.029374
vn -0.070711 -0.053440 -0.046306
vn -0.070711 -0.038229 -0.059486
vn -0.070711 -0.019921 -0.067846
vn -0.070711 -0.000000 -0.070711
vn -0.070711 -0.000000 -0.070711
vn -0.070711 -0.000000 -0.070711
vn 0.070711 0.000000 0.070711
vn 0.070711 -0.018301 0.068301
vn 0.070711 -0.035355 0.061237
vn 0.070711 -0.050000 0.050000
vn 0.070711 -0.061237 0.035355
vn 0.070711 -0.068301 0.018301
vn 0.070711 -0.070711 -0.000000
vn 0.070711 -0.068301 -0.018301
vn 0.070711 -0.061237 -0.035355
vn 0.070711 -0.050000 -0.050000
vn 0.070711 -0.035355 -0.061237
vn 0.070711 -0.018301 -0.068301
vn 0.070711 0.000000 -0.070711
vn 0.070711 0.018301 -0.068301
vn 0.070711 0.035355 -0.061237
vn 0.070711 0.050000 -0.050000
vn 0.070711 0.061237 -0.035355
vn 0.070711 0.068301 -0.018301
vn 0.070711 0.070711 0.000000
vn 0.070711 0.068301 0.018301
vn 0.070711 0.061237 0.035355
vn 0.070711 0.050000 0.050000
vn 0.070711 0.035355 0.061237
vn 0.070711 0.018301 0.068301
vn 0.070711 0.000000 0.070711
vn 0.070711 0.019922 0.067846
vn 0.070711 0.038229 0.059486
vn 0.070711 0.053440 0.046306
vn 0.070711 0.064321 0.029374
vn 0.070711 0.069991 0.010063
vn 0.070711 0.069991 -0.010063
vn 0.070711 0.064321 -0.029374
vn 0.070711 0.053440 -0.046306
vn 0.070711 0.038229 -0.059486
vn 0.070711 0.019921 -0.067846
vn 0.070711 0.000000 -0.070711
vn 0.070711 -0.019922 -0.067846
vn 0.070711 -0.038229 -0.059486
vn 0.070711 -0.053440 -0.046306
vn 0.070711 -0.064321 -0.029374
vn 0.070711 -0.069991 -0.010063
vn 0.070711 -0.069991 0.010063
vn 0.070711 -0.064321 0.029374
vn 0.070711 -0.053440 0.046306
vn 0.070711 -0.038229 0.059486
vn 0.070711 -0.019921 0.067846
vn 0.070711 0.000000 0.070711
vn 0.070711 0.000000 0.070711
vn 0.070711 0.000000 0.070711
vn 0.000000 -0.000000 0.100000
vn 0.000000 -0.028173 0.095949
vn 0.000000 -0.054064 0.084125
vn 0.000000 -0.075575 0.065486
vn 0.000000 -0.090963 0.041542
vn 0.000000 -0.098982 0.014231
vn 0.000000 -0.098982 -0.014231
vn 0.000000 -0.090963 -0.041541
vn 0.000000 -0.075575 -0.065486
vn 0.000000 -0.054064 -0.084125
vn 0.000000 -0.028173 -0.095949
vn -0.000000 0.000000 -0.100000
vn -0.000000 0.028173 -0.095949
vn -0.000000 0.054064 -0.084125
vn -0.000000 0.075575 -0.065486
vn -0.000000 0.090963 -0.041542
vn -0.000000 0.098982 -0.014231
vn -0.000000 0.098982 0.014231
vn -0.000000 0.090963 0.041541
vn -0.000000 0.075575 0.065486
vn -0.000000 0.054064 0.084125
vn -0.000000 0.028173 0.095949
vn -0.000000 0.000000 -0.100000
vn 0.000000 -0.028173 -0.095949
vn 0.000000 -0.054064 -0.084125
vn 0.000000 -0.075575 -0.065486
vn 0.000000 -0.090963 -0.041542
vn 0.000000 -0.098982 -0.014231
vn 0.000000 -0.098982 0.014231
vn 0.000000 -0.090963 0.041542
vn 0.000000 -0.075575 0.065486
vn 0.000000 -0.054064 0.084125
vn 0.000000 -0.028173 0.095949
vn 0.000000 -0.000000 0.100000
vn -0.000000 0.028173 0.095949
vn -0.000000 0.054064 0.084125
vn -0.000000 0.075575 0.065486
vn -0.000000 0.090963 0.041542
vn -0.000000 0.098982 0.014231
vn -0.000000 0.098982 -0.014231
vn -0.000000 0.090963 -0.041542
vn -0.000000 0.075575 -0.065486
vn -0.000000 0.054064 -0.084125
vn -0.000000 0.028173 -0.095949
vn 0.000000 -0.000000 0.100000
vn 0.000000 -0.000000 0.100000
vn 0.000000 -0.000000 0.100000
vn 0.000000 -0.000000 0.100000
vn -0.070711 -0.000000 -0.070711
vn -0.070711 -0.018301 -0.068301
vn -0.070711 -0.035355 -0.061237
vn -0.070711 -0.050000 -0.050000
vn -0.070711 -0.061237 -0.035355
vn -0.070711 -0.068301 -0.018301
vn -0.070711 -0.070711 -0.000000
vn -0.070711 -0.068301 0.018301
vn -0.070711 -0.061237 0.035355
vn -0.070711 -0.050000 0.050000
vn -0.070711 -0.035355 0.061237
vn -0.070711 -0.018301 0.068301
vn -0.070711 -0.000000 0.070711
vn -0.070711 0.018301 0.068301
vn -0.070711 0.035355 0.061237
vn -0.070711 0.050000 0.050000
vn -0.070711 0.061237 0.035355
vn -0.070711 0.068301 0.018301
vn -0.070711 0.070711 0.000000
vn -0.070711 0.068301 -0.018301
vn -0.070711 0.061237 -0.035355
vn -0.070711 0.050000 -0.050000
vn -0.070711 0.035355 -0.061237
vn -0.070711 0.018301 -0.068301
vn -0.070711 -0.000000 -0.070711
vn -0.070711 0.019921 -0.067846
vn -0.070711 0.038229 -0.059486
vn -0.070711 0.053440 -0.046306
vn -0.070711 0.064321 -0.029374
vn -0.070711 0.069991 -0.010063
vn -0.070711 0.069991 0.010063
vn -0.070711 0.064321 0.029374
vn -0.070711 0.053440 0.046306
vn -0.070711 0.038229 0.059486
vn -0.070711 0.019921 0.067846
vn -0.070711 -0.000000 0.070711
vn -0.070711 -0.019921 0.067846
vn -0.070711 -0.038229 0.059486
vn -0.070711 -0.053440 0.046306
vn -0.070711 -0.064321 0.029374
vn -0.070711 -0.069991 0.010063
vn -0.070711 -0.069991 -0.010063
vn -0.070711 -0.064321 -0.029374
vn -0.070711 -0.053440 -0.046306
vn -0.070711 -0.038229 -0.059486
vn -0.070711 -0.019921 -0.067846
vn -0.070711 -0.000000 -0.070711
vn -0.070711 -0.000000 -0.070711
vn -0.070711 -0.000000 -0.070711
vn 0.000000 -0.099943 -0.003371
vn 0.000000 -0.095713 0.028967
vn 0.000000 -0.081302 0.058224
vn 0.000000 -0.058243 0.081288
vn 0.000000 -0.028989 0.095706
vn -0.000000 0.003347 0.099944
vn -0.000000 0.035328 0.093552
vn -0.000000 0.063552 0.077209
vn -0.000000 0.085015 0.052654
vn -0.000000 0.097436 0.022498
vn -0.000000 0.099494 -0.010050
vn -0.000000 0.099494 -0.010050
vn -0.000000 0.097436 0.022498
vn -0.000000 0.085015 0.052654
vn -0.000000 0.063552 0.077209
vn -0.000000 0.035328 0.093552
vn -0.000000 0.003347 0.099944
vn 0.000000 -0.028989 0.095706
vn 0.000000 -0.058243 0.081288
vn 0.000000 -0.081302 0.058224
vn 0.000000 -0.095713 0.028967
vn 0.000000 -0.099943 -0.003371
vn -0.000000 0.099494 0.010050
vn -0.000000 0.097436 -0.022498
vn -0.000000 0.085015 -0.052654
vn -0.000000 0.063552 -0.077209
vn -0.000000 0.035328 -0.093552
vn -0.000000 0.003347 -0.099944
vn 0.000000 -0.028989 -0.095706
vn 0.000000 -0.058243 -0.081288
vn 0.000000 -0.081302 -0.058224
vn 0.000000 -0.095713 -0.028967
vn 0.000000 -0.099943 0.003371
vn 0.000000 -0.099943 0.003371
vn 0.000000 -0.095713 -0.028967
vn 0.000000 -0.081302 -0.058224
vn 0.000000 -0.058243 -0.081288
vn 0.000000 -0.028989 -0.095706
vn -0.000000 0.003347 -0.099944
vn -0.000000 0.035328 -0.093552
vn -0.000000 0.063552 -0.077209
vn -0.000000 0.085015 -0.052654
vn -0.000000 0.097436 -0.022498
vn -0.000000 0.099494 0.010050
vn 0.000000 -0.100000 -0.000000
vn 0.000000 -0.100000 -0.000000
vn 0.000000 -0.100000 -0.000000
vn 0.000000 -0.100000 -0.000000
vn 0.000000 -0.000000 0.100000
vn 0.000000 -0.000000 0.100000
vn 0.000000 -0.000000 0.100000
vn 0.000000 -0.000000 0.100000
vn 0.000000 -0.000000 0.100000
vn 0.000000 -0.000000 0.100000
vn 0.000000 -0.000000 0.100000
vn 0.000000 -0.000000 0.100000
vn 0.000000 -0.100000 -0.000000
vn 0.000000 -0.100000 -0.000000
vn 0.000000 -0.100000 -0.000000
vn 0.000000 -0.100000 -0.000000
vn -0.000000 0.000000 -0.100000
vn -0.000000 0.000000 -0.100000
vn -0.000000 0.000000 -0.100000
vn -0.000000 0.000000 -0.100000
vn -0.000000 0.000000 -0.100000
vn -0.000000 0.000000 -0.100000
vn -0.000000 0.000000 -0.100000
vn -0.000000 0.000000 -0.100000
vn 0.000000 -0.069141 -0.072246
vn 0.000000 -0.069141 -0.072246
vn 0.000000 -0.069141 -0.072246
vn 0.000000 -0.069141 -0.072246
vn -0.000000 0.073820 -0.067458
vn -0.000000 0.073820 -0.067458
vn -0.000000 0.073820 -0.067458
vn -0.000000 0.073820 -0.067458
vn -0.000000 0.000000 -0.100000
vn -0.000000 0.000000 -0.100000
vn -0.000000 0.000000 -0.100000
vn -0.000000 0.000000 -0.100000
vn -0.000000 0.070711 -0.070711
vn -0.000000 0.070711 -0.070711
vn -0.000000 0.070711 -0.070711
vn -0.000000 0.070711 -0.070711
vn -0.000000 0.100000 0.000000
vn -0.000000 0.100000 0.000000
vn -0.000000 0.100000 0.000000
vn -0.000000 0.100000 0.000000
vn -0.000000 0.070711 0.070711
vn -0.000000 0.070711 0.070711
vn -0.000000 0.070711 0.070711
vn -0.000000 0.070711 0.070711
vn 0.000000 -0.000000 0.100000
vn 0.000000 -0.000000 0.100000
vn 0.000000 -0.000000 0.100000
vn 0.000000 -0.000000 0.100000
vn -0.000000 0.073820 0.067458
vn -0.000000 0.073820 0.067458
vn -0.000000 0.073820 0.067458
vn -0.000000 0.073820 0.067458
vn 0.000000 -0.069141 0.072246
vn 0.000000 -0.069141 0.072246
vn 0.000000 -0.069141 0.072246
vn 0.000000 -0.069141 0.072246
vn 0.100000 0.000000 0.000000
vn 0.100000 0.000000 0.000000
vn 0.100000 0.000000 0.000000
vn 0.100000 0.000000 0.000000
vn 0.100000 0.000000 0.000000
vn 0.100000 0.000000 0.000000
vn 0.100000 0.000000 0.000000
vn 0.100000 0.000000 0.000000
vn 0.100000 0.000000 0.000000
vn 0.100000 0.000000 0.000000
vn 0.100000 0.000000 0.000000
vn 0.100000 0.000000 0.000000
vn 0.100000 0.000000 0.000000
vn 0.100000 0.000000 0.000000
vn 0.100000 0.000000 0.000000
vn 0.100000 0.000000 0.000000
vn 0.100000 0.000000 0.000000
vn 0.100000 0.000000 0.000000
vn 0.100000 0.000000 0.000000
vn 0.100000 0.000000 0.000000
vn 0.100000 0.000000 0.000000
vn 0.100000 0.000000 0.000000
vn 0.100000 0.000000 0.000000
vn 0.100000 0.000000 0.000000
vn 0.100000 0.000000 0.000000
vn 0.100000 0.000000 0.000000
vn 0.100000 0.000000 0.000000
vn 0.100000 0.000000 0.000000
vn 0.100000 0.000000 0.000000
vn 0.100000 0.000000 0.000000
vn 0.100000 0.000000 0.000000
vn 0.100000 0.000000 0.000000
vn -0.100000 -0.000000 -0.000000
vn -0.100000 -0.000000 -0.000000
vn -0.100000 -0.000000 -0.000000
vn -0.100000 -0.000000 -0.000000
vn -0.100000 -0.000000 -0.000000
vn -0.100000 -0.000000 -0.000000
vn -0.100000 -0.000000 -0.000000
vn -0.100000 -0.000000 -0.000000
vn -0.100000 -0.000000 -0.000000
vn -0.100000 -0.000000 -0.000000
vn -0.100000 -0.000000 -0.000000
vn -0.100000 -0.000000 -0.000000
vn -0.100000 -0.000000 -0.000000
vn -0.100000 -0.000000 -0.000000
vn -0.100000 -0.000000 -0.000000
vn -0.100000 -0.000000 -0.000000
vn -0.100000 -0.000000 -0.000000
vn -0.100000 -0.000000 -0.000000
vn -0.100000 -0.000000 -0.000000
vn -0.100000 -0.000000 -0.000000
vn -0.100000 -0.000000 -0.000000
vn -0.100000 -0.000000 -0.000000
vn -0.100000 -0.000000 -0.000000
vn -0.100000 -0.000000 -0.000000
vn -0.100000 -0.000000 -0.000000
vn -0.100000 -0.000000 -0.000000
vn -0.100000 -0.000000 -0.000000
vn -0.100000 -0.000000 -0.000000
vn -0.100000 -0.000000 -0.000000
vn -0.100000 -0.000000 -0.000000
vn -0.100000 -0.000000 -0.000000
vn -0.100000 -0.000000 -0.000000
vn 0.100000 0.000000 0.000000
vn 0.100000 0.000000 0.000000
vn 0.100000 0.000000 0.000000
vn 0.100000 0.000000 0.000000
vn 0.100000 0.000000 0.000000
vn 0.100000 0.000000 0.000000
vn 0.100000 0.000000 0.000000
vn 0.100000 0.000000 0.000000
vn 0.100000 0.000000 0.000000
vn 0.100000 0.000000 0.000000
vn 0.100000 0.000000 0.000000
vn 0.100000 0.000000 0.000000
vn 0.100000 0.000000 0.000000
vn 0.100000 0.000000 0.000000
vn 0.100000 0.000000 0.000000
vn 0.100000 0.000000 0.000000
vn 0.100000 0.000000 0.000000
vn 0.100000 0.000000 0.000000
vn 0.100000 0.000000 0.000000
vn 0.100000 0.000000 0.000000
vn 0.100000 0.000000 0.000000
vn 0.100000 0.000000 0.000000
vn 0.100000 0.000000 0.000000
vn 0.100000 0.000000 0.000000
vn 0.100000 0.000000 0.000000
vn 0.100000 0.000000 0.000000
vn 0.100000 0.000000 0.000000
vn 0.100000 0.000000 0.000000
vn 0.100000 0.000000 0.000000
vn 0.100000 0.000000 0.000000
vn 0.100000 0.000000 0.000000
vn 0.100000 0.000000 0.000000
vn 0.100000 0.000000 0.000000
vn 0.100000 0.000000 0.000000
vn 0.100000 0.000000 0.000000
vn 0.100000 0.000000 0.000000
vn 0.100000 0.000000 0.000000
vn 0.100000 0.000000 0.000000
vn 0.100000 0.000000 0.000000
vn 0.100000 0.000000 0.000000
vn 0.100000 0.000000 0.000000
vn 0.100000 0.000000 0.000000
vn 0.100000 0.000000 0.000000
vn 0.100000 0.000000 0.000000
vn 0.100000 0.000000 0.000000
vn 0.100000 0.000000 0.000000
vn 0.100000 0.000000 0.000000
vn 0.100000 0.000000 0.000000
vn 0.100000 0.000000 0.000000
vn 0.100000 0.000000 0.000000
vn 0.100000 0.000000 0.000000
vn 0.100000 0.000000 0.000000
vn 0.100000 0.000000 0.000000
vn 0.100000 0.000000 0.000000
vn -0.100000 -0.000000 -0.000000
vn -0.100000 -0.000000 -0.000000
vn -0.100000 -0.000000 -0.000000
vn -0.100000 -0.000000 -0.000000
vn -0.100000 -0.000000 -0.000000
vn -0.100000 -0.000000 -0.000000
vn -0.100000 -0.000000 -0.000000
vn -0.100000 -0.000000 -0.000000
vn -0.100000 -0.000000 -0.000000
vn -0.100000 -0.000000 -0.000000
vn -0.100000 -0.000000 -0.000000
vn -0.100000 -0.000000 -0.000000
vn -0.100000 -0.000000 -0.000000
vn -0.100000 -0.000000 -0.000000
vn -0.100000 -0.000000 -0.000000
vn -0.100000 -0.000000 -0.000000
vn -0.100000 -0.000000 -0.000000
vn -0.100000 -0.000000 -0.000000
vn -0.100000 -0.000000 -0.000000
vn -0.100000 -0.000000 -0.000000
vn -0.100000 -0.000000 -0.000000
vn -0.100000 -0.000000 -0.000000
vn -0.100000 -0.000000 -0.000000
vn -0.100000 -0.000000 -0.000000
vn -0.100000 -0.000000 -0.000000
vn -0.100000 -0.000000 -0.000000
vn -0.100000 -0.000000 -0.000000
vn -0.100000 -0.000000 -0.000000
vn -0.100000 -0.000000 -0.000000
vn -0.100000 -0.000000 -0.000000
vn -0.100000 -0.000000 -0.000000
vn -0.100000 -0.000000 -0.000000
vn -0.100000 -0.000000 -0.000000
vn -0.100000 -0.000000 -0.000000
vn -0.100000 -0.000000 -0.000000
vn -0.100000 -0.000000 -0.000000
vn -0.100000 -0.000000 -0.000000
vn -0.100000 -0.000000 -0.000000
vn -0.100000 -0.000000 -0.000000
vn -0.100000 -0.000000 -0.000000
vn -0.100000 -0.000000 -0.000000
vn -0.100000 -0.000000 -0.000000
vn -0.100000 -0.000000 -0.000000
vn -0.100000 -0.000000 -0.000000
vn -0.100000 -0.000000 -0.000000
vn -0.100000 -0.000000 -0.000000
vn -0.100000 -0.000000 -0.000000
vn -0.100000 -0.000000 -0.000000
vn -0.100000 -0.000000 -0.000000
vn -0.100000 -0.000000 -0.000000
vn -0.100000 -0.000000 -0.000000
vn -0.100000 -0.000000 -0.000000
vn -0.100000 -0.000000 -0.000000
vn -0.100000 -0.000000 -0.000000
vn 0.000000 -0.070711 0.070711
vn 0.000000 -0.070711 0.070711
vn 0.000000 -0.070711 0.070711
vn 0.000000 -0.070711 0.070711
vn 0.000000 -0.100000 -0.000000
vn 0.000000 -0.100000 -0.000000
vn 0.000000 -0.100000 -0.000000
vn 0.000000 -0.100000 -0.000000
vn 0.000000 -0.070711 -0.070711
vn 0.000000 -0.070711 -0.070711
vn 0.000000 -0.070711 -0.070711
vn 0.000000 -0.070711 -0.070711
usemtl 191,191,191
f 138/24/24 150/47/47 148/25/25
f 148/48/48 150/1/1 158/2/2
f 148/49/49 158/2/2 154/46/46
f 154/46/46 158/2/2 166/3/3
f 154/46/46 166/3/3 162/45/45
f 162/45/45 166/3/3 174/4/4
f 162/45/45 174/4/4 170/44/44
f 170/44/44 174/4/4 186/5/5
f 170/44/44 186/5/5 178/43/43
f 178/43/43 186/5/5 190/6/6
f 178/43/43 190/6/6 182/42/42
f 182/42/42 190/6/6 192/7/7
f 182/42/42 192/7/7 181/41/41
f 181/41/41 192/7/7 189/8/8
f 181/41/41 189/8/8 177/40/40
f 177/40/40 189/8/8 185/9/9
f 177/40/40 185/9/9 169/39/39
f 169/39/39 185/9/9 173/10/10
f 169/39/39 173/10/10 161/38/38
f 161/38/38 173/10/10 165/11/11
f 161/38/38 165/11/11 153/37/37
f 153/37/37 165/11/11 157/12/12
f 153/37/37 157/12/12 147/36/36
f 147/36/36 157/12/12 149/13/13
f 147/36/36 149/13/13 137/14/14
f 147/36/36 137/14/14 141/35/35
f 141/35/35 137/14/14 129/15/15
f 141/35/35 129/15/15 133/34/34
f 133/34/34 129/15/15 121/16/16
f 133/34/34 121/16/16 125/33/33
f 125/33/33 121/16/16 109/17/17
f 125/33/33 109/17/17 117/32/32
f 117/32/32 109/17/17 105/18/18
f 117/32/32 105/18/18 113/31/31
f 113/31/31 105/18/18 102/19/19
f 113/31/31 102/19/19 114/30/30
f 114/30/30 102/19/19 106/20/20
f 114/30/30 106/20/20 118/29/29
f 118/29/29 106/20/20 110/21/21
f 118/29/29 110/21/21 126/28/28
f 126/28/28 110/21/21 122/22/22
f 126/28/28 122/22/22 134/27/27
f 134/27/27 122/22/22 130/23/23
f 134/27/27 130/23/23 142/26/26
f 142/26/26 130/23/23 138/24/24
f 142/26/26 138/24/24 148/25/25
f 154/51/51 146/94/94 148/50/50
f 148/95/95 146/83/83 140/84/84
f 148/96/96 140/84/84 142/71/71
f 142/71/71 140/84/84 132/85/85
f 142/71/71 132/85/85 134/70/70
f 134/70/70 132/85/85 124/86/86
f 134/70/70 124/86/86 126/69/69
f 126/69/69 124/86/86 116/87/87
f 126/69/69 116/87/87 118/68/68
f 118/68/68 116/87/87 112/88/88
f 118/68/68 112/88/88 114/67/67
f 114/67/67 112/88/88 111/89/89
f 114/67/67 111/89/89 113/66/66
f 113/66/66 111/89/89 115/90/90
f 113/66/66 115/90/90 117/65/65
f 117/65/65 115/90/90 123/91/91
f 117/65/65 123/91/91 125/64/64
f 125/64/64 123/91/91 131/92/92
f 125/64/64 131/92/92 133/63/63
f 133/63/63 131/92/92 139/93/93
f 133/63/63 139/93/93 141/62/62
f 141/62/62 139/93/93 145/72/72
f 141/62/62 145/72/72 147/61/61
f 147/61/61 145/72/72 151/73/73
f 147/61/61 151/73/73 153/60/60
f 153/60/60 151/73/73 159/74/74
f 153/60/60 159/74/74 161/59/59
f 161/59/59 159/74/74 167/75/75
f 161/59/59 167/75/75 169/58/58
f 169/58/58 167/75/75 175/76/76
f 169/58/58 175/76/76 177/57/57
f 177/57/57 175/76/76 179/77/77
f 177/57/57 179/77/77 181/56/56
f 181/56/56 179/77/77 180/78/78
f 181/56/56 180/78/78 182/55/55
f 182/55/55 180/78/78 176/79/79
f 182/55/55 176/79/79 178/54/54
f 178/54/54 176/79/79 168/80/80
f 178/54/54 168/80/80 170/53/53
f 170/53/53 168/80/80 160/81/81
f 170/53/53 160/81/81 162/52/52
f 162/52/52 160/81/81 152/82/82
f 162/52/52 152/82/82 154/51/51
f 154/51/51 152/82/82 146/97/97
f 135/121/121 143/144/144 145/122/122
f 145/145/145 143/98/98 155/99/99
f 145/146/146 155/99/99 151/143/143
f 151/143/143 155/99/99 163/100/100
f 151/143/143 163/100/100 159/142/142
f 159/142/142 163/100/100 171/101/101
f 159/142/142 171/101/101 167/141/141
f 167/141/141 171/101/101 183/102/102
f 167/141/141 183/102/102 175/140/140
f 175/140/140 183/102/102 187/103/103
f 175/140/140 187/103/103 179/139/139
f 179/139/139 187/103/103 191/104/104
f 179/139/139 191/104/104 180/138/138
f 180/138/138 191/104/104 188/105/105
f 180/138/138 188/105/105 176/137/137
f 176/137/137 188/105/105 184/106/106
f 176/137/137 184/106/106 168/136/136
f 168/136/136 184/106/106 172/107/107
f 168/136/136 172/107/107 160/135/135
f 160/135/135 172/107/107 164/108/108
f 160/135/135 164/108/108 152/134/134
f 152/134/134 164/108/108 156/109/109
f 152/134/134 156/109/109 146/133/133
f 146/133/133 156/109/109 144/110/110
f 146/133/133 144/110/110 136/111/111
f 146/133/133 136/111/111 140/132/132
f 140/132/132 136/111/111 128/112/112
f 140/132/132 128/112/112 132/131/131
f 132/131/131 128/112/112 120/113/113
f 132/131/131 120/113/113 124/130/130
f 124/130/130 120/113/113 108/114/114
f 124/130/130 108/114/114 116/129/129
f 116/129/129 108/114/114 104/115/115
f 116/129/129 104/115/115 112/128/128
f 112/128/128 104/115/115 101/116/116
f 112/128/128 101/116/116 111/127/127
f 111/127/127 101/116/116 103/117/117
f 111/127/127 103/117/117 115/126/126
f 115/126/126 103/117/117 107/118/118
f 115/126/126 107/118/118 123/125/125
f 123/125/125 107/118/118 119/119/119
f 123/125/125 119/119/119 131/124/124
f 131/124/124 119/119/119 127/120/120
f 131/124/124 127/120/120 139/123/123
f 139/123/123 127/120/120 135/121/121
f 139/123/123 135/121/121 145/122/122
f 46/170/170 58/193/193 56/171/171
f 56/194/194 58/147/147 66/148/148
f 56/195/195 66/148/148 62/192/192
f 62/192/192 66/148/148 74/149/149
f 62/192/192 74/149/149 70/191/191
f 70/191/191 74/149/149 82/150/150
f 70/191/191 82/150/150 78/190/190
f 78/190/190 82/150/150 94/151/151
f 78/190/190 94/151/151 86/189/189
f 86/189/189 94/151/151 98/152/152
f 86/189/189 98/152/152 90/188/188
f 90/188/188 98/152/152 100/153/153
f 90/188/188 100/153/153 89/187/187
f 89/187/187 100/153/153 97/154/154
f 89/187/187 97/154/154 85/186/186
f 85/186/186 97/154/154 93/155/155
f 85/186/186 93/155/155 77/185/185
f 77/185/185 93/155/155 81/156/156
f 77/185/185 81/156/156 69/184/184
f 69/184/184 81/156/156 73/157/157
f 69/184/184 73/157/157 61/183/183
f 61/183/183 73/157/157 65/158/158
f 61/183/183 65/158/158 55/182/182
f 55/182/182 65/158/158 57/159/159
f 55/182/182 57/159/159 45/160/160
f 55/182/182 45/160/160 49/181/181
f 49/181/181 45/160/160 37/161/161
f 49/181/181 37/161/161 41/180/180
f 41/180/180 37/161/161 29/162/162
f 41/180/180 29/162/162 33/179/179
f 33/179/179 29/162/162 17/163/163
f 33/179/179 17/163/163 25/178/178
f 25/178/178 17/163/163 13/164/164
f 25/178/178 13/164/164 21/177/177
f 21/177/177 13/164/164 10/165/165
f 21/177/177 10/165/165 22/176/176
f 22/176/176 10/165/165 14/166/166
f 22/176/176 14/166/166 26/175/175
f 26/175/175 14/166/166 18/167/167
f 26/175/175 18/167/167 34/174/174
f 34/174/174 18/167/167 30/168/168
f 34/174/174 30/168/168 42/173/173
f 42/173/173 30/168/168 38/169/169
f 42/173/173 38/169/169 50/172/172
f 50/172/172 38/169/169 46/170/170
f 50/172/172 46/170/170 56/171/171
f 62/197/197 54/240/240 56/196/196
f 56/241/241 54/229/229 48/230/230
f 56/242/242 48/230/230 50/217/217
f 50/217/217 48/230/230 40/231/231
f 50/217/217 40/231/231 42/216/216
f 42/216/216 40/231/231 32/232/232
f 42/216/216 32/232/232 34/215/215
f 34/215/215 32/232/232 24/233/233
f 34/215/215 24/233/233 26/214/214
f 26/214/214 24/233/233 20/234/234
f 26/214/214 20/234/234 22/213/213
f 22/213/213 20/234/234 19/235/235
f 22/213/213 19/235/235 21/212/212
f 21/212/212 19/235/235 23/236/236
f 21/212/212 23/236/236 25/211/211
f 25/211/211 23/236/236 31/237/237
f 25/211/211 31/237/237 33/210/210
f 33/210/210 31/237/237 39/238/238
f 33/210/210 39/238/238 41/209/209
f 41/209/209 39/238/238 47/239/239
f 41/209/209 47/239/239 49/208/208
f 49/208/208 47/239/239 53/218/218
f 49/208/208 53/218/218 55/207/207
f 55/207/207 53/218/218 59/219/219
f 55/207/207 59/219/219 61/206/206
f 61/206/206 59/219/219 67/220/220
f 61/206/206 67/220/220 69/205/205
f 69/205/205 67/220/220 75/221/221
f 69/205/205 75/221/221 77/204/204
f 77/204/204 75/221/221 83/222/222
f 77/204/204 83/222/222 85/203/203
f 85/203/203 83/222/222 87/223/223
f 85/203/203 87/223/223 89/202/202
f 89/202/202 87/223/223 88/224/224
f 89/202/202 88/224/224 90/201/201
f 90/201/201 88/224/224 84/225/225
f 90/201/201 84/225/225 86/200/200
f 86/200/200 84/225/225 76/226/226
f 86/200/200 76/226/226 78/199/199
f 78/199/199 76/226/226 68/227/227
f 78/199/199 68/227/227 70/198/198
f 70/198/198 68/227/227 60/228/228
f 70/198/198 60/228/228 62/197/197
f 62/197/197 60/228/228 54/243/243
f 43/267/267 51/290/290 53/268/268
f 53/291/291 51/244/244 63/245/245
f 53/292/292 63/245/245 59/289/289
f 59/289/289 63/245/245 71/246/246
f 59/289/289 71/246/246 67/288/288
f 67/288/288 71/246/246 79/247/247
f 67/288/288 79/247/247 75/287/287
f 75/287/287 79/247/247 91/248/248
f 75/287/287 91/248/248 83/286/286
f 83/286/286 91/248/248 95/249/249
f 83/286/286 95/249/249 87/285/285
f 87/285/285 95/249/249 99/250/250
f 87/285/285 99/250/250 88/284/284
f 88/284/284 99/250/250 96/251/251
f 88/284/284 96/251/251 84/283/283
f 84/283/283 96/251/251 92/252/252
f 84/283/283 92/252/252 76/282/282
f 76/282/282 92/252/252 80/253/253
f 76/282/282 80/253/253 68/281/281
f 68/281/281 80/253/253 72/254/254
f 68/281/281 72/254/254 60/280/280
f 60/280/280 72/254/254 64/255/255
f 60/280/280 64/255/255 54/279/279
f 54/279/279 64/255/255 52/256/256
f 54/279/279 52/256/256 44/257/257
f 54/279/279 44/257/257 48/278/278
f 48/278/278 44/257/257 36/258/258
f 48/278/278 36/258/258 40/277/277
f 40/277/277 36/258/258 28/259/259
f 40/277/277 28/259/259 32/276/276
f 32/276/276 28/259/259 16/260/260
f 32/276/276 16/260/260 24/275/275
f 24/275/275 16/260/260 12/261/261
f 24/275/275 12/261/261 20/274/274
f 20/274/274 12/261/261 9/262/262
f 20/274/274 9/262/262 19/273/273
f 19/273/273 9/262/262 11/263/263
f 19/273/273 11/263/263 23/272/272
f 23/272/272 11/263/263 15/264/264
f 23/272/272 15/264/264 31/271/271
f 31/271/271 15/264/264 27/265/265
f 31/271/271 27/265/265 39/270/270
f 39/270/270 27/265/265 35/266/266
f 39/270/270 35/266/266 47/269/269
f 47/269/269 35/266/266 43/267/267
f 47/269/269 43/267/267 53/268/268
f 205/314/314 207/293/293 209/313/313
f 209/313/313 207/293/293 211/294/294
f 209/313/313 211/294/294 213/312/312
f 213/312/312 211/294/294 215/295/295
f 213/312/312 215/295/295 217/311/311
f 217/311/311 215/295/295 219/296/296
f 217/311/311 219/296/296 221/310/310
f 221/310/310 219/296/296 223/297/297
f 221/310/310 223/297/297 225/309/309
f 225/309/309 223/297/297 227/298/298
f 225/309/309 227/298/298 229/308/308
f 229/308/308 227/298/298 231/299/299
f 229/308/308 231/299/299 233/307/307
f 233/307/307 231/299/299 235/300/300
f 233/307/307 235/300/300 237/306/306
f 237/306/306 235/300/300 239/301/301
f 237/306/306 239/301/301 241/305/305
f 241/305/305 239/301/301 243/302/302
f 241/305/305 243/302/302 245/304/304
f 245/304/304 243/302/302 247/303/303
f 246/336/336 248/315/315 242/335/335
f 242/335/335 248/315/315 244/316/316
f 242/335/335 244/316/316 238/334/334
f 238/334/334 244/316/316 240/317/317
f 238/334/334 240/317/317 234/333/333
f 234/333/333 240/317/317 236/318/318
f 234/333/333 236/318/318 230/332/332
f 230/332/332 236/318/318 232/319/319
f 230/332/332 232/319/319 226/331/331
f 226/331/331 232/319/319 228/320/320
f 226/331/331 228/320/320 222/330/330
f 222/330/330 228/320/320 224/321/321
f 222/330/330 224/321/321 218/329/329
f 218/329/329 224/321/321 220/322/322
f 218/329/329 220/322/322 214/328/328
f 214/328/328 220/322/322 216/323/323
f 214/328/328 216/323/323 210/327/327
f 210/327/327 216/323/323 212/324/324
f 210/327/327 212/324/324 206/326/326
f 206/326/326 212/324/324 208/325/325
f 195/338/338 193/339/339 196/337/337
f 196/337/337 193/339/339 194/340/340
f 5/348/348 7/341/341 195/347/347
f 195/347/347 7/341/341 197/342/342
f 195/347/347 197/342/342 203/344/344
f 203/344/344 197/342/342 199/343/343
f 203/344/344 201/345/345 195/347/347
f 195/347/347 201/345/345 193/346/346
f 199/349/349 197/350/350 200/352/352
f 200/352/352 197/350/350 198/351/351
f 200/353/353 198/354/354 204/360/360
f 204/360/360 198/354/354 196/357/357
f 204/360/360 196/357/357 202/359/359
f 202/359/359 196/357/357 194/358/358
f 8/355/355 6/356/356 198/354/354
f 198/354/354 6/356/356 196/357/357
f 206/362/362 208/363/363 202/361/361
f 202/361/361 208/363/363 204/364/364
f 250/366/366 252/367/367 246/365/365
f 246/365/365 252/367/367 248/368/368
f 254/370/370 256/371/371 250/369/369
f 250/369/369 256/371/371 252/372/372
f 258/374/374 260/375/375 254/373/373
f 254/373/373 260/375/375 256/376/376
f 257/378/378 259/379/379 258/377/377
f 258/377/377 259/379/379 260/380/380
f 253/382/382 255/383/383 257/381/381
f 257/381/381 255/383/383 259/384/384
f 249/386/386 251/387/387 253/385/385
f 253/385/385 251/387/387 255/388/388
f 245/390/390 247/391/391 249/389/389
f 249/389/389 247/391/391 251/392/392
f 201/394/394 203/395/395 205/393/393
f 205/393/393 203/395/395 207/396/396
f 199/398/398 200/399/399 203/397/397
f 203/397/397 200/399/399 204/400/400
f 203/397/397 204/400/400 207/428/428
f 207/428/428 204/400/400 208/401/401
f 207/428/428 208/401/401 247/418/418
f 247/418/418 208/401/401 248/411/411
f 247/418/418 248/411/411 251/417/417
f 251/417/417 248/411/411 252/412/412
f 251/417/417 252/412/412 259/415/415
f 259/415/415 252/412/412 260/414/414
f 260/414/414 252/412/412 256/413/413
f 212/402/402 216/403/403 208/401/401
f 208/401/401 216/403/403 220/404/404
f 208/401/401 220/404/404 224/405/405
f 224/405/405 228/406/406 208/401/401
f 208/401/401 228/406/406 248/411/411
f 228/406/406 232/407/407 248/411/411
f 248/411/411 232/407/407 236/408/408
f 248/411/411 236/408/408 240/409/409
f 240/409/409 244/410/410 248/411/411
f 259/415/415 255/416/416 251/417/417
f 243/419/419 239/420/420 247/418/418
f 247/418/418 239/420/420 235/421/421
f 247/418/418 235/421/421 231/422/422
f 231/422/422 227/423/423 247/418/418
f 247/418/418 227/423/423 207/428/428
f 227/423/423 223/424/424 207/428/428
f 207/428/428 223/424/424 219/425/425
f 207/428/428 219/425/425 215/426/426
f 215/426/426 211/427/427 207/428/428
f 194/460/460 193/429/429 202/459/459
f 202/459/459 193/429/429 201/430/430
f 202/459/459 201/430/430 205/431/431
f 209/432/432 213/433/433 205/431/431
f 205/431/431 213/433/433 217/434/434
f 205/431/431 217/434/434 221/435/435
f 221/435/435 225/436/436 205/431/431
f 205/431/431 225/436/436 245/441/441
f 205/431/431 245/441/441 206/458/458
f 206/458/458 245/441/441 246/448/448
f 206/458/458 246/448/448 226/453/453
f 226/453/453 246/448/448 230/452/452
f 230/452/452 246/448/448 234/451/451
f 234/451/451 246/448/448 238/450/450
f 238/450/450 246/448/448 242/449/449
f 225/436/436 229/437/437 245/441/441
f 245/441/441 229/437/437 233/438/438
f 245/441/441 233/438/438 237/439/439
f 237/439/439 241/440/440 245/441/441
f 246/448/448 245/441/441 250/447/447
f 250/447/447 245/441/441 249/442/442
f 250/447/447 249/442/442 257/444/444
f 257/444/444 249/442/442 253/443/443
f 257/444/444 258/445/445 250/447/447
f 250/447/447 258/445/445 254/446/446
f 226/453/453 222/454/454 206/458/458
f 206/458/458 222/454/454 218/455/455
f 206/458/458 218/455/455 214/456/456
f 214/456/456 210/457/457 206/458/458
f 206/458/458 202/459/459 205/431/431
f 197/462/462 192/509/509 198/461/461
f 198/461/461 192/509/509 190/510/510
f 198/461/461 190/510/510 186/511/511
f 7/463/463 137/502/502 197/462/462
f 197/462/462 137/502/502 149/503/503
f 197/462/462 149/503/503 157/504/504
f 3/464/464 57/479/479 7/463/463
f 7/463/463 57/479/479 65/480/480
f 7/463/463 65/480/480 137/502/502
f 137/502/502 65/480/480 129/501/501
f 129/501/501 65/480/480 73/481/481
f 129/501/501 73/481/481 121/500/500
f 121/500/500 73/481/481 81/482/482
f 121/500/500 81/482/482 109/499/499
f 109/499/499 81/482/482 93/483/483
f 109/499/499 93/483/483 105/498/498
f 105/498/498 93/483/483 97/484/484
f 105/498/498 97/484/484 102/497/497
f 102/497/497 97/484/484 100/485/485
f 102/497/497 100/485/485 106/496/496
f 106/496/496 100/485/485 98/486/486
f 106/496/496 98/486/486 110/495/495
f 110/495/495 98/486/486 94/487/487
f 110/495/495 94/487/487 122/494/494
f 122/494/494 94/487/487 82/488/488
f 122/494/494 82/488/488 130/493/493
f 130/493/493 82/488/488 74/489/489
f 130/493/493 74/489/489 138/492/492
f 138/492/492 74/489/489 66/490/490
f 138/492/492 66/490/490 8/466/466
f 8/466/466 66/490/490 58/467/467
f 8/466/466 58/467/467 4/465/465
f 4/465/465 58/467/467 46/468/468
f 4/465/465 46/468/468 38/469/469
f 4/465/465 10/473/473 3/464/464
f 3/464/464 10/473/473 13/474/474
f 3/464/464 13/474/474 17/475/475
f 8/466/466 198/461/461 138/492/492
f 138/492/492 198/461/461 150/491/491
f 150/491/491 198/461/461 158/514/514
f 158/514/514 198/461/461 166/513/513
f 166/513/513 198/461/461 174/512/512
f 174/512/512 198/461/461 186/511/511
f 38/469/469 30/470/470 4/465/465
f 4/465/465 30/470/470 18/471/471
f 4/465/465 18/471/471 14/472/472
f 14/472/472 10/473/473 4/465/465
f 17/475/475 29/476/476 3/464/464
f 3/464/464 29/476/476 37/477/477
f 3/464/464 37/477/477 45/478/478
f 45/478/478 57/479/479 3/464/464
f 157/504/504 165/505/505 197/462/462
f 197/462/462 165/505/505 173/506/506
f 197/462/462 173/506/506 185/507/507
f 185/507/507 189/508/508 197/462/462
f 197/462/462 189/508/508 192/509/509
f 195/516/516 135/546/546 5/515/515
f 5/515/515 135/546/546 63/544/544
f 5/515/515 63/544/544 51/521/521
f 196/517/517 191/563/563 195/516/516
f 195/516/516 191/563/563 187/564/564
f 195/516/516 187/564/564 183/565/565
f 6/518/518 136/556/556 196/517/517
f 196/517/517 136/556/556 144/557/557
f 196/517/517 144/557/557 156/558/558
f 2/519/519 52/533/533 6/518/518
f 6/518/518 52/533/533 64/534/534
f 6/518/518 64/534/534 136/556/556
f 136/556/556 64/534/534 128/555/555
f 128/555/555 64/534/534 72/535/535
f 128/555/555 72/535/535 120/554/554
f 120/554/554 72/535/535 80/536/536
f 120/554/554 80/536/536 108/553/553
f 108/553/553 80/536/536 92/537/537
f 108/553/553 92/537/537 104/552/552
f 104/552/552 92/537/537 96/538/538
f 104/552/552 96/538/538 101/551/551
f 101/551/551 96/538/538 99/539/539
f 101/551/551 99/539/539 103/550/550
f 103/550/550 99/539/539 95/540/540
f 103/550/550 95/540/540 107/549/549
f 107/549/549 95/540/540 91/541/541
f 107/549/549 91/541/541 119/548/548
f 119/548/548 91/541/541 79/542/542
f 119/548/548 79/542/542 127/547/547
f 127/547/547 79/542/542 71/543/543
f 127/547/547 71/543/543 135/546/546
f 135/546/546 71/543/543 63/544/544
f 1/520/520 9/527/527 2/519/519
f 2/519/519 9/527/527 12/528/528
f 2/519/519 12/528/528 16/529/529
f 5/515/515 51/521/521 1/520/520
f 1/520/520 51/521/521 43/522/522
f 1/520/520 43/522/522 35/523/523
f 35/523/523 27/524/524 1/520/520
f 1/520/520 27/524/524 15/525/525
f 1/520/520 15/525/525 11/526/526
f 11/526/526 9/527/527 1/520/520
f 16/529/529 28/530/530 2/519/519
f 2/519/519 28/530/530 36/531/531
f 2/519/519 36/531/531 44/532/532
f 44/532/532 52/533/533 2/519/519
f 155/568/568 143/545/545 195/516/516
f 195/516/516 143/545/545 135/546/546
f 156/558/558 164/559/559 196/517/517
f 196/517/517 164/559/559 172/560/560
f 196/517/517 172/560/560 184/561/561
f 184/561/561 188/562/562 196/517/517
f 196/517/517 188/562/562 191/563/563
f 183/565/565 171/566/566 195/516/516
f 195/516/516 171/566/566 163/567/567
f 195/516/516 163/567/567 155/568/568
f 1/570/570 3/571/571 5/569/569
f 5/569/569 3/571/571 7/572/572
f 2/574/574 4/575/575 1/573/573
f 1/573/573 4/575/575 3/576/576
f 6/578/578 8/579/579 2/577/577
f 2/577/577 8/579/579 4/580/580
g Solid2:1

v 29.760000 -169.000000 10.000000
v 29.760000 -169.000000 -10.000000
v 29.760000 -150.722009 0.391366
v 29.760000 -150.722009 -0.391366
v 29.760000 -150.501488 1.142391
v 29.760000 -150.501488 -1.142391
v 29.760000 -150.078311 1.800867
v 29.760000 -150.078311 -1.800867
v 29.760000 -149.486762 2.313447
v 29.760000 -149.486762 -2.313447
v 29.760000 -148.774765 2.638606
v 29.760000 -148.774765 -2.638606
v 29.760000 -148.000000 2.750000
v 29.760000 -148.000000 -2.750000
v 29.760000 -147.225235 2.638606
v 29.760000 -147.225235 -2.638606
v 29.760000 -146.513238 2.313447
v 29.760000 -146.513238 -2.313447
v 29.760000 -145.921689 1.800867
v 29.760000 -145.921689 -1.800867
v 29.760000 -145.498512 1.142391
v 29.760000 -145.498512 -1.142391
v 29.760000 -145.277991 0.391366
v 29.760000 -145.277991 -0.391366
v 29.760000 -138.722009 0.391366
v 29.760000 -138.722009 -0.391366
v 29.760000 -138.501488 1.142391
v 29.760000 -138.501488 -1.142391
v 29.760000 -138.078312 1.800867
v 29.760000 -138.078312 -1.800867
v 29.760000 -137.486762 2.313447
v 29.760000 -137.486762 -2.313447
v 29.760000 -136.774764 2.638606
v 29.760000 -136.774764 -2.638606
v 29.760000 -136.000000 2.750000
v 29.760000 -136.000000 -2.750000
v 29.760000 -135.225235 2.638606
v 29.760000 -135.225235 -2.638606
v 29.760000 -134.513238 2.313447
v 29.760000 -134.513238 -2.313447
v 29.760000 -133.921689 1.800867
v 29.760000 -133.921689 -1.800867
v 29.760000 -133.498513 1.142391
v 29.760000 -133.498513 -1.142391
v 29.760000 -133.277990 0.391366
v 29.760000 -133.277990 -0.391366
v 29.760000 -129.000000 10.000000
v 29.760000 -129.000000 -10.000000
v 19.760000 -179.000000 10.000000
v 19.760000 -179.000000 -10.000000
v 19.760000 -154.000000 6.200000
v 19.760000 -154.000000 -6.200000
v 19.760000 -150.722009 0.391366
v 19.760000 -150.722009 -0.391366
v 19.760000 -150.501488 1.142391
v 19.760000 -150.501488 -1.142391
v 19.760000 -150.078311 1.800867
v 19.760000 -150.078311 -1.800867
v 19.760000 -149.486762 2.313447
v 19.760000 -149.486762 -2.313447
v 19.760000 -148.774765 2.638606
v 19.760000 -148.774765 -2.638606
v 19.760000 -148.000000 2.750000
v 19.760000 -148.000000 -2.750000
v 19.760000 -147.225235 2.638606
v 19.760000 -147.225235 -2.638606
v 19.760000 -146.513238 2.313447
v 19.760000 -146.513238 -2.313447
v 19.760000 -145.921689 1.800867
v 19.760000 -145.921689 -1.800867
v 19.760000 -145.498512 1.142391
v 19.760000 -145.498512 -1.142391
v 19.760000 -145.277991 0.391366
v 19.760000 -145.277991 -0.391366
v 19.760000 -138.722009 0.391366
v 19.760000 -138.722009 -0.391366
v 19.760000 -138.501488 1.142391
v 19.760000 -138.501488 -1.142391
v 19.760000 -138.078312 1.800867
v 19.760000 -138.078312 -1.800867
v 19.760000 -137.486762 2.313447
v 19.760000 -137.486762 -2.313447
v 19.760000 -136.774764 2.638606
v 19.760000 -136.774764 -2.638606
v 19.760000 -136.000000 2.750000
v 19.760000 -136.000000 -2.750000
v 19.760000 -135.225235 2.638606
v 19.760000 -135.225235 -2.638606
v 19.760000 -134.513238 2.313447
v 19.760000 -134.513238 -2.313447
v 19.760000 -133.921689 1.800867
v 19.760000 -133.921689 -1.800867
v 19.760000 -133.498513 1.142391
v 19.760000 -133.498513 -1.142391
v 19.760000 -133.277990 0.391366
v 19.760000 -133.277990 -0.391366
v 19.760000 -129.000000 6.200000
v 19.760000 -129.000000 -6.200000
v 14.760000 -164.000000 10.000000
v 14.760000 -164.000000 -10.000000
v 14.760000 -154.000000 6.200000
v 14.760000 -154.000000 -6.200000
v 14.760000 -129.000000 10.000000
v 14.760000 -129.000000 6.200000
v 14.760000 -129.000000 -6.200000
v 14.760000 -129.000000 -10.000000
v 12.035732 -179.000000 0.000000
v 12.035732 -164.000000 0.000000
v 8.760000 -179.000000 10.000000
v 8.760000 -179.000000 9.000000
v 8.760000 -179.000000 -9.000000
v 8.760000 -179.000000 -10.000000
v 8.760000 -164.000000 10.000000
v 8.760000 -164.000000 9.000000
v 8.760000 -164.000000 -9.000000
v 8.760000 -164.000000 -10.000000
vt 0.000000 -0.863938 0.000000
vt 0.000000 -0.785398 0.000000
vt 0.000000 -0.706858 0.000000
vt 0.000000 -0.628319 0.000000
vt 0.000000 -0.549779 0.000000
vt 0.000000 -0.471239 0.000000
vt 0.000000 -0.392699 0.000000
vt 0.000000 -0.314159 0.000000
vt 0.000000 -0.235619 0.000000
vt 0.000000 -0.157080 0.000000
vt 0.000000 -0.078540 0.000000
vt 0.000000 0.000000 0.000000
vt 0.000000 0.078540 0.000000
vt 0.000000 0.157080 0.000000
vt 0.000000 0.235619 0.000000
vt 0.000000 0.314159 0.000000
vt 0.000000 0.392699 0.000000
vt 0.000000 0.471239 0.000000
vt 0.000000 0.549779 0.000000
vt 0.000000 0.628319 0.000000
vt 0.000000 0.706858 0.000000
vt 0.000000 0.785398 0.000000
vt -1.000000 0.863938 0.000000
vt -1.000000 0.785398 0.000000
vt -1.000000 0.706858 0.000000
vt -1.000000 0.628319 0.000000
vt -1.000000 0.549779 0.000000
vt -1.000000 0.471239 0.000000
vt -1.000000 0.392699 0.000000
vt -1.000000 0.314159 0.000000
vt -1.000000 0.235619 0.000000
vt -1.000000 0.157080 0.000000
vt -1.000000 0.078540 0.000000
vt -1.000000 0.000000 0.000000
vt -1.000000 -0.078540 0.000000
vt -1.000000 -0.157080 0.000000
vt -1.000000 -0.235619 0.000000
vt -1.000000 -0.314159 0.000000
vt -1.000000 -0.392699 0.000000
vt -1.000000 -0.471239 0.000000
vt -1.000000 -0.549779 0.000000
vt -1.000000 -0.628319 0.000000
vt -1.000000 -0.706858 0.000000
vt -1.000000 -0.785398 0.000000
vt -1.000000 -0.863938 0.000000
vt 0.000000 0.863938 0.000000
vt 0.000000 -0.863938 0.000000
vt 0.000000 -0.785398 0.000000
vt 0.000000 -0.706858 0.000000
vt 0.000000 -0.628319 0.000000
vt 0.000000 -0.549779 0.000000
vt 0.000000 -0.471239 0.000000
vt 0.000000 -0.392699 0.000000
vt 0.000000 -0.314159 0.000000
vt 0.000000 -0.235619 0.000000
vt 0.000000 -0.157080 0.000000
vt 0.000000 -0.078540 0.000000
vt 0.000000 0.000000 0.000000
vt 0.000000 0.078540 0.000000
vt 0.000000 0.157080 0.000000
vt 0.000000 0.235619 0.000000
vt 0.000000 0.314159 0.000000
vt 0.000000 0.392699 0.000000
vt 0.000000 0.471239 0.000000
vt 0.000000 0.549779 0.000000
vt 0.000000 0.628319 0.000000
vt 0.000000 0.706858 0.000000
vt 0.000000 0.785398 0.000000
vt -1.000000 0.863938 0.000000
vt -1.000000 0.785398 0.000000
vt -1.000000 0.706858 0.000000
vt -1.000000 0.628319 0.000000
vt -1.000000 0.549779 0.000000
vt -1.000000 0.471239 0.000000
vt -1.000000 0.392699 0.000000
vt -1.000000 0.314159 0.000000
vt -1.000000 0.235619 0.000000
vt -1.000000 0.157080 0.000000
vt -1.000000 0.078540 0.000000
vt -1.000000 0.000000 0.000000
vt -1.000000 -0.078540 0.000000
vt -1.000000 -0.157080 0.000000
vt -1.000000 -0.235619 0.000000
vt -1.000000 -0.314159 0.000000
vt -1.000000 -0.392699 0.000000
vt -1.000000 -0.471239 0.000000
vt -1.000000 -0.549779 0.000000
vt -1.000000 -0.628319 0.000000
vt -1.000000 -0.706858 0.000000
vt -1.000000 -0.785398 0.000000
vt -1.000000 -0.863938 0.000000
vt 0.000000 0.863938 0.000000
vt -1.000000 -2.500000 0.000000
vt -0.900000 -2.500000 0.000000
vt -0.900000 -1.000000 0.000000
vt -1.000000 -1.000000 0.000000
vt -1.000000 2.500000 0.000000
vt -1.000000 -1.500000 0.000000
vt 1.000000 -1.500000 0.000000
vt 1.000000 2.500000 0.000000
vt -0.275000 1.800000 0.000000
vt -0.263861 1.877477 0.000000
vt -0.231345 1.948676 0.000000
vt -0.180087 2.007831 0.000000
vt -0.114239 2.050149 0.000000
vt -0.039137 2.072201 0.000000
vt 0.039137 2.072201 0.000000
vt 0.114239 2.050149 0.000000
vt 0.180087 2.007831 0.000000
vt 0.231345 1.948676 0.000000
vt 0.263861 1.877477 0.000000
vt 0.275000 1.800000 0.000000
vt 0.263861 1.722524 0.000000
vt 0.231345 1.651324 0.000000
vt 0.180087 1.592169 0.000000
vt 0.114239 1.549851 0.000000
vt 0.039137 1.527799 0.000000
vt -0.039137 1.527799 0.000000
vt -0.114239 1.549851 0.000000
vt -0.180087 1.592169 0.000000
vt -0.231345 1.651324 0.000000
vt -0.263861 1.722524 0.000000
vt -0.275000 0.600000 0.000000
vt -0.263861 0.677476 0.000000
vt -0.231345 0.748676 0.000000
vt -0.180087 0.807831 0.000000
vt -0.114239 0.850149 0.000000
vt -0.039137 0.872201 0.000000
vt 0.039137 0.872201 0.000000
vt 0.114239 0.850149 0.000000
vt 0.180087 0.807831 0.000000
vt 0.231345 0.748676 0.000000
vt 0.263861 0.677476 0.000000
vt 0.275000 0.600000 0.000000
vt 0.263861 0.522524 0.000000
vt 0.231345 0.451324 0.000000
vt 0.180087 0.392169 0.000000
vt 0.114239 0.349851 0.000000
vt 0.039137 0.327799 0.000000
vt -0.039137 0.327799 0.000000
vt -0.114239 0.349851 0.000000
vt -0.180087 0.392169 0.000000
vt -0.231345 0.451324 0.000000
vt -0.263861 0.522524 0.000000
vt 0.000000 5.000000 0.000000
vt 0.000000 1.000000 0.000000
vt 1.000000 0.000000 0.000000
vt 2.100000 0.000000 0.000000
vt 2.100000 1.500000 0.000000
vt 1.500000 1.500000 0.000000
vt 1.500000 5.000000 0.000000
vt 1.620000 1.500000 0.000000
vt 1.620000 1.000000 0.000000
vt 0.380000 1.000000 0.000000
vt 0.380000 1.500000 0.000000
vt 0.000000 1.500000 0.000000
vt 0.000000 0.000000 0.000000
vt 2.000000 0.000000 0.000000
vt 2.000000 1.500000 0.000000
vt -2.100000 0.000000 0.000000
vt -1.000000 0.000000 0.000000
vt 0.000000 1.000000 0.000000
vt 0.000000 5.000000 0.000000
vt -1.500000 5.000000 0.000000
vt -1.500000 1.500000 0.000000
vt -2.100000 1.500000 0.000000
vt -2.000000 2.100000 0.000000
vt -2.000000 1.000000 0.000000
vt 0.000000 1.000000 0.000000
vt 0.000000 2.100000 0.000000
vt -0.100000 2.100000 0.000000
vt -1.000000 1.772427 0.000000
vt -1.900000 2.100000 0.000000
vt -1.000000 -1.000000 0.000000
vt 1.000000 -1.000000 0.000000
vt 1.000000 2.500000 0.000000
vt 0.620000 2.500000 0.000000
vt 0.620000 0.000000 0.000000
vt -0.620000 0.000000 0.000000
vt -0.620000 2.500000 0.000000
vt -1.000000 2.500000 0.000000
vt -0.000000 0.500000 0.000000
vt -2.500000 0.500000 0.000000
vt -2.500000 0.000000 0.000000
vt -0.000000 0.000000 0.000000
vt 2.500000 0.500000 0.000000
vt -0.000000 0.500000 0.000000
vt -0.000000 0.000000 0.000000
vt 2.500000 0.000000 0.000000
vt -0.000000 0.500000 0.000000
vt -1.240000 0.500000 0.000000
vt -1.240000 0.000000 0.000000
vt -0.000000 0.000000 0.000000
vt -0.620000 2.500000 0.000000
vt -0.620000 0.000000 0.000000
vt 0.620000 0.000000 0.000000
vt 0.620000 2.500000 0.000000
vt 0.275000 0.600000 0.000000
vt 0.263861 0.522524 0.000000
vt 0.231345 0.451324 0.000000
vt 0.180087 0.392169 0.000000
vt 0.114239 0.349851 0.000000
vt 0.039137 0.327799 0.000000
vt -0.039137 0.327799 0.000000
vt -0.114239 0.349851 0.000000
vt -0.180087 0.392169 0.000000
vt -0.231345 0.451324 0.000000
vt -0.263861 0.522524 0.000000
vt -0.275000 0.600000 0.000000
vt -0.263861 0.677476 0.000000
vt -0.231345 0.748676 0.000000
vt -0.180087 0.807831 0.000000
vt -0.114239 0.850149 0.000000
vt -0.039137 0.872201 0.000000
vt 0.039137 0.872201 0.000000
vt 0.114239 0.850149 0.000000
vt 0.180087 0.807831 0.000000
vt 0.231345 0.748676 0.000000
vt 0.263861 0.677476 0.000000
vt 0.275000 1.800000 0.000000
vt 0.263861 1.722524 0.000000
vt 0.231345 1.651324 0.000000
vt 0.180087 1.592169 0.000000
vt 0.114239 1.549851 0.000000
vt 0.039137 1.527799 0.000000
vt -0.039137 1.527799 0.000000
vt -0.114239 1.549851 0.000000
vt -0.180087 1.592169 0.000000
vt -0.231345 1.651324 0.000000
vt -0.263861 1.722524 0.000000
vt -0.275000 1.800000 0.000000
vt -0.263861 1.877477 0.000000
vt -0.231345 1.948676 0.000000
vt -0.180087 2.007831 0.000000
vt -0.114239 2.050149 0.000000
vt -0.039137 2.072201 0.000000
vt 0.039137 2.072201 0.000000
vt 0.114239 2.050149 0.000000
vt 0.180087 2.007831 0.000000
vt 0.231345 1.948676 0.000000
vt 0.263861 1.877477 0.000000
vt -0.000000 0.000000 0.000000
vt -0.100000 0.000000 0.000000
vt -1.000000 -0.327573 0.000000
vt -1.900000 0.000000 0.000000
vt -2.000000 0.000000 0.000000
vt -2.000000 -0.600000 0.000000
vt -0.000000 -0.600000 0.000000
vt 1.000000 -1.000000 0.000000
vt 0.900000 -1.000000 0.000000
vt 0.900000 -2.500000 0.000000
vt 1.000000 -2.500000 0.000000
vt -0.000000 0.000100 0.000000
vt -0.000000 1.500100 0.000000
vt -0.957760 1.500100 0.000000
vt -0.957760 0.000100 0.000000
vt -0.000000 0.000100 0.000000
vt -0.000000 1.500100 0.000000
vt -0.957760 1.500100 0.000000
vt -0.957760 0.000100 0.000000
vt 2.000000 0.000000 0.000000
vt 2.000000 1.414214 0.000000
vt 0.000000 1.414214 0.000000
vt 0.000000 0.000000 0.000000
vn -0.000000 0.000000 -0.100000
vn -0.000000 0.028173 -0.095949
vn -0.000000 0.054064 -0.084125
vn -0.000000 0.075575 -0.065486
vn -0.000000 0.090963 -0.041542
vn -0.000000 0.098982 -0.014231
vn -0.000000 0.098982 0.014231
vn 0.000000 0.090963 0.041542
vn 0.000000 0.075575 0.065486
vn 0.000000 0.054064 0.084125
vn 0.000000 0.028173 0.095949
vn 0.000000 -0.000000 0.100000
vn 0.000000 -0.028173 0.095949
vn 0.000000 -0.054064 0.084125
vn 0.000000 -0.075575 0.065486
vn 0.000000 -0.090963 0.041542
vn 0.000000 -0.098982 0.014231
vn 0.000000 -0.098982 -0.014231
vn -0.000000 -0.090963 -0.041542
vn -0.000000 -0.075575 -0.065486
vn -0.000000 -0.054064 -0.084125
vn -0.000000 -0.028173 -0.095949
vn -0.000000 0.000000 -0.100000
vn -0.000000 -0.028173 -0.095949
vn -0.000000 -0.054064 -0.084125
vn -0.000000 -0.075575 -0.065486
vn -0.000000 -0.090963 -0.041542
vn 0.000000 -0.098982 -0.014231
vn 0.000000 -0.098982 0.014231
vn 0.000000 -0.090963 0.041542
vn 0.000000 -0.075575 0.065486
vn 0.000000 -0.054064 0.084125
vn 0.000000 -0.028173 0.095949
vn 0.000000 -0.000000 0.100000
vn 0.000000 0.028173 0.095949
vn 0.000000 0.054064 0.084125
vn 0.000000 0.075575 0.065486
vn 0.000000 0.090963 0.041542
vn -0.000000 0.098982 0.014231
vn -0.000000 0.098982 -0.014231
vn -0.000000 0.090963 -0.041542
vn -0.000000 0.075575 -0.065486
vn -0.000000 0.054064 -0.084125
vn -0.000000 0.028173 -0.095949
vn -0.000000 0.000000 -0.100000
vn -0.000000 0.000000 -0.100000
vn -0.000000 0.000000 -0.100000
vn -0.000000 0.028173 -0.095949
vn -0.000000 0.054064 -0.084125
vn -0.000000 0.075575 -0.065486
vn -0.000000 0.090963 -0.041542
vn -0.000000 0.098982 -0.014231
vn -0.000000 0.098982 0.014231
vn 0.000000 0.090963 0.041542
vn 0.000000 0.075575 0.065486
vn 0.000000 0.054064 0.084125
vn 0.000000 0.028173 0.095949
vn 0.000000 -0.000000 0.100000
vn 0.000000 -0.028173 0.095949
vn 0.000000 -0.054064 0.084125
vn 0.000000 -0.075575 0.065486
vn 0.000000 -0.090963 0.041542
vn 0.000000 -0.098982 0.014231
vn 0.000000 -0.098982 -0.014231
vn -0.000000 -0.090963 -0.041542
vn -0.000000 -0.075575 -0.065486
vn -0.000000 -0.054064 -0.084125
vn -0.000000 -0.028173 -0.095949
vn -0.000000 0.000000 -0.100000
vn -0.000000 -0.028173 -0.095949
vn -0.000000 -0.054064 -0.084125
vn -0.000000 -0.075575 -0.065486
vn -0.000000 -0.090963 -0.041542
vn 0.000000 -0.098982 -0.014231
vn 0.000000 -0.098982 0.014231
vn 0.000000 -0.090963 0.041542
vn 0.000000 -0.075575 0.065486
vn 0.000000 -0.054064 0.084125
vn 0.000000 -0.028173 0.095949
vn 0.000000 -0.000000 0.100000
vn 0.000000 0.028173 0.095949
vn 0.000000 0.054064 0.084125
vn 0.000000 0.075575 0.065486
vn 0.000000 0.090963 0.041542
vn -0.000000 0.098982 0.014231
vn -0.000000 0.098982 -0.014231
vn -0.000000 0.090963 -0.041542
vn -0.000000 0.075575 -0.065486
vn -0.000000 0.054064 -0.084125
vn -0.000000 0.028173 -0.095949
vn -0.000000 0.000000 -0.100000
vn -0.000000 0.000000 -0.100000
vn -0.100000 -0.000000 0.000000
vn -0.100000 -0.000000 0.000000
vn -0.100000 -0.000000 0.000000
vn -0.100000 -0.000000 0.000000
vn 0.100000 0.000000 -0.000000
vn 0.100000 0.000000 -0.000000
vn 0.100000 0.000000 -0.000000
vn 0.100000 0.000000 -0.000000
vn 0.100000 0.000000 -0.000000
vn 0.100000 0.000000 -0.000000
vn 0.100000 0.000000 -0.000000
vn 0.100000 0.000000 -0.000000
vn 0.100000 0.000000 -0.000000
vn 0.100000 0.000000 -0.000000
vn 0.100000 0.000000 -0.000000
vn 0.100000 0.000000 -0.000000
vn 0.100000 0.000000 -0.000000
vn 0.100000 0.000000 -0.000000
vn 0.100000 0.000000 -0.000000
vn 0.100000 0.000000 -0.000000
vn 0.100000 0.000000 -0.000000
vn 0.100000 0.000000 -0.000000
vn 0.100000 0.000000 -0.000000
vn 0.100000 0.000000 -0.000000
vn 0.100000 0.000000 -0.000000
vn 0.100000 0.000000 -0.000000
vn 0.100000 0.000000 -0.000000
vn 0.100000 0.000000 -0.000000
vn 0.100000 0.000000 -0.000000
vn 0.100000 0.000000 -0.000000
vn 0.100000 0.000000 -0.000000
vn 0.100000 0.000000 -0.000000
vn 0.100000 0.000000 -0.000000
vn 0.100000 0.000000 -0.000000
vn 0.100000 0.000000 -0.000000
vn 0.100000 0.000000 -0.000000
vn 0.100000 0.000000 -0.000000
vn 0.100000 0.000000 -0.000000
vn 0.100000 0.000000 -0.000000
vn 0.100000 0.000000 -0.000000
vn 0.100000 0.000000 -0.000000
vn 0.100000 0.000000 -0.000000
vn 0.100000 0.000000 -0.000000
vn 0.100000 0.000000 -0.000000
vn 0.100000 0.000000 -0.000000
vn 0.100000 0.000000 -0.000000
vn 0.100000 0.000000 -0.000000
vn 0.100000 0.000000 -0.000000
vn 0.100000 0.000000 -0.000000
vn 0.100000 0.000000 -0.000000
vn 0.100000 0.000000 -0.000000
vn 0.100000 0.000000 -0.000000
vn -0.000000 0.000000 -0.100000
vn -0.000000 0.000000 -0.100000
vn -0.000000 0.000000 -0.100000
vn -0.000000 0.000000 -0.100000
vn -0.000000 0.000000 -0.100000
vn -0.000000 0.000000 -0.100000
vn -0.000000 0.000000 -0.100000
vn -0.000000 0.100000 0.000000
vn -0.000000 0.100000 0.000000
vn -0.000000 0.100000 0.000000
vn -0.000000 0.100000 0.000000
vn -0.000000 0.100000 0.000000
vn -0.000000 0.100000 0.000000
vn -0.000000 0.100000 0.000000
vn -0.000000 0.100000 0.000000
vn 0.000000 -0.000000 0.100000
vn 0.000000 -0.000000 0.100000
vn 0.000000 -0.000000 0.100000
vn 0.000000 -0.000000 0.100000
vn 0.000000 -0.000000 0.100000
vn 0.000000 -0.000000 0.100000
vn 0.000000 -0.000000 0.100000
vn 0.000000 -0.100000 -0.000000
vn 0.000000 -0.100000 -0.000000
vn 0.000000 -0.100000 -0.000000
vn 0.000000 -0.100000 -0.000000
vn 0.000000 -0.100000 -0.000000
vn 0.000000 -0.100000 -0.000000
vn 0.000000 -0.100000 -0.000000
vn -0.100000 -0.000000 0.000000
vn -0.100000 -0.000000 0.000000
vn -0.100000 -0.000000 0.000000
vn -0.100000 -0.000000 0.000000
vn -0.100000 -0.000000 0.000000
vn -0.100000 -0.000000 0.000000
vn -0.100000 -0.000000 0.000000
vn -0.100000 -0.000000 0.000000
vn 0.000000 -0.000000 0.100000
vn 0.000000 -0.000000 0.100000
vn 0.000000 -0.000000 0.100000
vn 0.000000 -0.000000 0.100000
vn -0.000000 0.000000 -0.100000
vn -0.000000 0.000000 -0.100000
vn -0.000000 0.000000 -0.100000
vn -0.000000 0.000000 -0.100000
vn -0.000000 0.100000 0.000000
vn -0.000000 0.100000 0.000000
vn -0.000000 0.100000 0.000000
vn -0.000000 0.100000 0.000000
vn -0.100000 -0.000000 0.000000
vn -0.100000 -0.000000 0.000000
vn -0.100000 -0.000000 0.000000
vn -0.100000 -0.000000 0.000000
vn -0.100000 -0.000000 0.000000
vn -0.100000 -0.000000 0.000000
vn -0.100000 -0.000000 0.000000
vn -0.100000 -0.000000 0.000000
vn -0.100000 -0.000000 0.000000
vn -0.100000 -0.000000 0.000000
vn -0.100000 -0.000000 0.000000
vn -0.100000 -0.000000 0.000000
vn -0.100000 -0.000000 0.000000
vn -0.100000 -0.000000 0.000000
vn -0.100000 -0.000000 0.000000
vn -0.100000 -0.000000 0.000000
vn -0.100000 -0.000000 0.000000
vn -0.100000 -0.000000 0.000000
vn -0.100000 -0.000000 0.000000
vn -0.100000 -0.000000 0.000000
vn -0.100000 -0.000000 0.000000
vn -0.100000 -0.000000 0.000000
vn -0.100000 -0.000000 0.000000
vn -0.100000 -0.000000 0.000000
vn -0.100000 -0.000000 0.000000
vn -0.100000 -0.000000 0.000000
vn -0.100000 -0.000000 0.000000
vn -0.100000 -0.000000 0.000000
vn -0.100000 -0.000000 0.000000
vn -0.100000 -0.000000 0.000000
vn -0.100000 -0.000000 0.000000
vn -0.100000 -0.000000 0.000000
vn -0.100000 -0.000000 0.000000
vn -0.100000 -0.000000 0.000000
vn -0.100000 -0.000000 0.000000
vn -0.100000 -0.000000 0.000000
vn -0.100000 -0.000000 0.000000
vn -0.100000 -0.000000 0.000000
vn -0.100000 -0.000000 0.000000
vn -0.100000 -0.000000 0.000000
vn -0.100000 -0.000000 0.000000
vn -0.100000 -0.000000 0.000000
vn -0.100000 -0.000000 0.000000
vn -0.100000 -0.000000 0.000000
vn -0.100000 -0.000000 0.000000
vn -0.100000 -0.000000 0.000000
vn -0.100000 -0.000000 0.000000
vn -0.100000 -0.000000 0.000000
vn -0.000000 0.100000 0.000000
vn -0.000000 0.100000 0.000000
vn -0.000000 0.100000 0.000000
vn -0.000000 0.100000 0.000000
vn -0.000000 0.100000 0.000000
vn -0.000000 0.100000 0.000000
vn -0.000000 0.100000 0.000000
vn -0.100000 -0.000000 0.000000
vn -0.100000 -0.000000 0.000000
vn -0.100000 -0.000000 0.000000
vn -0.100000 -0.000000 0.000000
vn -0.093969 -0.000000 0.034202
vn -0.093969 -0.000000 0.034202
vn -0.093969 -0.000000 0.034202
vn -0.093969 -0.000000 0.034202
vn -0.093969 -0.000000 -0.034202
vn -0.093969 -0.000000 -0.034202
vn -0.093969 -0.000000 -0.034202
vn -0.093969 -0.000000 -0.034202
vn 0.070711 -0.070711 -0.000000
vn 0.070711 -0.070711 -0.000000
vn 0.070711 -0.070711 -0.000000
vn 0.070711 -0.070711 -0.000000
f 271/582/582 321/624/624 273/581/581
f 273/581/581 321/624/624 323/625/625
f 273/626/626 323/603/603 275/602/602
f 275/602/602 323/603/603 325/604/604
f 275/602/602 325/604/604 277/601/601
f 277/601/601 325/604/604 327/605/605
f 277/601/601 327/605/605 279/600/600
f 279/600/600 327/605/605 329/606/606
f 279/600/600 329/606/606 281/599/599
f 281/599/599 329/606/606 331/607/607
f 281/599/599 331/607/607 283/598/598
f 283/598/598 331/607/607 333/608/608
f 283/598/598 333/608/608 284/597/597
f 284/597/597 333/608/608 334/609/609
f 284/597/597 334/609/609 282/596/596
f 282/596/596 334/609/609 332/610/610
f 282/596/596 332/610/610 280/595/595
f 280/595/595 332/610/610 330/611/611
f 280/595/595 330/611/611 278/594/594
f 278/594/594 330/611/611 328/612/612
f 278/594/594 328/612/612 276/593/593
f 276/593/593 328/612/612 326/613/613
f 276/593/593 326/613/613 274/592/592
f 274/592/592 326/613/613 324/614/614
f 274/592/592 324/614/614 272/591/591
f 272/591/591 324/614/614 322/615/615
f 272/591/591 322/615/615 270/590/590
f 270/590/590 322/615/615 320/616/616
f 270/590/590 320/616/616 268/589/589
f 268/589/589 320/616/616 318/617/617
f 268/589/589 318/617/617 266/588/588
f 266/588/588 318/617/617 316/618/618
f 266/588/588 316/618/618 264/587/587
f 264/587/587 316/618/618 314/619/619
f 264/587/587 314/619/619 263/586/586
f 263/586/586 314/619/619 313/620/620
f 263/586/586 313/620/620 265/585/585
f 265/585/585 313/620/620 315/621/621
f 265/585/585 315/621/621 267/584/584
f 267/584/584 315/621/621 317/622/622
f 267/584/584 317/622/622 269/583/583
f 269/583/583 317/622/622 319/623/623
f 269/583/583 319/623/623 271/582/582
f 271/582/582 319/623/623 321/624/624
f 293/628/628 343/670/670 295/627/627
f 295/627/627 343/670/670 345/671/671
f 295/672/672 345/649/649 297/648/648
f 297/648/648 345/649/649 347/650/650
f 297/648/648 347/650/650 299/647/647
f 299/647/647 347/650/650 349/651/651
f 299/647/647 349/651/651 301/646/646
f 301/646/646 349/651/651 351/652/652
f 301/646/646 351/652/652 303/645/645
f 303/645/645 351/652/652 353/653/653
f 303/645/645 353/653/653 305/644/644
f 305/644/644 353/653/653 355/654/654
f 305/644/644 355/654/654 306/643/643
f 306/643/643 355/654/654 356/655/655
f 306/643/643 356/655/655 304/642/642
f 304/642/642 356/655/655 354/656/656
f 304/642/642 354/656/656 302/641/641
f 302/641/641 354/656/656 352/657/657
f 302/641/641 352/657/657 300/640/640
f 300/640/640 352/657/657 350/658/658
f 300/640/640 350/658/658 298/639/639
f 298/639/639 350/658/658 348/659/659
f 298/639/639 348/659/659 296/638/638
f 296/638/638 348/659/659 346/660/660
f 296/638/638 346/660/660 294/637/637
f 294/637/637 346/660/660 344/661/661
f 294/637/637 344/661/661 292/636/636
f 292/636/636 344/661/661 342/662/662
f 292/636/636 342/662/662 290/635/635
f 290/635/635 342/662/662 340/663/663
f 290/635/635 340/663/663 288/634/634
f 288/634/634 340/663/663 338/664/664
f 288/634/634 338/664/664 286/633/633
f 286/633/633 338/664/664 336/665/665
f 286/633/633 336/665/665 285/632/632
f 285/632/632 336/665/665 335/666/666
f 285/632/632 335/666/666 287/631/631
f 287/631/631 335/666/666 337/667/667
f 287/631/631 337/667/667 289/630/630
f 289/630/630 337/667/667 339/668/668
f 289/630/630 339/668/668 291/629/629
f 291/629/629 339/668/668 341/669/669
f 291/629/629 341/669/669 293/628/628
f 293/628/628 341/669/669 343/670/670
f 372/673/673 371/674/674 376/676/676
f 376/676/676 371/674/674 375/675/675
f 261/678/678 273/703/703 307/677/677
f 307/677/677 273/703/703 275/704/704
f 307/677/677 275/704/704 293/702/702
f 293/702/702 275/704/704 291/701/701
f 291/701/701 275/704/704 277/705/705
f 291/701/701 277/705/705 289/700/700
f 289/700/700 277/705/705 279/706/706
f 289/700/700 279/706/706 287/699/699
f 287/699/699 279/706/706 281/707/707
f 287/699/699 281/707/707 285/698/698
f 285/698/698 281/707/707 283/708/708
f 285/698/698 283/708/708 284/709/709
f 262/679/679 263/720/720 261/678/678
f 261/678/678 263/720/720 265/721/721
f 261/678/678 265/721/721 267/722/722
f 308/680/680 274/714/714 262/679/679
f 262/679/679 274/714/714 272/715/715
f 262/679/679 272/715/715 270/716/716
f 307/677/677 306/687/687 308/680/680
f 308/680/680 306/687/687 304/688/688
f 308/680/680 304/688/688 302/689/689
f 293/702/702 295/681/681 307/677/677
f 307/677/677 295/681/681 297/682/682
f 307/677/677 297/682/682 299/683/683
f 299/683/683 301/684/684 307/677/677
f 307/677/677 301/684/684 303/685/685
f 307/677/677 303/685/685 305/686/686
f 305/686/686 306/687/687 307/677/677
f 302/689/689 300/690/690 308/680/680
f 308/680/680 300/690/690 298/691/691
f 308/680/680 298/691/691 296/692/692
f 296/692/692 294/693/693 308/680/680
f 308/680/680 294/693/693 276/713/713
f 308/680/680 276/713/713 274/714/714
f 294/693/693 292/694/694 276/713/713
f 276/713/713 292/694/694 278/712/712
f 278/712/712 292/694/694 290/695/695
f 278/712/712 290/695/695 280/711/711
f 280/711/711 290/695/695 288/696/696
f 280/711/711 288/696/696 282/710/710
f 282/710/710 288/696/696 286/697/697
f 282/710/710 286/697/697 284/709/709
f 284/709/709 286/697/697 285/698/698
f 270/716/716 268/717/717 262/679/679
f 262/679/679 268/717/717 266/718/718
f 262/679/679 266/718/718 264/719/719
f 264/719/719 263/720/720 262/679/679
f 267/722/722 269/723/723 261/678/678
f 261/678/678 269/723/723 271/724/724
f 261/678/678 271/724/724 273/703/703
f 366/731/731 308/725/725 360/730/730
f 360/730/730 308/725/725 262/726/726
f 360/730/730 262/726/726 310/727/727
f 310/727/727 372/728/728 360/730/730
f 360/730/730 372/728/728 376/729/729
f 365/732/732 358/733/733 366/739/739
f 366/739/739 358/733/733 308/738/738
f 308/738/738 358/733/733 357/734/734
f 308/738/738 357/734/734 307/737/737
f 307/737/737 357/734/734 363/736/736
f 363/736/736 357/734/734 364/735/735
f 373/746/746 369/740/740 359/745/745
f 359/745/745 369/740/740 309/741/741
f 359/745/745 309/741/741 261/742/742
f 261/742/742 307/743/743 359/745/745
f 359/745/745 307/743/743 363/744/744
f 372/747/747 310/748/748 371/753/753
f 371/753/753 310/748/748 367/752/752
f 367/752/752 310/748/748 309/749/749
f 367/752/752 309/749/749 370/751/751
f 370/751/751 309/749/749 369/750/750
f 366/761/761 360/754/754 362/759/759
f 362/759/759 360/754/754 359/755/755
f 362/759/759 359/755/755 361/758/758
f 361/758/758 359/755/755 363/756/756
f 361/758/758 363/756/756 364/757/757
f 362/759/759 365/760/760 366/761/761
f 365/762/762 362/763/763 358/765/765
f 358/765/765 362/763/763 312/764/764
f 361/766/766 364/767/767 311/769/769
f 311/769/769 364/767/767 357/768/768
f 362/770/770 361/771/771 312/773/773
f 312/773/773 361/771/771 311/772/772
f 312/775/775 344/810/810 358/774/774
f 358/774/774 344/810/810 346/811/811
f 358/774/774 346/811/811 348/812/812
f 311/776/776 314/784/784 312/775/775
f 312/775/775 314/784/784 316/785/785
f 312/775/775 316/785/785 318/786/786
f 357/777/777 343/801/801 311/776/776
f 311/776/776 343/801/801 325/799/799
f 311/776/776 325/799/799 323/778/778
f 358/774/774 355/817/817 357/777/777
f 357/777/777 355/817/817 353/818/818
f 357/777/777 353/818/818 351/819/819
f 323/778/778 321/779/779 311/776/776
f 311/776/776 321/779/779 319/780/780
f 311/776/776 319/780/780 317/781/781
f 317/781/781 315/782/782 311/776/776
f 311/776/776 315/782/782 313/783/783
f 311/776/776 313/783/783 314/784/784
f 318/786/786 320/787/787 312/775/775
f 312/775/775 320/787/787 322/788/788
f 312/775/775 322/788/788 324/789/789
f 324/789/789 326/790/790 312/775/775
f 312/775/775 326/790/790 344/810/810
f 326/790/790 328/791/791 344/810/810
f 344/810/810 328/791/791 342/809/809
f 342/809/809 328/791/791 340/808/808
f 340/808/808 328/791/791 330/792/792
f 340/808/808 330/792/792 338/807/807
f 338/807/807 330/792/792 332/793/793
f 338/807/807 332/793/793 336/806/806
f 336/806/806 332/793/793 334/794/794
f 336/806/806 334/794/794 333/795/795
f 336/806/806 333/795/795 335/805/805
f 335/805/805 333/795/795 331/796/796
f 335/805/805 331/796/796 337/804/804
f 337/804/804 331/796/796 329/797/797
f 337/804/804 329/797/797 339/803/803
f 339/803/803 329/797/797 327/798/798
f 339/803/803 327/798/798 341/802/802
f 341/802/802 327/798/798 343/801/801
f 343/801/801 327/798/798 325/799/799
f 347/821/821 345/800/800 357/777/777
f 357/777/777 345/800/800 343/801/801
f 348/812/812 350/813/813 358/774/774
f 358/774/774 350/813/813 352/814/814
f 358/774/774 352/814/814 354/815/815
f 354/815/815 356/816/816 358/774/774
f 358/774/774 356/816/816 355/817/817
f 351/819/819 349/820/820 357/777/777
f 357/777/777 349/820/820 347/821/821
f 375/823/823 368/824/824 376/822/822
f 376/822/822 368/824/824 360/828/828
f 360/828/828 368/824/824 359/827/827
f 359/827/827 368/824/824 373/826/826
f 373/826/826 368/824/824 374/825/825
f 373/829/829 374/830/830 369/832/832
f 369/832/832 374/830/830 370/831/831
f 368/834/834 375/835/835 367/833/833
f 367/833/833 375/835/835 371/836/836
f 374/838/838 368/839/839 370/837/837
f 370/837/837 368/839/839 367/840/840
f 262/842/842 261/843/843 310/841/841
f 310/841/841 261/843/843 309/844/844
# 376 vertices
# 844 texture params
# 844 normals
# 760 facets

# 2 groups
